<svg width="453" height="335" viewBox="0 0 453 335" fill="none" xmlns="http://www.w3.org/2000/svg">
<path d="M191.828 112L121.828 42" stroke="#0058E6" stroke-width="9"/>
<circle cx="117.828" cy="34.5" r="29.5" fill="#0058E6"/>
<path d="M161.111 26L161.447 6.56H165.647L168.047 18.824L170.615 6.56H174.671L175.007 26H172.127L171.815 12.824L169.343 26H166.871L164.279 12.728L164.015 26H161.111ZM182.022 26.24C180.998 26.24 180.142 26.056 179.454 25.688C178.766 25.304 178.246 24.752 177.894 24.032C177.542 23.296 177.366 22.416 177.366 21.392V16.736C177.366 15.68 177.542 14.8 177.894 14.096C178.246 13.376 178.774 12.832 179.478 12.464C180.182 12.08 181.03 11.888 182.022 11.888C183.078 11.888 183.934 12.08 184.59 12.464C185.246 12.848 185.726 13.408 186.03 14.144C186.35 14.88 186.51 15.776 186.51 16.832V19.256H180.942V21.944C180.942 22.344 180.982 22.672 181.062 22.928C181.158 23.184 181.286 23.368 181.446 23.48C181.606 23.576 181.806 23.624 182.046 23.624C182.27 23.624 182.462 23.576 182.622 23.48C182.798 23.368 182.926 23.2 183.006 22.976C183.086 22.752 183.126 22.456 183.126 22.088V20.768H186.486V21.92C186.486 23.328 186.102 24.4 185.334 25.136C184.566 25.872 183.462 26.24 182.022 26.24ZM180.942 17.528H183.126V16.16C183.126 15.76 183.086 15.44 183.006 15.2C182.926 14.944 182.798 14.768 182.622 14.672C182.462 14.56 182.254 14.504 181.998 14.504C181.758 14.504 181.558 14.56 181.398 14.672C181.254 14.784 181.142 14.984 181.062 15.272C180.982 15.544 180.942 15.936 180.942 16.448V17.528ZM193.037 26.24C192.013 26.24 191.157 26.048 190.469 25.664C189.781 25.264 189.261 24.704 188.909 23.984C188.573 23.264 188.405 22.408 188.405 21.416V16.736C188.405 15.696 188.573 14.824 188.909 14.12C189.261 13.4 189.781 12.848 190.469 12.464C191.157 12.08 192.013 11.888 193.037 11.888C194.029 11.888 194.861 12.048 195.533 12.368C196.205 12.672 196.701 13.136 197.021 13.76C197.357 14.384 197.525 15.168 197.525 16.112V17.432H194.069V16.016C194.069 15.6 194.029 15.28 193.949 15.056C193.885 14.816 193.773 14.648 193.613 14.552C193.469 14.456 193.277 14.408 193.037 14.408C192.797 14.408 192.605 14.472 192.461 14.6C192.317 14.712 192.213 14.912 192.149 15.2C192.085 15.472 192.053 15.856 192.053 16.352V21.8C192.053 22.552 192.133 23.064 192.293 23.336C192.469 23.592 192.725 23.72 193.061 23.72C193.317 23.72 193.517 23.664 193.661 23.552C193.805 23.44 193.909 23.264 193.973 23.024C194.037 22.784 194.069 22.48 194.069 22.112V20.432H197.525V21.944C197.525 22.872 197.357 23.664 197.021 24.32C196.685 24.96 196.181 25.44 195.509 25.76C194.837 26.08 194.013 26.24 193.037 26.24ZM199.663 26V6.56H203.263V13.4C203.775 12.904 204.311 12.528 204.871 12.272C205.431 12.016 206.039 11.888 206.695 11.888C207.255 11.888 207.711 12.032 208.063 12.32C208.431 12.608 208.703 12.992 208.879 13.472C209.055 13.936 209.143 14.464 209.143 15.056V26H205.519V15.656C205.519 15.272 205.463 14.984 205.351 14.792C205.239 14.6 205.015 14.504 204.679 14.504C204.487 14.504 204.263 14.56 204.007 14.672C203.767 14.768 203.519 14.904 203.263 15.08V26H199.663ZM214.281 26.24C213.625 26.24 213.057 26.072 212.577 25.736C212.113 25.4 211.761 24.976 211.521 24.464C211.281 23.952 211.161 23.424 211.161 22.88C211.161 22.016 211.329 21.288 211.665 20.696C212.001 20.104 212.441 19.608 212.985 19.208C213.529 18.808 214.137 18.464 214.809 18.176C215.481 17.888 216.153 17.624 216.825 17.384V16.088C216.825 15.784 216.801 15.52 216.753 15.296C216.705 15.072 216.609 14.904 216.465 14.792C216.337 14.664 216.145 14.6 215.889 14.6C215.633 14.6 215.433 14.656 215.289 14.768C215.161 14.864 215.065 15.016 215.001 15.224C214.953 15.416 214.921 15.632 214.905 15.872L214.833 16.832L211.401 16.688C211.481 15.056 211.905 13.848 212.673 13.064C213.457 12.28 214.633 11.888 216.201 11.888C217.609 11.888 218.649 12.28 219.321 13.064C219.993 13.832 220.329 14.848 220.329 16.112V22.568C220.329 23.112 220.337 23.6 220.353 24.032C220.385 24.448 220.417 24.824 220.449 25.16C220.497 25.48 220.537 25.76 220.569 26H217.305C217.257 25.648 217.201 25.264 217.137 24.848C217.073 24.432 217.025 24.152 216.993 24.008C216.833 24.584 216.529 25.104 216.081 25.568C215.633 26.016 215.033 26.24 214.281 26.24ZM215.601 23.672C215.777 23.672 215.945 23.632 216.105 23.552C216.265 23.472 216.401 23.368 216.513 23.24C216.641 23.112 216.745 22.992 216.825 22.88V19.064C216.489 19.272 216.177 19.48 215.889 19.688C215.601 19.88 215.353 20.096 215.145 20.336C214.937 20.576 214.777 20.84 214.665 21.128C214.553 21.416 214.497 21.744 214.497 22.112C214.497 22.592 214.593 22.976 214.785 23.264C214.977 23.536 215.249 23.672 215.601 23.672ZM222.678 26V12.128H226.302V13.52C226.798 13.024 227.318 12.632 227.862 12.344C228.422 12.04 229.014 11.888 229.638 11.888C230.214 11.888 230.678 12.032 231.03 12.32C231.398 12.608 231.67 12.992 231.846 13.472C232.022 13.936 232.11 14.464 232.11 15.056V26H228.51V15.656C228.51 15.272 228.446 14.984 228.318 14.792C228.206 14.6 227.982 14.504 227.646 14.504C227.454 14.504 227.238 14.56 226.998 14.672C226.774 14.768 226.542 14.904 226.302 15.08V26H222.678ZM234.562 26V12.128H238.186V26H234.562ZM234.538 9.848V7.136H238.186V9.848H234.538ZM245.022 26.24C243.998 26.24 243.142 26.048 242.454 25.664C241.766 25.264 241.246 24.704 240.894 23.984C240.558 23.264 240.39 22.408 240.39 21.416V16.736C240.39 15.696 240.558 14.824 240.894 14.12C241.246 13.4 241.766 12.848 242.454 12.464C243.142 12.08 243.998 11.888 245.022 11.888C246.014 11.888 246.846 12.048 247.518 12.368C248.19 12.672 248.686 13.136 249.006 13.76C249.342 14.384 249.51 15.168 249.51 16.112V17.432H246.054V16.016C246.054 15.6 246.014 15.28 245.934 15.056C245.87 14.816 245.758 14.648 245.598 14.552C245.454 14.456 245.262 14.408 245.022 14.408C244.782 14.408 244.59 14.472 244.446 14.6C244.302 14.712 244.198 14.912 244.134 15.2C244.07 15.472 244.038 15.856 244.038 16.352V21.8C244.038 22.552 244.118 23.064 244.278 23.336C244.454 23.592 244.71 23.72 245.046 23.72C245.302 23.72 245.502 23.664 245.646 23.552C245.79 23.44 245.894 23.264 245.958 23.024C246.022 22.784 246.054 22.48 246.054 22.112V20.432H249.51V21.944C249.51 22.872 249.342 23.664 249.006 24.32C248.67 24.96 248.166 25.44 247.494 25.76C246.822 26.08 245.998 26.24 245.022 26.24ZM261.967 26.24C260.943 26.24 260.087 26.048 259.399 25.664C258.711 25.264 258.191 24.704 257.839 23.984C257.503 23.264 257.335 22.408 257.335 21.416V16.736C257.335 15.696 257.503 14.824 257.839 14.12C258.191 13.4 258.711 12.848 259.399 12.464C260.087 12.08 260.943 11.888 261.967 11.888C262.959 11.888 263.791 12.048 264.463 12.368C265.135 12.672 265.631 13.136 265.951 13.76C266.287 14.384 266.455 15.168 266.455 16.112V17.432H262.999V16.016C262.999 15.6 262.959 15.28 262.879 15.056C262.815 14.816 262.703 14.648 262.543 14.552C262.399 14.456 262.207 14.408 261.967 14.408C261.727 14.408 261.535 14.472 261.391 14.6C261.247 14.712 261.143 14.912 261.079 15.2C261.015 15.472 260.983 15.856 260.983 16.352V21.8C260.983 22.552 261.063 23.064 261.223 23.336C261.399 23.592 261.655 23.72 261.991 23.72C262.247 23.72 262.447 23.664 262.591 23.552C262.735 23.44 262.839 23.264 262.903 23.024C262.967 22.784 262.999 22.48 262.999 22.112V20.432H266.455V21.944C266.455 22.872 266.287 23.664 265.951 24.32C265.615 24.96 265.111 25.44 264.439 25.76C263.767 26.08 262.943 26.24 261.967 26.24ZM272.96 26.24C271.968 26.24 271.12 26.064 270.416 25.712C269.712 25.344 269.176 24.816 268.808 24.128C268.456 23.44 268.28 22.584 268.28 21.56V16.568C268.28 15.544 268.456 14.688 268.808 14C269.176 13.312 269.712 12.792 270.416 12.44C271.12 12.072 271.968 11.888 272.96 11.888C273.952 11.888 274.8 12.072 275.504 12.44C276.208 12.792 276.744 13.312 277.112 14C277.48 14.688 277.664 15.544 277.664 16.568V21.56C277.664 22.584 277.48 23.44 277.112 24.128C276.744 24.816 276.208 25.344 275.504 25.712C274.8 26.064 273.952 26.24 272.96 26.24ZM272.984 23.792C273.288 23.792 273.52 23.712 273.68 23.552C273.84 23.376 273.944 23.144 273.992 22.856C274.04 22.552 274.064 22.208 274.064 21.824V16.328C274.064 15.928 274.04 15.584 273.992 15.296C273.944 15.008 273.84 14.776 273.68 14.6C273.52 14.424 273.288 14.336 272.984 14.336C272.68 14.336 272.448 14.424 272.288 14.6C272.128 14.776 272.016 15.008 271.952 15.296C271.904 15.584 271.88 15.928 271.88 16.328V21.824C271.88 22.208 271.904 22.552 271.952 22.856C272.016 23.144 272.128 23.376 272.288 23.552C272.448 23.712 272.68 23.792 272.984 23.792ZM279.865 26V12.128H283.393V13.28C283.889 12.768 284.409 12.408 284.953 12.2C285.513 11.976 286.081 11.864 286.657 11.864C287.217 11.864 287.697 12.008 288.097 12.296C288.513 12.568 288.817 12.984 289.009 13.544C289.553 12.936 290.121 12.504 290.713 12.248C291.305 11.992 291.913 11.864 292.537 11.864C293.049 11.864 293.505 11.992 293.905 12.248C294.305 12.504 294.617 12.88 294.841 13.376C295.065 13.872 295.177 14.48 295.177 15.2V26H291.649V15.56C291.649 15.112 291.569 14.8 291.409 14.624C291.265 14.432 291.041 14.336 290.737 14.336C290.545 14.336 290.313 14.392 290.041 14.504C289.769 14.616 289.513 14.776 289.273 14.984C289.273 15.016 289.273 15.048 289.273 15.08C289.273 15.112 289.273 15.152 289.273 15.2V26H285.793V15.56C285.793 15.112 285.713 14.8 285.553 14.624C285.393 14.432 285.161 14.336 284.857 14.336C284.649 14.336 284.409 14.392 284.137 14.504C283.881 14.616 283.633 14.776 283.393 14.984V26H279.865ZM301.929 26.24C300.905 26.24 300.049 26.056 299.361 25.688C298.673 25.304 298.153 24.752 297.801 24.032C297.449 23.296 297.273 22.416 297.273 21.392V16.736C297.273 15.68 297.449 14.8 297.801 14.096C298.153 13.376 298.681 12.832 299.385 12.464C300.089 12.08 300.937 11.888 301.929 11.888C302.985 11.888 303.841 12.08 304.497 12.464C305.153 12.848 305.633 13.408 305.937 14.144C306.257 14.88 306.417 15.776 306.417 16.832V19.256H300.849V21.944C300.849 22.344 300.889 22.672 300.969 22.928C301.065 23.184 301.193 23.368 301.353 23.48C301.513 23.576 301.713 23.624 301.953 23.624C302.177 23.624 302.369 23.576 302.529 23.48C302.705 23.368 302.833 23.2 302.913 22.976C302.993 22.752 303.033 22.456 303.033 22.088V20.768H306.393V21.92C306.393 23.328 306.009 24.4 305.241 25.136C304.473 25.872 303.369 26.24 301.929 26.24ZM300.849 17.528H303.033V16.16C303.033 15.76 302.993 15.44 302.913 15.2C302.833 14.944 302.705 14.768 302.529 14.672C302.369 14.56 302.161 14.504 301.905 14.504C301.665 14.504 301.465 14.56 301.305 14.672C301.161 14.784 301.049 14.984 300.969 15.272C300.889 15.544 300.849 15.936 300.849 16.448V17.528ZM312.632 26.24C311.432 26.24 310.44 25.952 309.656 25.376C308.888 24.784 308.288 23.88 307.856 22.664L310.4 21.608C310.64 22.28 310.928 22.808 311.264 23.192C311.6 23.56 311.992 23.744 312.44 23.744C312.776 23.744 313.024 23.672 313.184 23.528C313.36 23.368 313.448 23.152 313.448 22.88C313.448 22.496 313.32 22.152 313.064 21.848C312.808 21.544 312.352 21.12 311.696 20.576L310.4 19.472C309.728 18.896 309.184 18.328 308.768 17.768C308.368 17.192 308.168 16.48 308.168 15.632C308.168 14.88 308.352 14.224 308.72 13.664C309.104 13.104 309.608 12.672 310.232 12.368C310.872 12.048 311.56 11.888 312.296 11.888C313.432 11.888 314.36 12.216 315.08 12.872C315.816 13.512 316.312 14.384 316.568 15.488L314.216 16.544C314.12 16.192 313.992 15.864 313.832 15.56C313.672 15.24 313.464 14.976 313.208 14.768C312.968 14.56 312.696 14.456 312.392 14.456C312.104 14.456 311.872 14.544 311.696 14.72C311.52 14.896 311.432 15.12 311.432 15.392C311.432 15.68 311.576 15.984 311.864 16.304C312.168 16.624 312.584 17.008 313.112 17.456L314.408 18.608C314.792 18.944 315.168 19.304 315.536 19.688C315.904 20.056 316.208 20.472 316.448 20.936C316.688 21.384 316.808 21.904 316.808 22.496C316.808 23.296 316.616 23.976 316.232 24.536C315.848 25.096 315.336 25.52 314.696 25.808C314.072 26.096 313.384 26.24 312.632 26.24ZM328.666 26.144C327.706 26.144 326.954 26 326.41 25.712C325.866 25.408 325.49 24.976 325.282 24.416C325.074 23.856 324.97 23.176 324.97 22.376V14.504H323.602V12.128H324.97V7.928H328.642V12.128H330.658V14.504H328.642V22.04C328.642 22.472 328.746 22.784 328.954 22.976C329.178 23.152 329.482 23.24 329.866 23.24C330.058 23.24 330.242 23.232 330.418 23.216C330.594 23.184 330.754 23.16 330.898 23.144V25.976C330.674 26.008 330.354 26.04 329.938 26.072C329.522 26.12 329.098 26.144 328.666 26.144ZM337.156 26.24C336.164 26.24 335.316 26.064 334.612 25.712C333.908 25.344 333.372 24.816 333.004 24.128C332.652 23.44 332.476 22.584 332.476 21.56V16.568C332.476 15.544 332.652 14.688 333.004 14C333.372 13.312 333.908 12.792 334.612 12.44C335.316 12.072 336.164 11.888 337.156 11.888C338.148 11.888 338.996 12.072 339.7 12.44C340.404 12.792 340.94 13.312 341.308 14C341.676 14.688 341.86 15.544 341.86 16.568V21.56C341.86 22.584 341.676 23.44 341.308 24.128C340.94 24.816 340.404 25.344 339.7 25.712C338.996 26.064 338.148 26.24 337.156 26.24ZM337.18 23.792C337.484 23.792 337.716 23.712 337.876 23.552C338.036 23.376 338.14 23.144 338.188 22.856C338.236 22.552 338.26 22.208 338.26 21.824V16.328C338.26 15.928 338.236 15.584 338.188 15.296C338.14 15.008 338.036 14.776 337.876 14.6C337.716 14.424 337.484 14.336 337.18 14.336C336.876 14.336 336.644 14.424 336.484 14.6C336.324 14.776 336.212 15.008 336.148 15.296C336.1 15.584 336.076 15.928 336.076 16.328V21.824C336.076 22.208 336.1 22.552 336.148 22.856C336.212 23.144 336.324 23.376 336.484 23.552C336.644 23.712 336.876 23.792 337.18 23.792ZM350.301 29.912V27.368C350.829 27.368 351.261 27.336 351.597 27.272C351.933 27.208 352.181 27.088 352.34 26.912C352.517 26.752 352.605 26.52 352.605 26.216C352.605 25.976 352.549 25.648 352.437 25.232C352.341 24.816 352.229 24.352 352.101 23.84L348.933 12.128H352.365L354.141 20.648L355.581 12.128H359.037L355.821 26.432C355.629 27.328 355.309 28.024 354.861 28.52C354.429 29.032 353.893 29.392 353.253 29.6C352.629 29.808 351.901 29.912 351.069 29.912H350.301ZM364.906 26.24C363.914 26.24 363.066 26.064 362.362 25.712C361.658 25.344 361.122 24.816 360.754 24.128C360.402 23.44 360.226 22.584 360.226 21.56V16.568C360.226 15.544 360.402 14.688 360.754 14C361.122 13.312 361.658 12.792 362.362 12.44C363.066 12.072 363.914 11.888 364.906 11.888C365.898 11.888 366.746 12.072 367.45 12.44C368.154 12.792 368.69 13.312 369.058 14C369.426 14.688 369.61 15.544 369.61 16.568V21.56C369.61 22.584 369.426 23.44 369.058 24.128C368.69 24.816 368.154 25.344 367.45 25.712C366.746 26.064 365.898 26.24 364.906 26.24ZM364.93 23.792C365.234 23.792 365.466 23.712 365.626 23.552C365.786 23.376 365.89 23.144 365.938 22.856C365.986 22.552 366.01 22.208 366.01 21.824V16.328C366.01 15.928 365.986 15.584 365.938 15.296C365.89 15.008 365.786 14.776 365.626 14.6C365.466 14.424 365.234 14.336 364.93 14.336C364.626 14.336 364.394 14.424 364.234 14.6C364.074 14.776 363.962 15.008 363.898 15.296C363.85 15.584 363.826 15.928 363.826 16.328V21.824C363.826 22.208 363.85 22.552 363.898 22.856C363.962 23.144 364.074 23.376 364.234 23.552C364.394 23.712 364.626 23.792 364.93 23.792ZM374.163 26.24C373.603 26.24 373.131 26.096 372.747 25.808C372.379 25.52 372.107 25.136 371.931 24.656C371.755 24.176 371.667 23.648 371.667 23.072V12.128H375.291V22.544C375.291 22.928 375.355 23.224 375.483 23.432C375.611 23.624 375.843 23.72 376.179 23.72C376.371 23.72 376.571 23.672 376.779 23.576C377.003 23.464 377.227 23.336 377.451 23.192V12.128H381.075V26H377.451V24.704C376.97 25.168 376.451 25.544 375.891 25.832C375.347 26.104 374.771 26.24 374.163 26.24Z" fill="black"/>
<path d="M162.406 42.625V54H160.898V42.625H162.406ZM167.172 47.7422V48.9766H162.078V47.7422H167.172ZM167.945 42.625V43.8594H162.078V42.625H167.945ZM171.094 45.5469V54H169.641V45.5469H171.094ZM169.531 43.3047C169.531 43.0703 169.602 42.8724 169.742 42.7109C169.888 42.5495 170.102 42.4688 170.383 42.4688C170.659 42.4688 170.87 42.5495 171.016 42.7109C171.167 42.8724 171.242 43.0703 171.242 43.3047C171.242 43.5286 171.167 43.7214 171.016 43.8828C170.87 44.0391 170.659 44.1172 170.383 44.1172C170.102 44.1172 169.888 44.0391 169.742 43.8828C169.602 43.7214 169.531 43.5286 169.531 43.3047ZM174.391 45.5469L176.242 48.625L178.117 45.5469H179.812L177.047 49.7188L179.898 54H178.227L176.273 50.8281L174.32 54H172.641L175.484 49.7188L172.727 45.5469H174.391ZM184.703 54.1562C184.115 54.1562 183.581 54.0573 183.102 53.8594C182.628 53.6562 182.219 53.3724 181.875 53.0078C181.536 52.6432 181.276 52.2109 181.094 51.7109C180.911 51.2109 180.82 50.6641 180.82 50.0703V49.7422C180.82 49.0547 180.922 48.4427 181.125 47.9062C181.328 47.3646 181.604 46.9062 181.953 46.5312C182.302 46.1562 182.698 45.8724 183.141 45.6797C183.583 45.487 184.042 45.3906 184.516 45.3906C185.12 45.3906 185.641 45.4948 186.078 45.7031C186.521 45.9115 186.883 46.2031 187.164 46.5781C187.445 46.9479 187.654 47.3854 187.789 47.8906C187.924 48.3906 187.992 48.9375 187.992 49.5312V50.1797H181.68V49H186.547V48.8906C186.526 48.5156 186.448 48.151 186.312 47.7969C186.182 47.4427 185.974 47.151 185.688 46.9219C185.401 46.6927 185.01 46.5781 184.516 46.5781C184.188 46.5781 183.885 46.6484 183.609 46.7891C183.333 46.9245 183.096 47.1276 182.898 47.3984C182.701 47.6693 182.547 48 182.438 48.3906C182.328 48.7812 182.273 49.2318 182.273 49.7422V50.0703C182.273 50.4714 182.328 50.849 182.438 51.2031C182.552 51.5521 182.716 51.8594 182.93 52.125C183.148 52.3906 183.411 52.599 183.719 52.75C184.031 52.901 184.385 52.9766 184.781 52.9766C185.292 52.9766 185.724 52.8724 186.078 52.6641C186.432 52.4557 186.742 52.1771 187.008 51.8281L187.883 52.5234C187.701 52.7995 187.469 53.0625 187.188 53.3125C186.906 53.5625 186.56 53.7656 186.148 53.9219C185.742 54.0781 185.26 54.1562 184.703 54.1562ZM195.008 52.3594V42H196.461V54H195.133L195.008 52.3594ZM189.32 49.8672V49.7031C189.32 49.0573 189.398 48.4714 189.555 47.9453C189.716 47.4141 189.943 46.9583 190.234 46.5781C190.531 46.1979 190.883 45.9062 191.289 45.7031C191.701 45.4948 192.159 45.3906 192.664 45.3906C193.195 45.3906 193.659 45.4844 194.055 45.6719C194.456 45.8542 194.794 46.1224 195.07 46.4766C195.352 46.8255 195.573 47.2474 195.734 47.7422C195.896 48.237 196.008 48.7969 196.07 49.4219V50.1406C196.013 50.7604 195.901 51.3177 195.734 51.8125C195.573 52.3073 195.352 52.7292 195.07 53.0781C194.794 53.4271 194.456 53.6953 194.055 53.8828C193.654 54.0651 193.185 54.1562 192.648 54.1562C192.154 54.1562 191.701 54.0495 191.289 53.8359C190.883 53.6224 190.531 53.3229 190.234 52.9375C189.943 52.5521 189.716 52.099 189.555 51.5781C189.398 51.0521 189.32 50.4818 189.32 49.8672ZM190.773 49.7031V49.8672C190.773 50.2891 190.815 50.6849 190.898 51.0547C190.987 51.4245 191.122 51.75 191.305 52.0312C191.487 52.3125 191.719 52.5339 192 52.6953C192.281 52.8516 192.617 52.9297 193.008 52.9297C193.487 52.9297 193.88 52.8281 194.188 52.625C194.5 52.4219 194.75 52.1536 194.938 51.8203C195.125 51.487 195.271 51.125 195.375 50.7344V48.8516C195.312 48.5651 195.221 48.2891 195.102 48.0234C194.987 47.7526 194.836 47.513 194.648 47.3047C194.466 47.0911 194.24 46.9219 193.969 46.7969C193.703 46.6719 193.388 46.6094 193.023 46.6094C192.628 46.6094 192.286 46.6927 192 46.8594C191.719 47.0208 191.487 47.2448 191.305 47.5312C191.122 47.8125 190.987 48.1406 190.898 48.5156C190.815 48.8854 190.773 49.2812 190.773 49.7031ZM207.852 52.0469V45.5469H209.305V54H207.922L207.852 52.0469ZM208.125 50.2656L208.727 50.25C208.727 50.8125 208.667 51.3333 208.547 51.8125C208.432 52.2865 208.245 52.6979 207.984 53.0469C207.724 53.3958 207.383 53.6693 206.961 53.8672C206.539 54.0599 206.026 54.1562 205.422 54.1562C205.01 54.1562 204.633 54.0964 204.289 53.9766C203.951 53.8568 203.659 53.6719 203.414 53.4219C203.169 53.1719 202.979 52.8464 202.844 52.4453C202.714 52.0443 202.648 51.5625 202.648 51V45.5469H204.094V51.0156C204.094 51.3958 204.135 51.7109 204.219 51.9609C204.307 52.2057 204.424 52.401 204.57 52.5469C204.721 52.6875 204.888 52.7865 205.07 52.8438C205.258 52.901 205.451 52.9297 205.648 52.9297C206.263 52.9297 206.75 52.8125 207.109 52.5781C207.469 52.3385 207.727 52.0182 207.883 51.6172C208.044 51.2109 208.125 50.7604 208.125 50.2656ZM212.953 47.1719V57.25H211.5V45.5469H212.828L212.953 47.1719ZM218.648 49.7031V49.8672C218.648 50.4818 218.576 51.0521 218.43 51.5781C218.284 52.099 218.07 52.5521 217.789 52.9375C217.513 53.3229 217.172 53.6224 216.766 53.8359C216.359 54.0495 215.893 54.1562 215.367 54.1562C214.831 54.1562 214.357 54.0677 213.945 53.8906C213.534 53.7135 213.185 53.4557 212.898 53.1172C212.612 52.7786 212.383 52.3724 212.211 51.8984C212.044 51.4245 211.93 50.8906 211.867 50.2969V49.4219C211.93 48.7969 212.047 48.237 212.219 47.7422C212.391 47.2474 212.617 46.8255 212.898 46.4766C213.185 46.1224 213.531 45.8542 213.938 45.6719C214.344 45.4844 214.812 45.3906 215.344 45.3906C215.875 45.3906 216.346 45.4948 216.758 45.7031C217.169 45.9062 217.516 46.1979 217.797 46.5781C218.078 46.9583 218.289 47.4141 218.43 47.9453C218.576 48.4714 218.648 49.0573 218.648 49.7031ZM217.195 49.8672V49.7031C217.195 49.2812 217.151 48.8854 217.062 48.5156C216.974 48.1406 216.836 47.8125 216.648 47.5312C216.466 47.2448 216.232 47.0208 215.945 46.8594C215.659 46.6927 215.318 46.6094 214.922 46.6094C214.557 46.6094 214.24 46.6719 213.969 46.7969C213.703 46.9219 213.477 47.0911 213.289 47.3047C213.102 47.513 212.948 47.7526 212.828 48.0234C212.714 48.2891 212.628 48.5651 212.57 48.8516V50.875C212.674 51.2396 212.82 51.5833 213.008 51.9062C213.195 52.224 213.445 52.4818 213.758 52.6797C214.07 52.8724 214.464 52.9688 214.938 52.9688C215.328 52.9688 215.664 52.888 215.945 52.7266C216.232 52.5599 216.466 52.3333 216.648 52.0469C216.836 51.7604 216.974 51.4323 217.062 51.0625C217.151 50.6875 217.195 50.2891 217.195 49.8672ZM222.648 54H221.203V44.6562C221.203 44.0469 221.312 43.5339 221.531 43.1172C221.755 42.6953 222.076 42.3776 222.492 42.1641C222.909 41.9453 223.404 41.8359 223.977 41.8359C224.143 41.8359 224.31 41.8464 224.477 41.8672C224.648 41.888 224.815 41.9193 224.977 41.9609L224.898 43.1406C224.789 43.1146 224.664 43.0964 224.523 43.0859C224.388 43.0755 224.253 43.0703 224.117 43.0703C223.81 43.0703 223.544 43.1328 223.32 43.2578C223.102 43.3776 222.935 43.5547 222.82 43.7891C222.706 44.0234 222.648 44.3125 222.648 44.6562V54ZM224.445 45.5469V46.6562H219.867V45.5469H224.445ZM227.5 46.875V54H226.055V45.5469H227.461L227.5 46.875ZM230.141 45.5L230.133 46.8438C230.013 46.8177 229.898 46.8021 229.789 46.7969C229.685 46.7865 229.565 46.7812 229.43 46.7812C229.096 46.7812 228.802 46.8333 228.547 46.9375C228.292 47.0417 228.076 47.1875 227.898 47.375C227.721 47.5625 227.581 47.7865 227.477 48.0469C227.378 48.3021 227.312 48.5833 227.281 48.8906L226.875 49.125C226.875 48.6146 226.924 48.1354 227.023 47.6875C227.128 47.2396 227.286 46.8438 227.5 46.5C227.714 46.151 227.984 45.8802 228.312 45.6875C228.646 45.4896 229.042 45.3906 229.5 45.3906C229.604 45.3906 229.724 45.4036 229.859 45.4297C229.995 45.4505 230.089 45.474 230.141 45.5ZM230.938 49.8672V49.6875C230.938 49.0781 231.026 48.513 231.203 47.9922C231.38 47.4661 231.635 47.0104 231.969 46.625C232.302 46.2344 232.706 45.9323 233.18 45.7188C233.654 45.5 234.185 45.3906 234.773 45.3906C235.367 45.3906 235.901 45.5 236.375 45.7188C236.854 45.9323 237.26 46.2344 237.594 46.625C237.932 47.0104 238.19 47.4661 238.367 47.9922C238.544 48.513 238.633 49.0781 238.633 49.6875V49.8672C238.633 50.4766 238.544 51.0417 238.367 51.5625C238.19 52.0833 237.932 52.5391 237.594 52.9297C237.26 53.3151 236.857 53.6172 236.383 53.8359C235.914 54.0495 235.383 54.1562 234.789 54.1562C234.195 54.1562 233.661 54.0495 233.188 53.8359C232.714 53.6172 232.307 53.3151 231.969 52.9297C231.635 52.5391 231.38 52.0833 231.203 51.5625C231.026 51.0417 230.938 50.4766 230.938 49.8672ZM232.383 49.6875V49.8672C232.383 50.2891 232.432 50.6875 232.531 51.0625C232.63 51.4323 232.779 51.7604 232.977 52.0469C233.18 52.3333 233.432 52.5599 233.734 52.7266C234.036 52.888 234.388 52.9688 234.789 52.9688C235.185 52.9688 235.531 52.888 235.828 52.7266C236.13 52.5599 236.38 52.3333 236.578 52.0469C236.776 51.7604 236.924 51.4323 237.023 51.0625C237.128 50.6875 237.18 50.2891 237.18 49.8672V49.6875C237.18 49.2708 237.128 48.8776 237.023 48.5078C236.924 48.1328 236.773 47.8021 236.57 47.5156C236.372 47.224 236.122 46.9948 235.82 46.8281C235.523 46.6615 235.174 46.5781 234.773 46.5781C234.378 46.5781 234.029 46.6615 233.727 46.8281C233.43 46.9948 233.18 47.224 232.977 47.5156C232.779 47.8021 232.63 48.1328 232.531 48.5078C232.432 48.8776 232.383 49.2708 232.383 49.6875ZM241.891 47.3516V54H240.445V45.5469H241.812L241.891 47.3516ZM241.547 49.4531L240.945 49.4297C240.951 48.8516 241.036 48.3177 241.203 47.8281C241.37 47.3333 241.604 46.9036 241.906 46.5391C242.208 46.1745 242.568 45.8932 242.984 45.6953C243.406 45.4922 243.872 45.3906 244.383 45.3906C244.799 45.3906 245.174 45.4479 245.508 45.5625C245.841 45.6719 246.125 45.849 246.359 46.0938C246.599 46.3385 246.781 46.6562 246.906 47.0469C247.031 47.4323 247.094 47.9036 247.094 48.4609V54H245.641V48.4453C245.641 48.0026 245.576 47.6484 245.445 47.3828C245.315 47.112 245.125 46.9167 244.875 46.7969C244.625 46.6719 244.318 46.6094 243.953 46.6094C243.594 46.6094 243.266 46.6849 242.969 46.8359C242.677 46.987 242.424 47.1953 242.211 47.4609C242.003 47.7266 241.839 48.0312 241.719 48.375C241.604 48.7135 241.547 49.0729 241.547 49.4531ZM252.828 45.5469V46.6562H248.258V45.5469H252.828ZM249.805 43.4922H251.25V51.9062C251.25 52.1927 251.294 52.4089 251.383 52.5547C251.471 52.7005 251.586 52.7969 251.727 52.8438C251.867 52.8906 252.018 52.9141 252.18 52.9141C252.299 52.9141 252.424 52.9036 252.555 52.8828C252.69 52.8568 252.792 52.8359 252.859 52.8203L252.867 54C252.753 54.0365 252.602 54.0703 252.414 54.1016C252.232 54.138 252.01 54.1562 251.75 54.1562C251.396 54.1562 251.07 54.0859 250.773 53.9453C250.477 53.8047 250.24 53.5703 250.062 53.2422C249.891 52.9089 249.805 52.4609 249.805 51.8984V43.4922ZM263.812 57.25V47.1719L263.938 45.5469H265.266V57.25H263.812ZM258.133 49.8672V49.7031C258.133 49.0573 258.208 48.4714 258.359 47.9453C258.51 47.4141 258.732 46.9583 259.023 46.5781C259.315 46.1979 259.667 45.9062 260.078 45.7031C260.495 45.4948 260.969 45.3906 261.5 45.3906C262.031 45.3906 262.497 45.4844 262.898 45.6719C263.305 45.8542 263.648 46.1224 263.93 46.4766C264.216 46.8255 264.443 47.2474 264.609 47.7422C264.776 48.237 264.891 48.7969 264.953 49.4219V50.1406C264.896 50.7604 264.784 51.3177 264.617 51.8125C264.451 52.3073 264.224 52.7292 263.938 53.0781C263.656 53.4271 263.31 53.6953 262.898 53.8828C262.492 54.0651 262.021 54.1562 261.484 54.1562C260.964 54.1562 260.495 54.0495 260.078 53.8359C259.667 53.6224 259.315 53.3229 259.023 52.9375C258.737 52.5521 258.516 52.099 258.359 51.5781C258.208 51.0521 258.133 50.4818 258.133 49.8672ZM259.586 49.7031V49.8672C259.586 50.2891 259.63 50.6875 259.719 51.0625C259.807 51.4323 259.943 51.7604 260.125 52.0469C260.312 52.3333 260.547 52.5599 260.828 52.7266C261.115 52.888 261.453 52.9688 261.844 52.9688C262.323 52.9688 262.721 52.8646 263.039 52.6562C263.362 52.4479 263.62 52.1745 263.812 51.8359C264.005 51.4922 264.154 51.125 264.258 50.7344V48.8516C264.201 48.5651 264.109 48.2865 263.984 48.0156C263.865 47.7448 263.708 47.5026 263.516 47.2891C263.323 47.0703 263.089 46.8984 262.812 46.7734C262.542 46.6432 262.224 46.5781 261.859 46.5781C261.464 46.5781 261.122 46.6615 260.836 46.8281C260.549 46.9948 260.312 47.224 260.125 47.5156C259.943 47.8021 259.807 48.1328 259.719 48.5078C259.63 48.8828 259.586 49.2812 259.586 49.7031ZM267.203 49.8672V49.6875C267.203 49.0781 267.292 48.513 267.469 47.9922C267.646 47.4661 267.901 47.0104 268.234 46.625C268.568 46.2344 268.971 45.9323 269.445 45.7188C269.919 45.5 270.451 45.3906 271.039 45.3906C271.633 45.3906 272.167 45.5 272.641 45.7188C273.12 45.9323 273.526 46.2344 273.859 46.625C274.198 47.0104 274.456 47.4661 274.633 47.9922C274.81 48.513 274.898 49.0781 274.898 49.6875V49.8672C274.898 50.4766 274.81 51.0417 274.633 51.5625C274.456 52.0833 274.198 52.5391 273.859 52.9297C273.526 53.3151 273.122 53.6172 272.648 53.8359C272.18 54.0495 271.648 54.1562 271.055 54.1562C270.461 54.1562 269.927 54.0495 269.453 53.8359C268.979 53.6172 268.573 53.3151 268.234 52.9297C267.901 52.5391 267.646 52.0833 267.469 51.5625C267.292 51.0417 267.203 50.4766 267.203 49.8672ZM268.648 49.6875V49.8672C268.648 50.2891 268.698 50.6875 268.797 51.0625C268.896 51.4323 269.044 51.7604 269.242 52.0469C269.445 52.3333 269.698 52.5599 270 52.7266C270.302 52.888 270.654 52.9688 271.055 52.9688C271.451 52.9688 271.797 52.888 272.094 52.7266C272.396 52.5599 272.646 52.3333 272.844 52.0469C273.042 51.7604 273.19 51.4323 273.289 51.0625C273.393 50.6875 273.445 50.2891 273.445 49.8672V49.6875C273.445 49.2708 273.393 48.8776 273.289 48.5078C273.19 48.1328 273.039 47.8021 272.836 47.5156C272.638 47.224 272.388 46.9948 272.086 46.8281C271.789 46.6615 271.44 46.5781 271.039 46.5781C270.643 46.5781 270.294 46.6615 269.992 46.8281C269.695 46.9948 269.445 47.224 269.242 47.5156C269.044 47.8021 268.896 48.1328 268.797 48.5078C268.698 48.8776 268.648 49.2708 268.648 49.6875ZM281.883 52.0469V45.5469H283.336V54H281.953L281.883 52.0469ZM282.156 50.2656L282.758 50.25C282.758 50.8125 282.698 51.3333 282.578 51.8125C282.464 52.2865 282.276 52.6979 282.016 53.0469C281.755 53.3958 281.414 53.6693 280.992 53.8672C280.57 54.0599 280.057 54.1562 279.453 54.1562C279.042 54.1562 278.664 54.0964 278.32 53.9766C277.982 53.8568 277.69 53.6719 277.445 53.4219C277.201 53.1719 277.01 52.8464 276.875 52.4453C276.745 52.0443 276.68 51.5625 276.68 51V45.5469H278.125V51.0156C278.125 51.3958 278.167 51.7109 278.25 51.9609C278.339 52.2057 278.456 52.401 278.602 52.5469C278.753 52.6875 278.919 52.7865 279.102 52.8438C279.289 52.901 279.482 52.9297 279.68 52.9297C280.294 52.9297 280.781 52.8125 281.141 52.5781C281.5 52.3385 281.758 52.0182 281.914 51.6172C282.076 51.2109 282.156 50.7604 282.156 50.2656ZM289.078 45.5469V46.6562H284.508V45.5469H289.078ZM286.055 43.4922H287.5V51.9062C287.5 52.1927 287.544 52.4089 287.633 52.5547C287.721 52.7005 287.836 52.7969 287.977 52.8438C288.117 52.8906 288.268 52.9141 288.43 52.9141C288.549 52.9141 288.674 52.9036 288.805 52.8828C288.94 52.8568 289.042 52.8359 289.109 52.8203L289.117 54C289.003 54.0365 288.852 54.0703 288.664 54.1016C288.482 54.138 288.26 54.1562 288 54.1562C287.646 54.1562 287.32 54.0859 287.023 53.9453C286.727 53.8047 286.49 53.5703 286.312 53.2422C286.141 52.9089 286.055 52.4609 286.055 51.8984V43.4922ZM294.281 54.1562C293.693 54.1562 293.159 54.0573 292.68 53.8594C292.206 53.6562 291.797 53.3724 291.453 53.0078C291.115 52.6432 290.854 52.2109 290.672 51.7109C290.49 51.2109 290.398 50.6641 290.398 50.0703V49.7422C290.398 49.0547 290.5 48.4427 290.703 47.9062C290.906 47.3646 291.182 46.9062 291.531 46.5312C291.88 46.1562 292.276 45.8724 292.719 45.6797C293.161 45.487 293.62 45.3906 294.094 45.3906C294.698 45.3906 295.219 45.4948 295.656 45.7031C296.099 45.9115 296.461 46.2031 296.742 46.5781C297.023 46.9479 297.232 47.3854 297.367 47.8906C297.503 48.3906 297.57 48.9375 297.57 49.5312V50.1797H291.258V49H296.125V48.8906C296.104 48.5156 296.026 48.151 295.891 47.7969C295.76 47.4427 295.552 47.151 295.266 46.9219C294.979 46.6927 294.589 46.5781 294.094 46.5781C293.766 46.5781 293.464 46.6484 293.188 46.7891C292.911 46.9245 292.674 47.1276 292.477 47.3984C292.279 47.6693 292.125 48 292.016 48.3906C291.906 48.7812 291.852 49.2318 291.852 49.7422V50.0703C291.852 50.4714 291.906 50.849 292.016 51.2031C292.13 51.5521 292.294 51.8594 292.508 52.125C292.727 52.3906 292.99 52.599 293.297 52.75C293.609 52.901 293.964 52.9766 294.359 52.9766C294.87 52.9766 295.302 52.8724 295.656 52.6641C296.01 52.4557 296.32 52.1771 296.586 51.8281L297.461 52.5234C297.279 52.7995 297.047 53.0625 296.766 53.3125C296.484 53.5625 296.138 53.7656 295.727 53.9219C295.32 54.0781 294.839 54.1562 294.281 54.1562ZM306.766 45.5469V46.6562H302.195V45.5469H306.766ZM303.742 43.4922H305.188V51.9062C305.188 52.1927 305.232 52.4089 305.32 52.5547C305.409 52.7005 305.523 52.7969 305.664 52.8438C305.805 52.8906 305.956 52.9141 306.117 52.9141C306.237 52.9141 306.362 52.9036 306.492 52.8828C306.628 52.8568 306.729 52.8359 306.797 52.8203L306.805 54C306.69 54.0365 306.539 54.0703 306.352 54.1016C306.169 54.138 305.948 54.1562 305.688 54.1562C305.333 54.1562 305.008 54.0859 304.711 53.9453C304.414 53.8047 304.177 53.5703 304 53.2422C303.828 52.9089 303.742 52.4609 303.742 51.8984V43.4922ZM309.906 42V54H308.461V42H309.906ZM309.562 49.4531L308.961 49.4297C308.966 48.8516 309.052 48.3177 309.219 47.8281C309.385 47.3333 309.62 46.9036 309.922 46.5391C310.224 46.1745 310.583 45.8932 311 45.6953C311.422 45.4922 311.888 45.3906 312.398 45.3906C312.815 45.3906 313.19 45.4479 313.523 45.5625C313.857 45.6719 314.141 45.849 314.375 46.0938C314.615 46.3385 314.797 46.6562 314.922 47.0469C315.047 47.4323 315.109 47.9036 315.109 48.4609V54H313.656V48.4453C313.656 48.0026 313.591 47.6484 313.461 47.3828C313.331 47.112 313.141 46.9167 312.891 46.7969C312.641 46.6719 312.333 46.6094 311.969 46.6094C311.609 46.6094 311.281 46.6849 310.984 46.8359C310.693 46.987 310.44 47.1953 310.227 47.4609C310.018 47.7266 309.854 48.0312 309.734 48.375C309.62 48.7135 309.562 49.0729 309.562 49.4531ZM322.258 52.5547V48.2031C322.258 47.8698 322.19 47.5807 322.055 47.3359C321.924 47.0859 321.727 46.8932 321.461 46.7578C321.195 46.6224 320.867 46.5547 320.477 46.5547C320.112 46.5547 319.792 46.6172 319.516 46.7422C319.245 46.8672 319.031 47.0312 318.875 47.2344C318.724 47.4375 318.648 47.6562 318.648 47.8906H317.203C317.203 47.5885 317.281 47.2891 317.438 46.9922C317.594 46.6953 317.818 46.4271 318.109 46.1875C318.406 45.9427 318.76 45.75 319.172 45.6094C319.589 45.4635 320.052 45.3906 320.562 45.3906C321.177 45.3906 321.719 45.4948 322.188 45.7031C322.661 45.9115 323.031 46.2266 323.297 46.6484C323.568 47.0651 323.703 47.5885 323.703 48.2188V52.1562C323.703 52.4375 323.727 52.737 323.773 53.0547C323.826 53.3724 323.901 53.6458 324 53.875V54H322.492C322.419 53.8333 322.362 53.612 322.32 53.3359C322.279 53.0547 322.258 52.7943 322.258 52.5547ZM322.508 48.875L322.523 49.8906H321.062C320.651 49.8906 320.284 49.9245 319.961 49.9922C319.638 50.0547 319.367 50.151 319.148 50.2812C318.93 50.4115 318.763 50.5755 318.648 50.7734C318.534 50.9661 318.477 51.1927 318.477 51.4531C318.477 51.7188 318.536 51.9609 318.656 52.1797C318.776 52.3984 318.956 52.5729 319.195 52.7031C319.44 52.8281 319.74 52.8906 320.094 52.8906C320.536 52.8906 320.927 52.7969 321.266 52.6094C321.604 52.4219 321.872 52.1927 322.07 51.9219C322.273 51.651 322.383 51.388 322.398 51.1328L323.016 51.8281C322.979 52.0469 322.88 52.2891 322.719 52.5547C322.557 52.8203 322.341 53.0755 322.07 53.3203C321.805 53.5599 321.487 53.7604 321.117 53.9219C320.753 54.0781 320.341 54.1562 319.883 54.1562C319.31 54.1562 318.807 54.0443 318.375 53.8203C317.948 53.5964 317.615 53.2969 317.375 52.9219C317.141 52.5417 317.023 52.1172 317.023 51.6484C317.023 51.1953 317.112 50.7969 317.289 50.4531C317.466 50.1042 317.721 49.8151 318.055 49.5859C318.388 49.3516 318.789 49.1745 319.258 49.0547C319.727 48.9349 320.25 48.875 320.828 48.875H322.508ZM329.516 45.5469V46.6562H324.945V45.5469H329.516ZM326.492 43.4922H327.938V51.9062C327.938 52.1927 327.982 52.4089 328.07 52.5547C328.159 52.7005 328.273 52.7969 328.414 52.8438C328.555 52.8906 328.706 52.9141 328.867 52.9141C328.987 52.9141 329.112 52.9036 329.242 52.8828C329.378 52.8568 329.479 52.8359 329.547 52.8203L329.555 54C329.44 54.0365 329.289 54.0703 329.102 54.1016C328.919 54.138 328.698 54.1562 328.438 54.1562C328.083 54.1562 327.758 54.0859 327.461 53.9453C327.164 53.8047 326.927 53.5703 326.75 53.2422C326.578 52.9089 326.492 52.4609 326.492 51.8984V43.4922ZM340.508 52.3594V42H341.961V54H340.633L340.508 52.3594ZM334.82 49.8672V49.7031C334.82 49.0573 334.898 48.4714 335.055 47.9453C335.216 47.4141 335.443 46.9583 335.734 46.5781C336.031 46.1979 336.383 45.9062 336.789 45.7031C337.201 45.4948 337.659 45.3906 338.164 45.3906C338.695 45.3906 339.159 45.4844 339.555 45.6719C339.956 45.8542 340.294 46.1224 340.57 46.4766C340.852 46.8255 341.073 47.2474 341.234 47.7422C341.396 48.237 341.508 48.7969 341.57 49.4219V50.1406C341.513 50.7604 341.401 51.3177 341.234 51.8125C341.073 52.3073 340.852 52.7292 340.57 53.0781C340.294 53.4271 339.956 53.6953 339.555 53.8828C339.154 54.0651 338.685 54.1562 338.148 54.1562C337.654 54.1562 337.201 54.0495 336.789 53.8359C336.383 53.6224 336.031 53.3229 335.734 52.9375C335.443 52.5521 335.216 52.099 335.055 51.5781C334.898 51.0521 334.82 50.4818 334.82 49.8672ZM336.273 49.7031V49.8672C336.273 50.2891 336.315 50.6849 336.398 51.0547C336.487 51.4245 336.622 51.75 336.805 52.0312C336.987 52.3125 337.219 52.5339 337.5 52.6953C337.781 52.8516 338.117 52.9297 338.508 52.9297C338.987 52.9297 339.38 52.8281 339.688 52.625C340 52.4219 340.25 52.1536 340.438 51.8203C340.625 51.487 340.771 51.125 340.875 50.7344V48.8516C340.812 48.5651 340.721 48.2891 340.602 48.0234C340.487 47.7526 340.336 47.513 340.148 47.3047C339.966 47.0911 339.74 46.9219 339.469 46.7969C339.203 46.6719 338.888 46.6094 338.523 46.6094C338.128 46.6094 337.786 46.6927 337.5 46.8594C337.219 47.0208 336.987 47.2448 336.805 47.5312C336.622 47.8125 336.487 48.1406 336.398 48.5156C336.315 48.8854 336.273 49.2812 336.273 49.7031ZM343.828 49.8672V49.6875C343.828 49.0781 343.917 48.513 344.094 47.9922C344.271 47.4661 344.526 47.0104 344.859 46.625C345.193 46.2344 345.596 45.9323 346.07 45.7188C346.544 45.5 347.076 45.3906 347.664 45.3906C348.258 45.3906 348.792 45.5 349.266 45.7188C349.745 45.9323 350.151 46.2344 350.484 46.625C350.823 47.0104 351.081 47.4661 351.258 47.9922C351.435 48.513 351.523 49.0781 351.523 49.6875V49.8672C351.523 50.4766 351.435 51.0417 351.258 51.5625C351.081 52.0833 350.823 52.5391 350.484 52.9297C350.151 53.3151 349.747 53.6172 349.273 53.8359C348.805 54.0495 348.273 54.1562 347.68 54.1562C347.086 54.1562 346.552 54.0495 346.078 53.8359C345.604 53.6172 345.198 53.3151 344.859 52.9297C344.526 52.5391 344.271 52.0833 344.094 51.5625C343.917 51.0417 343.828 50.4766 343.828 49.8672ZM345.273 49.6875V49.8672C345.273 50.2891 345.323 50.6875 345.422 51.0625C345.521 51.4323 345.669 51.7604 345.867 52.0469C346.07 52.3333 346.323 52.5599 346.625 52.7266C346.927 52.888 347.279 52.9688 347.68 52.9688C348.076 52.9688 348.422 52.888 348.719 52.7266C349.021 52.5599 349.271 52.3333 349.469 52.0469C349.667 51.7604 349.815 51.4323 349.914 51.0625C350.018 50.6875 350.07 50.2891 350.07 49.8672V49.6875C350.07 49.2708 350.018 48.8776 349.914 48.5078C349.815 48.1328 349.664 47.8021 349.461 47.5156C349.263 47.224 349.013 46.9948 348.711 46.8281C348.414 46.6615 348.065 46.5781 347.664 46.5781C347.268 46.5781 346.919 46.6615 346.617 46.8281C346.32 46.9948 346.07 47.224 345.867 47.5156C345.669 47.8021 345.521 48.1328 345.422 48.5078C345.323 48.8776 345.273 49.2708 345.273 49.6875ZM356.844 54.1562C356.255 54.1562 355.721 54.0573 355.242 53.8594C354.768 53.6562 354.359 53.3724 354.016 53.0078C353.677 52.6432 353.417 52.2109 353.234 51.7109C353.052 51.2109 352.961 50.6641 352.961 50.0703V49.7422C352.961 49.0547 353.062 48.4427 353.266 47.9062C353.469 47.3646 353.745 46.9062 354.094 46.5312C354.443 46.1562 354.839 45.8724 355.281 45.6797C355.724 45.487 356.182 45.3906 356.656 45.3906C357.26 45.3906 357.781 45.4948 358.219 45.7031C358.661 45.9115 359.023 46.2031 359.305 46.5781C359.586 46.9479 359.794 47.3854 359.93 47.8906C360.065 48.3906 360.133 48.9375 360.133 49.5312V50.1797H353.82V49H358.688V48.8906C358.667 48.5156 358.589 48.151 358.453 47.7969C358.323 47.4427 358.115 47.151 357.828 46.9219C357.542 46.6927 357.151 46.5781 356.656 46.5781C356.328 46.5781 356.026 46.6484 355.75 46.7891C355.474 46.9245 355.237 47.1276 355.039 47.3984C354.841 47.6693 354.688 48 354.578 48.3906C354.469 48.7812 354.414 49.2318 354.414 49.7422V50.0703C354.414 50.4714 354.469 50.849 354.578 51.2031C354.693 51.5521 354.857 51.8594 355.07 52.125C355.289 52.3906 355.552 52.599 355.859 52.75C356.172 52.901 356.526 52.9766 356.922 52.9766C357.432 52.9766 357.865 52.8724 358.219 52.6641C358.573 52.4557 358.883 52.1771 359.148 51.8281L360.023 52.5234C359.841 52.7995 359.609 53.0625 359.328 53.3125C359.047 53.5625 358.701 53.7656 358.289 53.9219C357.883 54.0781 357.401 54.1562 356.844 54.1562ZM366.742 51.7578C366.742 51.5495 366.695 51.3568 366.602 51.1797C366.513 50.9974 366.328 50.8333 366.047 50.6875C365.771 50.5365 365.354 50.4062 364.797 50.2969C364.328 50.1979 363.904 50.0807 363.523 49.9453C363.148 49.8099 362.828 49.6458 362.562 49.4531C362.302 49.2604 362.102 49.0339 361.961 48.7734C361.82 48.513 361.75 48.2083 361.75 47.8594C361.75 47.526 361.823 47.2109 361.969 46.9141C362.12 46.6172 362.331 46.3542 362.602 46.125C362.878 45.8958 363.208 45.7161 363.594 45.5859C363.979 45.4557 364.409 45.3906 364.883 45.3906C365.56 45.3906 366.138 45.5104 366.617 45.75C367.096 45.9896 367.464 46.3099 367.719 46.7109C367.974 47.1068 368.102 47.5469 368.102 48.0312H366.656C366.656 47.7969 366.586 47.5703 366.445 47.3516C366.31 47.1276 366.109 46.9427 365.844 46.7969C365.583 46.651 365.263 46.5781 364.883 46.5781C364.482 46.5781 364.156 46.6406 363.906 46.7656C363.661 46.8854 363.482 47.0391 363.367 47.2266C363.258 47.4141 363.203 47.612 363.203 47.8203C363.203 47.9766 363.229 48.1172 363.281 48.2422C363.339 48.362 363.438 48.474 363.578 48.5781C363.719 48.6771 363.917 48.7708 364.172 48.8594C364.427 48.9479 364.753 49.0365 365.148 49.125C365.841 49.2812 366.411 49.4688 366.859 49.6875C367.307 49.9062 367.641 50.1745 367.859 50.4922C368.078 50.8099 368.188 51.1953 368.188 51.6484C368.188 52.0182 368.109 52.3568 367.953 52.6641C367.802 52.9714 367.581 53.237 367.289 53.4609C367.003 53.6797 366.659 53.8516 366.258 53.9766C365.862 54.0964 365.417 54.1562 364.922 54.1562C364.177 54.1562 363.547 54.0234 363.031 53.7578C362.516 53.4922 362.125 53.1484 361.859 52.7266C361.594 52.3047 361.461 51.8594 361.461 51.3906H362.914C362.935 51.7865 363.049 52.1016 363.258 52.3359C363.466 52.5651 363.721 52.7292 364.023 52.8281C364.326 52.9219 364.625 52.9688 364.922 52.9688C365.318 52.9688 365.648 52.9167 365.914 52.8125C366.185 52.7083 366.391 52.5651 366.531 52.3828C366.672 52.2005 366.742 51.9922 366.742 51.7578ZM375.5 47.3516V54H374.055V45.5469H375.422L375.5 47.3516ZM375.156 49.4531L374.555 49.4297C374.56 48.8516 374.646 48.3177 374.812 47.8281C374.979 47.3333 375.214 46.9036 375.516 46.5391C375.818 46.1745 376.177 45.8932 376.594 45.6953C377.016 45.4922 377.482 45.3906 377.992 45.3906C378.409 45.3906 378.784 45.4479 379.117 45.5625C379.451 45.6719 379.734 45.849 379.969 46.0938C380.208 46.3385 380.391 46.6562 380.516 47.0469C380.641 47.4323 380.703 47.9036 380.703 48.4609V54H379.25V48.4453C379.25 48.0026 379.185 47.6484 379.055 47.3828C378.924 47.112 378.734 46.9167 378.484 46.7969C378.234 46.6719 377.927 46.6094 377.562 46.6094C377.203 46.6094 376.875 46.6849 376.578 46.8359C376.286 46.987 376.034 47.1953 375.82 47.4609C375.612 47.7266 375.448 48.0312 375.328 48.375C375.214 48.7135 375.156 49.0729 375.156 49.4531ZM382.516 49.8672V49.6875C382.516 49.0781 382.604 48.513 382.781 47.9922C382.958 47.4661 383.214 47.0104 383.547 46.625C383.88 46.2344 384.284 45.9323 384.758 45.7188C385.232 45.5 385.763 45.3906 386.352 45.3906C386.945 45.3906 387.479 45.5 387.953 45.7188C388.432 45.9323 388.839 46.2344 389.172 46.625C389.51 47.0104 389.768 47.4661 389.945 47.9922C390.122 48.513 390.211 49.0781 390.211 49.6875V49.8672C390.211 50.4766 390.122 51.0417 389.945 51.5625C389.768 52.0833 389.51 52.5391 389.172 52.9297C388.839 53.3151 388.435 53.6172 387.961 53.8359C387.492 54.0495 386.961 54.1562 386.367 54.1562C385.773 54.1562 385.24 54.0495 384.766 53.8359C384.292 53.6172 383.885 53.3151 383.547 52.9297C383.214 52.5391 382.958 52.0833 382.781 51.5625C382.604 51.0417 382.516 50.4766 382.516 49.8672ZM383.961 49.6875V49.8672C383.961 50.2891 384.01 50.6875 384.109 51.0625C384.208 51.4323 384.357 51.7604 384.555 52.0469C384.758 52.3333 385.01 52.5599 385.312 52.7266C385.615 52.888 385.966 52.9688 386.367 52.9688C386.763 52.9688 387.109 52.888 387.406 52.7266C387.708 52.5599 387.958 52.3333 388.156 52.0469C388.354 51.7604 388.503 51.4323 388.602 51.0625C388.706 50.6875 388.758 50.2891 388.758 49.8672V49.6875C388.758 49.2708 388.706 48.8776 388.602 48.5078C388.503 48.1328 388.352 47.8021 388.148 47.5156C387.951 47.224 387.701 46.9948 387.398 46.8281C387.102 46.6615 386.753 46.5781 386.352 46.5781C385.956 46.5781 385.607 46.6615 385.305 46.8281C385.008 46.9948 384.758 47.224 384.555 47.5156C384.357 47.8021 384.208 48.1328 384.109 48.5078C384.01 48.8776 383.961 49.2708 383.961 49.6875ZM395.562 45.5469V46.6562H390.992V45.5469H395.562ZM392.539 43.4922H393.984V51.9062C393.984 52.1927 394.029 52.4089 394.117 52.5547C394.206 52.7005 394.32 52.7969 394.461 52.8438C394.602 52.8906 394.753 52.9141 394.914 52.9141C395.034 52.9141 395.159 52.9036 395.289 52.8828C395.424 52.8568 395.526 52.8359 395.594 52.8203L395.602 54C395.487 54.0365 395.336 54.0703 395.148 54.1016C394.966 54.138 394.745 54.1562 394.484 54.1562C394.13 54.1562 393.805 54.0859 393.508 53.9453C393.211 53.8047 392.974 53.5703 392.797 53.2422C392.625 52.9089 392.539 52.4609 392.539 51.8984V43.4922ZM404.609 52.9688C404.953 52.9688 405.271 52.8984 405.562 52.7578C405.854 52.6172 406.094 52.4245 406.281 52.1797C406.469 51.9297 406.576 51.6458 406.602 51.3281H407.977C407.951 51.8281 407.781 52.2943 407.469 52.7266C407.161 53.1536 406.758 53.5 406.258 53.7656C405.758 54.026 405.208 54.1562 404.609 54.1562C403.974 54.1562 403.419 54.0443 402.945 53.8203C402.477 53.5964 402.086 53.2891 401.773 52.8984C401.466 52.5078 401.234 52.0599 401.078 51.5547C400.927 51.0443 400.852 50.5052 400.852 49.9375V49.6094C400.852 49.0417 400.927 48.5052 401.078 48C401.234 47.4896 401.466 47.0391 401.773 46.6484C402.086 46.2578 402.477 45.9505 402.945 45.7266C403.419 45.5026 403.974 45.3906 404.609 45.3906C405.271 45.3906 405.849 45.526 406.344 45.7969C406.839 46.0625 407.227 46.4271 407.508 46.8906C407.794 47.349 407.951 47.8698 407.977 48.4531H406.602C406.576 48.1042 406.477 47.7891 406.305 47.5078C406.138 47.2266 405.909 47.0026 405.617 46.8359C405.331 46.6641 404.995 46.5781 404.609 46.5781C404.167 46.5781 403.794 46.6667 403.492 46.8438C403.195 47.0156 402.958 47.25 402.781 47.5469C402.609 47.8385 402.484 48.1641 402.406 48.5234C402.333 48.8776 402.297 49.2396 402.297 49.6094V49.9375C402.297 50.3073 402.333 50.6719 402.406 51.0312C402.479 51.3906 402.602 51.7161 402.773 52.0078C402.951 52.2995 403.188 52.5339 403.484 52.7109C403.786 52.8828 404.161 52.9688 404.609 52.9688ZM411.047 42V54H409.602V42H411.047ZM410.703 49.4531L410.102 49.4297C410.107 48.8516 410.193 48.3177 410.359 47.8281C410.526 47.3333 410.76 46.9036 411.062 46.5391C411.365 46.1745 411.724 45.8932 412.141 45.6953C412.562 45.4922 413.029 45.3906 413.539 45.3906C413.956 45.3906 414.331 45.4479 414.664 45.5625C414.997 45.6719 415.281 45.849 415.516 46.0938C415.755 46.3385 415.938 46.6562 416.062 47.0469C416.188 47.4323 416.25 47.9036 416.25 48.4609V54H414.797V48.4453C414.797 48.0026 414.732 47.6484 414.602 47.3828C414.471 47.112 414.281 46.9167 414.031 46.7969C413.781 46.6719 413.474 46.6094 413.109 46.6094C412.75 46.6094 412.422 46.6849 412.125 46.8359C411.833 46.987 411.581 47.1953 411.367 47.4609C411.159 47.7266 410.995 48.0312 410.875 48.375C410.76 48.7135 410.703 49.0729 410.703 49.4531ZM423.398 52.5547V48.2031C423.398 47.8698 423.331 47.5807 423.195 47.3359C423.065 47.0859 422.867 46.8932 422.602 46.7578C422.336 46.6224 422.008 46.5547 421.617 46.5547C421.253 46.5547 420.932 46.6172 420.656 46.7422C420.385 46.8672 420.172 47.0312 420.016 47.2344C419.865 47.4375 419.789 47.6562 419.789 47.8906H418.344C418.344 47.5885 418.422 47.2891 418.578 46.9922C418.734 46.6953 418.958 46.4271 419.25 46.1875C419.547 45.9427 419.901 45.75 420.312 45.6094C420.729 45.4635 421.193 45.3906 421.703 45.3906C422.318 45.3906 422.859 45.4948 423.328 45.7031C423.802 45.9115 424.172 46.2266 424.438 46.6484C424.708 47.0651 424.844 47.5885 424.844 48.2188V52.1562C424.844 52.4375 424.867 52.737 424.914 53.0547C424.966 53.3724 425.042 53.6458 425.141 53.875V54H423.633C423.56 53.8333 423.503 53.612 423.461 53.3359C423.419 53.0547 423.398 52.7943 423.398 52.5547ZM423.648 48.875L423.664 49.8906H422.203C421.792 49.8906 421.424 49.9245 421.102 49.9922C420.779 50.0547 420.508 50.151 420.289 50.2812C420.07 50.4115 419.904 50.5755 419.789 50.7734C419.674 50.9661 419.617 51.1927 419.617 51.4531C419.617 51.7188 419.677 51.9609 419.797 52.1797C419.917 52.3984 420.096 52.5729 420.336 52.7031C420.581 52.8281 420.88 52.8906 421.234 52.8906C421.677 52.8906 422.068 52.7969 422.406 52.6094C422.745 52.4219 423.013 52.1927 423.211 51.9219C423.414 51.651 423.523 51.388 423.539 51.1328L424.156 51.8281C424.12 52.0469 424.021 52.2891 423.859 52.5547C423.698 52.8203 423.482 53.0755 423.211 53.3203C422.945 53.5599 422.628 53.7604 422.258 53.9219C421.893 54.0781 421.482 54.1562 421.023 54.1562C420.451 54.1562 419.948 54.0443 419.516 53.8203C419.089 53.5964 418.755 53.2969 418.516 52.9219C418.281 52.5417 418.164 52.1172 418.164 51.6484C418.164 51.1953 418.253 50.7969 418.43 50.4531C418.607 50.1042 418.862 49.8151 419.195 49.5859C419.529 49.3516 419.93 49.1745 420.398 49.0547C420.867 48.9349 421.391 48.875 421.969 48.875H423.648ZM428.562 47.3516V54H427.117V45.5469H428.484L428.562 47.3516ZM428.219 49.4531L427.617 49.4297C427.622 48.8516 427.708 48.3177 427.875 47.8281C428.042 47.3333 428.276 46.9036 428.578 46.5391C428.88 46.1745 429.24 45.8932 429.656 45.6953C430.078 45.4922 430.544 45.3906 431.055 45.3906C431.471 45.3906 431.846 45.4479 432.18 45.5625C432.513 45.6719 432.797 45.849 433.031 46.0938C433.271 46.3385 433.453 46.6562 433.578 47.0469C433.703 47.4323 433.766 47.9036 433.766 48.4609V54H432.312V48.4453C432.312 48.0026 432.247 47.6484 432.117 47.3828C431.987 47.112 431.797 46.9167 431.547 46.7969C431.297 46.6719 430.99 46.6094 430.625 46.6094C430.266 46.6094 429.938 46.6849 429.641 46.8359C429.349 46.987 429.096 47.1953 428.883 47.4609C428.674 47.7266 428.51 48.0312 428.391 48.375C428.276 48.7135 428.219 49.0729 428.219 49.4531ZM441.438 45.5469H442.75V53.8203C442.75 54.5651 442.599 55.2005 442.297 55.7266C441.995 56.2526 441.573 56.651 441.031 56.9219C440.495 57.1979 439.875 57.3359 439.172 57.3359C438.88 57.3359 438.536 57.2891 438.141 57.1953C437.75 57.1068 437.365 56.9531 436.984 56.7344C436.609 56.5208 436.294 56.2318 436.039 55.8672L436.797 55.0078C437.151 55.4349 437.521 55.7318 437.906 55.8984C438.297 56.0651 438.682 56.1484 439.062 56.1484C439.521 56.1484 439.917 56.0625 440.25 55.8906C440.583 55.7188 440.841 55.4635 441.023 55.125C441.211 54.7917 441.305 54.3802 441.305 53.8906V47.4062L441.438 45.5469ZM435.617 49.8672V49.7031C435.617 49.0573 435.693 48.4714 435.844 47.9453C436 47.4141 436.221 46.9583 436.508 46.5781C436.799 46.1979 437.151 45.9062 437.562 45.7031C437.974 45.4948 438.438 45.3906 438.953 45.3906C439.484 45.3906 439.948 45.4844 440.344 45.6719C440.745 45.8542 441.083 46.1224 441.359 46.4766C441.641 46.8255 441.862 47.2474 442.023 47.7422C442.185 48.237 442.297 48.7969 442.359 49.4219V50.1406C442.302 50.7604 442.19 51.3177 442.023 51.8125C441.862 52.3073 441.641 52.7292 441.359 53.0781C441.083 53.4271 440.745 53.6953 440.344 53.8828C439.943 54.0651 439.474 54.1562 438.938 54.1562C438.432 54.1562 437.974 54.0495 437.562 53.8359C437.156 53.6224 436.807 53.3229 436.516 52.9375C436.224 52.5521 436 52.099 435.844 51.5781C435.693 51.0521 435.617 50.4818 435.617 49.8672ZM437.062 49.7031V49.8672C437.062 50.2891 437.104 50.6849 437.188 51.0547C437.276 51.4245 437.409 51.75 437.586 52.0312C437.768 52.3125 438 52.5339 438.281 52.6953C438.562 52.8516 438.898 52.9297 439.289 52.9297C439.768 52.9297 440.164 52.8281 440.477 52.625C440.789 52.4219 441.036 52.1536 441.219 51.8203C441.406 51.487 441.552 51.125 441.656 50.7344V48.8516C441.599 48.5651 441.51 48.2891 441.391 48.0234C441.276 47.7526 441.125 47.513 440.938 47.3047C440.755 47.0911 440.529 46.9219 440.258 46.7969C439.987 46.6719 439.669 46.6094 439.305 46.6094C438.909 46.6094 438.568 46.6927 438.281 46.8594C438 47.0208 437.768 47.2448 437.586 47.5312C437.409 47.8125 437.276 48.1406 437.188 48.5156C437.104 48.8854 437.062 49.2812 437.062 49.7031ZM448.453 54.1562C447.865 54.1562 447.331 54.0573 446.852 53.8594C446.378 53.6562 445.969 53.3724 445.625 53.0078C445.286 52.6432 445.026 52.2109 444.844 51.7109C444.661 51.2109 444.57 50.6641 444.57 50.0703V49.7422C444.57 49.0547 444.672 48.4427 444.875 47.9062C445.078 47.3646 445.354 46.9062 445.703 46.5312C446.052 46.1562 446.448 45.8724 446.891 45.6797C447.333 45.487 447.792 45.3906 448.266 45.3906C448.87 45.3906 449.391 45.4948 449.828 45.7031C450.271 45.9115 450.633 46.2031 450.914 46.5781C451.195 46.9479 451.404 47.3854 451.539 47.8906C451.674 48.3906 451.742 48.9375 451.742 49.5312V50.1797H445.43V49H450.297V48.8906C450.276 48.5156 450.198 48.151 450.062 47.7969C449.932 47.4427 449.724 47.151 449.438 46.9219C449.151 46.6927 448.76 46.5781 448.266 46.5781C447.938 46.5781 447.635 46.6484 447.359 46.7891C447.083 46.9245 446.846 47.1276 446.648 47.3984C446.451 47.6693 446.297 48 446.188 48.3906C446.078 48.7812 446.023 49.2318 446.023 49.7422V50.0703C446.023 50.4714 446.078 50.849 446.188 51.2031C446.302 51.5521 446.466 51.8594 446.68 52.125C446.898 52.3906 447.161 52.599 447.469 52.75C447.781 52.901 448.135 52.9766 448.531 52.9766C449.042 52.9766 449.474 52.8724 449.828 52.6641C450.182 52.4557 450.492 52.1771 450.758 51.8281L451.633 52.5234C451.451 52.7995 451.219 53.0625 450.938 53.3125C450.656 53.5625 450.31 53.7656 449.898 53.9219C449.492 54.0781 449.01 54.1562 448.453 54.1562Z" fill="black"/>
<circle cx="138.893" cy="195.5" r="98" fill="white" stroke="#0058E6" stroke-width="9"/>
<path d="M111.77 46.336C110.602 46.336 109.634 46.096 108.866 45.616C108.098 45.136 107.522 44.48 107.138 43.648C106.754 42.8 106.562 41.824 106.562 40.72V32.008C106.562 30.872 106.746 29.88 107.114 29.032C107.482 28.168 108.05 27.496 108.818 27.016C109.586 26.536 110.57 26.296 111.77 26.296C112.954 26.296 113.922 26.536 114.674 27.016C115.442 27.496 116.01 28.168 116.378 29.032C116.746 29.88 116.93 30.872 116.93 32.008V40.72C116.93 41.824 116.738 42.8 116.354 43.648C115.97 44.48 115.394 45.136 114.626 45.616C113.858 46.096 112.906 46.336 111.77 46.336ZM111.77 43.072C112.202 43.072 112.514 42.936 112.706 42.664C112.898 42.392 113.026 42.072 113.09 41.704C113.154 41.32 113.186 40.968 113.186 40.648V32.08C113.186 31.728 113.154 31.36 113.09 30.976C113.042 30.592 112.922 30.264 112.73 29.992C112.538 29.704 112.218 29.56 111.77 29.56C111.322 29.56 110.994 29.704 110.786 29.992C110.594 30.264 110.466 30.592 110.402 30.976C110.354 31.36 110.33 31.728 110.33 32.08V40.648C110.33 40.968 110.362 41.32 110.426 41.704C110.49 42.072 110.626 42.392 110.834 42.664C111.042 42.936 111.354 43.072 111.77 43.072ZM119.257 46V43.384L123.985 36.112C124.337 35.568 124.665 35.048 124.969 34.552C125.289 34.056 125.545 33.552 125.737 33.04C125.945 32.512 126.049 31.952 126.049 31.36C126.049 30.736 125.929 30.264 125.689 29.944C125.449 29.608 125.105 29.44 124.657 29.44C124.177 29.44 123.809 29.576 123.553 29.848C123.297 30.104 123.121 30.448 123.025 30.88C122.929 31.312 122.881 31.784 122.881 32.296V33.208H119.257V32.248C119.257 31.096 119.433 30.072 119.785 29.176C120.153 28.28 120.721 27.584 121.489 27.088C122.273 26.576 123.297 26.32 124.561 26.32C126.273 26.32 127.561 26.768 128.425 27.664C129.289 28.56 129.721 29.816 129.721 31.432C129.721 32.216 129.601 32.944 129.361 33.616C129.121 34.272 128.801 34.912 128.401 35.536C128.017 36.144 127.601 36.776 127.153 37.432L123.409 43.072H129.193V46H119.257Z" fill="white"/>
<circle cx="139" cy="195" r="80" fill="#0058E6"/>
</svg>
