<svg width="424" height="298" viewBox="0 0 424 298" fill="none" xmlns="http://www.w3.org/2000/svg">
<path d="M154 112L84 42" stroke="#22A960" stroke-width="9"/>
<path d="M129.73 26V6.56H135.898C137.066 6.56 138.018 6.784 138.754 7.232C139.49 7.664 140.034 8.296 140.386 9.128C140.754 9.96 140.938 10.968 140.938 12.152C140.938 13.544 140.698 14.632 140.218 15.416C139.754 16.2 139.114 16.76 138.298 17.096C137.482 17.416 136.546 17.576 135.49 17.576H133.69V26H129.73ZM133.69 14.792H135.082C135.658 14.792 136.098 14.704 136.402 14.528C136.722 14.336 136.938 14.04 137.05 13.64C137.162 13.24 137.218 12.728 137.218 12.104C137.218 11.512 137.17 11.016 137.074 10.616C136.994 10.216 136.802 9.904 136.498 9.68C136.194 9.456 135.714 9.344 135.058 9.344H133.69V14.792ZM145.211 26.24C144.555 26.24 143.987 26.072 143.507 25.736C143.043 25.4 142.691 24.976 142.451 24.464C142.211 23.952 142.091 23.424 142.091 22.88C142.091 22.016 142.259 21.288 142.595 20.696C142.931 20.104 143.371 19.608 143.915 19.208C144.459 18.808 145.067 18.464 145.739 18.176C146.411 17.888 147.083 17.624 147.755 17.384V16.088C147.755 15.784 147.731 15.52 147.683 15.296C147.635 15.072 147.539 14.904 147.395 14.792C147.267 14.664 147.075 14.6 146.819 14.6C146.563 14.6 146.363 14.656 146.219 14.768C146.091 14.864 145.995 15.016 145.931 15.224C145.883 15.416 145.851 15.632 145.835 15.872L145.763 16.832L142.331 16.688C142.411 15.056 142.835 13.848 143.603 13.064C144.387 12.28 145.563 11.888 147.131 11.888C148.539 11.888 149.579 12.28 150.251 13.064C150.923 13.832 151.259 14.848 151.259 16.112V22.568C151.259 23.112 151.267 23.6 151.283 24.032C151.315 24.448 151.347 24.824 151.379 25.16C151.427 25.48 151.467 25.76 151.499 26H148.235C148.187 25.648 148.131 25.264 148.067 24.848C148.003 24.432 147.955 24.152 147.923 24.008C147.763 24.584 147.459 25.104 147.011 25.568C146.563 26.016 145.963 26.24 145.211 26.24ZM146.531 23.672C146.707 23.672 146.875 23.632 147.035 23.552C147.195 23.472 147.331 23.368 147.443 23.24C147.571 23.112 147.675 22.992 147.755 22.88V19.064C147.419 19.272 147.107 19.48 146.819 19.688C146.531 19.88 146.283 20.096 146.075 20.336C145.867 20.576 145.707 20.84 145.595 21.128C145.483 21.416 145.427 21.744 145.427 22.112C145.427 22.592 145.523 22.976 145.715 23.264C145.907 23.536 146.179 23.672 146.531 23.672ZM153.847 29.912V27.368C154.375 27.368 154.807 27.336 155.143 27.272C155.479 27.208 155.727 27.088 155.887 26.912C156.063 26.752 156.151 26.52 156.151 26.216C156.151 25.976 156.095 25.648 155.983 25.232C155.887 24.816 155.775 24.352 155.647 23.84L152.479 12.128H155.911L157.687 20.648L159.127 12.128H162.583L159.367 26.432C159.175 27.328 158.855 28.024 158.407 28.52C157.975 29.032 157.439 29.392 156.799 29.6C156.175 29.808 155.447 29.912 154.615 29.912H153.847ZM172.821 26.24C172.165 26.24 171.597 26.072 171.117 25.736C170.653 25.4 170.301 24.976 170.061 24.464C169.821 23.952 169.701 23.424 169.701 22.88C169.701 22.016 169.869 21.288 170.205 20.696C170.541 20.104 170.981 19.608 171.525 19.208C172.069 18.808 172.677 18.464 173.349 18.176C174.021 17.888 174.693 17.624 175.365 17.384V16.088C175.365 15.784 175.341 15.52 175.293 15.296C175.245 15.072 175.149 14.904 175.005 14.792C174.877 14.664 174.685 14.6 174.429 14.6C174.173 14.6 173.973 14.656 173.829 14.768C173.701 14.864 173.605 15.016 173.541 15.224C173.493 15.416 173.461 15.632 173.445 15.872L173.373 16.832L169.941 16.688C170.021 15.056 170.445 13.848 171.213 13.064C171.997 12.28 173.173 11.888 174.741 11.888C176.149 11.888 177.189 12.28 177.861 13.064C178.533 13.832 178.869 14.848 178.869 16.112V22.568C178.869 23.112 178.877 23.6 178.893 24.032C178.925 24.448 178.957 24.824 178.989 25.16C179.037 25.48 179.077 25.76 179.109 26H175.845C175.797 25.648 175.741 25.264 175.677 24.848C175.613 24.432 175.565 24.152 175.533 24.008C175.373 24.584 175.069 25.104 174.621 25.568C174.173 26.016 173.573 26.24 172.821 26.24ZM174.141 23.672C174.317 23.672 174.485 23.632 174.645 23.552C174.805 23.472 174.941 23.368 175.053 23.24C175.181 23.112 175.285 22.992 175.365 22.88V19.064C175.029 19.272 174.717 19.48 174.429 19.688C174.141 19.88 173.893 20.096 173.685 20.336C173.477 20.576 173.317 20.84 173.205 21.128C173.093 21.416 173.037 21.744 173.037 22.112C173.037 22.592 173.133 22.976 173.325 23.264C173.517 23.536 173.789 23.672 174.141 23.672ZM181.769 26V14.6H180.377V12.128H181.769V11.168C181.769 10.336 181.849 9.616 182.009 9.008C182.185 8.4 182.529 7.928 183.041 7.592C183.553 7.256 184.337 7.088 185.393 7.088C185.713 7.088 186.009 7.096 186.281 7.112C186.569 7.128 186.889 7.16 187.241 7.208V9.896C187.113 9.864 186.969 9.84 186.809 9.824C186.665 9.792 186.521 9.776 186.377 9.776C186.041 9.776 185.793 9.88 185.633 10.088C185.473 10.28 185.393 10.592 185.393 11.024V12.128H187.241V14.6H185.393V26H181.769ZM192.892 26.144C191.932 26.144 191.18 26 190.636 25.712C190.092 25.408 189.716 24.976 189.508 24.416C189.3 23.856 189.196 23.176 189.196 22.376V14.504H187.828V12.128H189.196V7.928H192.868V12.128H194.884V14.504H192.868V22.04C192.868 22.472 192.972 22.784 193.18 22.976C193.404 23.152 193.708 23.24 194.092 23.24C194.284 23.24 194.468 23.232 194.644 23.216C194.82 23.184 194.98 23.16 195.124 23.144V25.976C194.9 26.008 194.58 26.04 194.164 26.072C193.748 26.12 193.324 26.144 192.892 26.144ZM201.358 26.24C200.334 26.24 199.478 26.056 198.79 25.688C198.102 25.304 197.582 24.752 197.23 24.032C196.878 23.296 196.702 22.416 196.702 21.392V16.736C196.702 15.68 196.878 14.8 197.23 14.096C197.582 13.376 198.11 12.832 198.814 12.464C199.518 12.08 200.366 11.888 201.358 11.888C202.414 11.888 203.27 12.08 203.926 12.464C204.582 12.848 205.062 13.408 205.366 14.144C205.686 14.88 205.846 15.776 205.846 16.832V19.256H200.278V21.944C200.278 22.344 200.318 22.672 200.398 22.928C200.494 23.184 200.622 23.368 200.782 23.48C200.942 23.576 201.142 23.624 201.382 23.624C201.606 23.624 201.798 23.576 201.958 23.48C202.134 23.368 202.262 23.2 202.342 22.976C202.422 22.752 202.462 22.456 202.462 22.088V20.768H205.822V21.92C205.822 23.328 205.438 24.4 204.67 25.136C203.902 25.872 202.798 26.24 201.358 26.24ZM200.278 17.528H202.462V16.16C202.462 15.76 202.422 15.44 202.342 15.2C202.262 14.944 202.134 14.768 201.958 14.672C201.798 14.56 201.59 14.504 201.334 14.504C201.094 14.504 200.894 14.56 200.734 14.672C200.59 14.784 200.478 14.984 200.398 15.272C200.318 15.544 200.278 15.936 200.278 16.448V17.528ZM208.077 26V12.128H211.701V14.36C212.165 13.544 212.621 12.944 213.069 12.56C213.533 12.16 214.077 11.96 214.701 11.96C214.813 11.96 214.909 11.968 214.989 11.984C215.085 11.984 215.173 12 215.253 12.032V15.68C215.077 15.6 214.877 15.536 214.653 15.488C214.429 15.424 214.197 15.392 213.957 15.392C213.509 15.392 213.101 15.512 212.733 15.752C212.365 15.976 212.021 16.304 211.701 16.736V26H208.077ZM227.064 26.144C226.104 26.144 225.352 26 224.808 25.712C224.264 25.408 223.888 24.976 223.68 24.416C223.472 23.856 223.368 23.176 223.368 22.376V14.504H222V12.128H223.368V7.928H227.04V12.128H229.056V14.504H227.04V22.04C227.04 22.472 227.144 22.784 227.352 22.976C227.576 23.152 227.88 23.24 228.264 23.24C228.456 23.24 228.64 23.232 228.816 23.216C228.992 23.184 229.152 23.16 229.296 23.144V25.976C229.072 26.008 228.752 26.04 228.336 26.072C227.92 26.12 227.496 26.144 227.064 26.144ZM231.186 26V6.56H234.786V13.4C235.298 12.904 235.834 12.528 236.394 12.272C236.954 12.016 237.562 11.888 238.218 11.888C238.778 11.888 239.234 12.032 239.586 12.32C239.954 12.608 240.226 12.992 240.402 13.472C240.578 13.936 240.666 14.464 240.666 15.056V26H237.042V15.656C237.042 15.272 236.986 14.984 236.874 14.792C236.762 14.6 236.538 14.504 236.202 14.504C236.01 14.504 235.786 14.56 235.53 14.672C235.29 14.768 235.042 14.904 234.786 15.08V26H231.186ZM247.413 26.24C246.389 26.24 245.533 26.056 244.845 25.688C244.157 25.304 243.637 24.752 243.285 24.032C242.933 23.296 242.757 22.416 242.757 21.392V16.736C242.757 15.68 242.933 14.8 243.285 14.096C243.637 13.376 244.165 12.832 244.869 12.464C245.573 12.08 246.421 11.888 247.413 11.888C248.469 11.888 249.325 12.08 249.981 12.464C250.637 12.848 251.117 13.408 251.421 14.144C251.741 14.88 251.901 15.776 251.901 16.832V19.256H246.333V21.944C246.333 22.344 246.373 22.672 246.453 22.928C246.549 23.184 246.677 23.368 246.837 23.48C246.997 23.576 247.197 23.624 247.437 23.624C247.661 23.624 247.853 23.576 248.013 23.48C248.189 23.368 248.317 23.2 248.397 22.976C248.477 22.752 248.517 22.456 248.517 22.088V20.768H251.877V21.92C251.877 23.328 251.493 24.4 250.725 25.136C249.957 25.872 248.853 26.24 247.413 26.24ZM246.333 17.528H248.517V16.16C248.517 15.76 248.477 15.44 248.397 15.2C248.317 14.944 248.189 14.768 248.013 14.672C247.853 14.56 247.645 14.504 247.389 14.504C247.149 14.504 246.949 14.56 246.789 14.672C246.645 14.784 246.533 14.984 246.453 15.272C246.373 15.544 246.333 15.936 246.333 16.448V17.528ZM264.116 26.24C262.916 26.24 261.924 25.952 261.14 25.376C260.372 24.784 259.772 23.88 259.34 22.664L261.884 21.608C262.124 22.28 262.412 22.808 262.748 23.192C263.084 23.56 263.476 23.744 263.924 23.744C264.26 23.744 264.508 23.672 264.668 23.528C264.844 23.368 264.932 23.152 264.932 22.88C264.932 22.496 264.804 22.152 264.548 21.848C264.292 21.544 263.836 21.12 263.18 20.576L261.884 19.472C261.212 18.896 260.668 18.328 260.252 17.768C259.852 17.192 259.652 16.48 259.652 15.632C259.652 14.88 259.836 14.224 260.204 13.664C260.588 13.104 261.092 12.672 261.716 12.368C262.356 12.048 263.044 11.888 263.78 11.888C264.916 11.888 265.844 12.216 266.564 12.872C267.3 13.512 267.796 14.384 268.052 15.488L265.7 16.544C265.604 16.192 265.476 15.864 265.316 15.56C265.156 15.24 264.948 14.976 264.692 14.768C264.452 14.56 264.18 14.456 263.876 14.456C263.588 14.456 263.356 14.544 263.18 14.72C263.004 14.896 262.916 15.12 262.916 15.392C262.916 15.68 263.06 15.984 263.348 16.304C263.652 16.624 264.068 17.008 264.596 17.456L265.892 18.608C266.276 18.944 266.652 19.304 267.02 19.688C267.388 20.056 267.692 20.472 267.932 20.936C268.172 21.384 268.292 21.904 268.292 22.496C268.292 23.296 268.1 23.976 267.716 24.536C267.332 25.096 266.82 25.52 266.18 25.808C265.556 26.096 264.868 26.24 264.116 26.24ZM274.366 26.24C273.342 26.24 272.486 26.056 271.798 25.688C271.11 25.304 270.59 24.752 270.238 24.032C269.886 23.296 269.71 22.416 269.71 21.392V16.736C269.71 15.68 269.886 14.8 270.238 14.096C270.59 13.376 271.118 12.832 271.822 12.464C272.526 12.08 273.374 11.888 274.366 11.888C275.422 11.888 276.278 12.08 276.934 12.464C277.59 12.848 278.07 13.408 278.374 14.144C278.694 14.88 278.854 15.776 278.854 16.832V19.256H273.286V21.944C273.286 22.344 273.326 22.672 273.406 22.928C273.502 23.184 273.63 23.368 273.79 23.48C273.95 23.576 274.15 23.624 274.39 23.624C274.614 23.624 274.806 23.576 274.966 23.48C275.142 23.368 275.27 23.2 275.35 22.976C275.43 22.752 275.47 22.456 275.47 22.088V20.768H278.83V21.92C278.83 23.328 278.446 24.4 277.678 25.136C276.91 25.872 275.806 26.24 274.366 26.24ZM273.286 17.528H275.47V16.16C275.47 15.76 275.43 15.44 275.35 15.2C275.27 14.944 275.142 14.768 274.966 14.672C274.806 14.56 274.598 14.504 274.342 14.504C274.102 14.504 273.902 14.56 273.742 14.672C273.598 14.784 273.486 14.984 273.406 15.272C273.326 15.544 273.286 15.936 273.286 16.448V17.528ZM281.085 26V12.128H284.709V14.36C285.173 13.544 285.629 12.944 286.077 12.56C286.541 12.16 287.085 11.96 287.709 11.96C287.821 11.96 287.917 11.968 287.997 11.984C288.093 11.984 288.181 12 288.261 12.032V15.68C288.085 15.6 287.885 15.536 287.661 15.488C287.437 15.424 287.205 15.392 286.965 15.392C286.517 15.392 286.109 15.512 285.741 15.752C285.373 15.976 285.029 16.304 284.709 16.736V26H281.085ZM291.72 26L288.936 12.128H292.44L293.712 21.464L294.912 12.128H298.392L295.584 26H291.72ZM299.882 26V12.128H303.506V26H299.882ZM299.858 9.848V7.136H303.506V9.848H299.858ZM310.342 26.24C309.318 26.24 308.462 26.048 307.774 25.664C307.086 25.264 306.566 24.704 306.214 23.984C305.878 23.264 305.71 22.408 305.71 21.416V16.736C305.71 15.696 305.878 14.824 306.214 14.12C306.566 13.4 307.086 12.848 307.774 12.464C308.462 12.08 309.318 11.888 310.342 11.888C311.334 11.888 312.166 12.048 312.838 12.368C313.51 12.672 314.006 13.136 314.326 13.76C314.662 14.384 314.83 15.168 314.83 16.112V17.432H311.374V16.016C311.374 15.6 311.334 15.28 311.254 15.056C311.19 14.816 311.078 14.648 310.918 14.552C310.774 14.456 310.582 14.408 310.342 14.408C310.102 14.408 309.91 14.472 309.766 14.6C309.622 14.712 309.518 14.912 309.454 15.2C309.39 15.472 309.358 15.856 309.358 16.352V21.8C309.358 22.552 309.438 23.064 309.598 23.336C309.774 23.592 310.03 23.72 310.366 23.72C310.622 23.72 310.822 23.664 310.966 23.552C311.11 23.44 311.214 23.264 311.278 23.024C311.342 22.784 311.374 22.48 311.374 22.112V20.432H314.83V21.944C314.83 22.872 314.662 23.664 314.326 24.32C313.99 24.96 313.486 25.44 312.814 25.76C312.142 26.08 311.318 26.24 310.342 26.24ZM321.311 26.24C320.287 26.24 319.431 26.056 318.743 25.688C318.055 25.304 317.535 24.752 317.183 24.032C316.831 23.296 316.655 22.416 316.655 21.392V16.736C316.655 15.68 316.831 14.8 317.183 14.096C317.535 13.376 318.063 12.832 318.767 12.464C319.471 12.08 320.319 11.888 321.311 11.888C322.367 11.888 323.223 12.08 323.879 12.464C324.535 12.848 325.015 13.408 325.319 14.144C325.639 14.88 325.799 15.776 325.799 16.832V19.256H320.231V21.944C320.231 22.344 320.271 22.672 320.351 22.928C320.447 23.184 320.575 23.368 320.735 23.48C320.895 23.576 321.095 23.624 321.335 23.624C321.559 23.624 321.751 23.576 321.911 23.48C322.087 23.368 322.215 23.2 322.295 22.976C322.375 22.752 322.415 22.456 322.415 22.088V20.768H325.775V21.92C325.775 23.328 325.391 24.4 324.623 25.136C323.855 25.872 322.751 26.24 321.311 26.24ZM320.231 17.528H322.415V16.16C322.415 15.76 322.375 15.44 322.295 15.2C322.215 14.944 322.087 14.768 321.911 14.672C321.751 14.56 321.543 14.504 321.287 14.504C321.047 14.504 320.847 14.56 320.687 14.672C320.543 14.784 320.431 14.984 320.351 15.272C320.271 15.544 320.231 15.936 320.231 16.448V17.528Z" fill="black"/>
<path d="M133.453 42.625V54H131.945V42.625H133.453ZM138.219 47.7422V48.9766H133.125V47.7422H138.219ZM138.992 42.625V43.8594H133.125V42.625H138.992ZM142.141 45.5469V54H140.688V45.5469H142.141ZM140.578 43.3047C140.578 43.0703 140.648 42.8724 140.789 42.7109C140.935 42.5495 141.148 42.4688 141.43 42.4688C141.706 42.4688 141.917 42.5495 142.062 42.7109C142.214 42.8724 142.289 43.0703 142.289 43.3047C142.289 43.5286 142.214 43.7214 142.062 43.8828C141.917 44.0391 141.706 44.1172 141.43 44.1172C141.148 44.1172 140.935 44.0391 140.789 43.8828C140.648 43.7214 140.578 43.5286 140.578 43.3047ZM145.438 45.5469L147.289 48.625L149.164 45.5469H150.859L148.094 49.7188L150.945 54H149.273L147.32 50.8281L145.367 54H143.688L146.531 49.7188L143.773 45.5469H145.438ZM155.75 54.1562C155.161 54.1562 154.628 54.0573 154.148 53.8594C153.674 53.6562 153.266 53.3724 152.922 53.0078C152.583 52.6432 152.323 52.2109 152.141 51.7109C151.958 51.2109 151.867 50.6641 151.867 50.0703V49.7422C151.867 49.0547 151.969 48.4427 152.172 47.9062C152.375 47.3646 152.651 46.9062 153 46.5312C153.349 46.1562 153.745 45.8724 154.188 45.6797C154.63 45.487 155.089 45.3906 155.562 45.3906C156.167 45.3906 156.688 45.4948 157.125 45.7031C157.568 45.9115 157.93 46.2031 158.211 46.5781C158.492 46.9479 158.701 47.3854 158.836 47.8906C158.971 48.3906 159.039 48.9375 159.039 49.5312V50.1797H152.727V49H157.594V48.8906C157.573 48.5156 157.495 48.151 157.359 47.7969C157.229 47.4427 157.021 47.151 156.734 46.9219C156.448 46.6927 156.057 46.5781 155.562 46.5781C155.234 46.5781 154.932 46.6484 154.656 46.7891C154.38 46.9245 154.143 47.1276 153.945 47.3984C153.747 47.6693 153.594 48 153.484 48.3906C153.375 48.7812 153.32 49.2318 153.32 49.7422V50.0703C153.32 50.4714 153.375 50.849 153.484 51.2031C153.599 51.5521 153.763 51.8594 153.977 52.125C154.195 52.3906 154.458 52.599 154.766 52.75C155.078 52.901 155.432 52.9766 155.828 52.9766C156.339 52.9766 156.771 52.8724 157.125 52.6641C157.479 52.4557 157.789 52.1771 158.055 51.8281L158.93 52.5234C158.747 52.7995 158.516 53.0625 158.234 53.3125C157.953 53.5625 157.607 53.7656 157.195 53.9219C156.789 54.0781 156.307 54.1562 155.75 54.1562ZM166.055 52.3594V42H167.508V54H166.18L166.055 52.3594ZM160.367 49.8672V49.7031C160.367 49.0573 160.445 48.4714 160.602 47.9453C160.763 47.4141 160.99 46.9583 161.281 46.5781C161.578 46.1979 161.93 45.9062 162.336 45.7031C162.747 45.4948 163.206 45.3906 163.711 45.3906C164.242 45.3906 164.706 45.4844 165.102 45.6719C165.503 45.8542 165.841 46.1224 166.117 46.4766C166.398 46.8255 166.62 47.2474 166.781 47.7422C166.943 48.237 167.055 48.7969 167.117 49.4219V50.1406C167.06 50.7604 166.948 51.3177 166.781 51.8125C166.62 52.3073 166.398 52.7292 166.117 53.0781C165.841 53.4271 165.503 53.6953 165.102 53.8828C164.701 54.0651 164.232 54.1562 163.695 54.1562C163.201 54.1562 162.747 54.0495 162.336 53.8359C161.93 53.6224 161.578 53.3229 161.281 52.9375C160.99 52.5521 160.763 52.099 160.602 51.5781C160.445 51.0521 160.367 50.4818 160.367 49.8672ZM161.82 49.7031V49.8672C161.82 50.2891 161.862 50.6849 161.945 51.0547C162.034 51.4245 162.169 51.75 162.352 52.0312C162.534 52.3125 162.766 52.5339 163.047 52.6953C163.328 52.8516 163.664 52.9297 164.055 52.9297C164.534 52.9297 164.927 52.8281 165.234 52.625C165.547 52.4219 165.797 52.1536 165.984 51.8203C166.172 51.487 166.318 51.125 166.422 50.7344V48.8516C166.359 48.5651 166.268 48.2891 166.148 48.0234C166.034 47.7526 165.883 47.513 165.695 47.3047C165.513 47.0911 165.286 46.9219 165.016 46.7969C164.75 46.6719 164.435 46.6094 164.07 46.6094C163.674 46.6094 163.333 46.6927 163.047 46.8594C162.766 47.0208 162.534 47.2448 162.352 47.5312C162.169 47.8125 162.034 48.1406 161.945 48.5156C161.862 48.8854 161.82 49.2812 161.82 49.7031ZM178.898 52.0469V45.5469H180.352V54H178.969L178.898 52.0469ZM179.172 50.2656L179.773 50.25C179.773 50.8125 179.714 51.3333 179.594 51.8125C179.479 52.2865 179.292 52.6979 179.031 53.0469C178.771 53.3958 178.43 53.6693 178.008 53.8672C177.586 54.0599 177.073 54.1562 176.469 54.1562C176.057 54.1562 175.68 54.0964 175.336 53.9766C174.997 53.8568 174.706 53.6719 174.461 53.4219C174.216 53.1719 174.026 52.8464 173.891 52.4453C173.76 52.0443 173.695 51.5625 173.695 51V45.5469H175.141V51.0156C175.141 51.3958 175.182 51.7109 175.266 51.9609C175.354 52.2057 175.471 52.401 175.617 52.5469C175.768 52.6875 175.935 52.7865 176.117 52.8438C176.305 52.901 176.497 52.9297 176.695 52.9297C177.31 52.9297 177.797 52.8125 178.156 52.5781C178.516 52.3385 178.773 52.0182 178.93 51.6172C179.091 51.2109 179.172 50.7604 179.172 50.2656ZM184 47.1719V57.25H182.547V45.5469H183.875L184 47.1719ZM189.695 49.7031V49.8672C189.695 50.4818 189.622 51.0521 189.477 51.5781C189.331 52.099 189.117 52.5521 188.836 52.9375C188.56 53.3229 188.219 53.6224 187.812 53.8359C187.406 54.0495 186.94 54.1562 186.414 54.1562C185.878 54.1562 185.404 54.0677 184.992 53.8906C184.581 53.7135 184.232 53.4557 183.945 53.1172C183.659 52.7786 183.43 52.3724 183.258 51.8984C183.091 51.4245 182.977 50.8906 182.914 50.2969V49.4219C182.977 48.7969 183.094 48.237 183.266 47.7422C183.438 47.2474 183.664 46.8255 183.945 46.4766C184.232 46.1224 184.578 45.8542 184.984 45.6719C185.391 45.4844 185.859 45.3906 186.391 45.3906C186.922 45.3906 187.393 45.4948 187.805 45.7031C188.216 45.9062 188.562 46.1979 188.844 46.5781C189.125 46.9583 189.336 47.4141 189.477 47.9453C189.622 48.4714 189.695 49.0573 189.695 49.7031ZM188.242 49.8672V49.7031C188.242 49.2812 188.198 48.8854 188.109 48.5156C188.021 48.1406 187.883 47.8125 187.695 47.5312C187.513 47.2448 187.279 47.0208 186.992 46.8594C186.706 46.6927 186.365 46.6094 185.969 46.6094C185.604 46.6094 185.286 46.6719 185.016 46.7969C184.75 46.9219 184.523 47.0911 184.336 47.3047C184.148 47.513 183.995 47.7526 183.875 48.0234C183.76 48.2891 183.674 48.5651 183.617 48.8516V50.875C183.721 51.2396 183.867 51.5833 184.055 51.9062C184.242 52.224 184.492 52.4818 184.805 52.6797C185.117 52.8724 185.51 52.9688 185.984 52.9688C186.375 52.9688 186.711 52.888 186.992 52.7266C187.279 52.5599 187.513 52.3333 187.695 52.0469C187.883 51.7604 188.021 51.4323 188.109 51.0625C188.198 50.6875 188.242 50.2891 188.242 49.8672ZM193.695 54H192.25V44.6562C192.25 44.0469 192.359 43.5339 192.578 43.1172C192.802 42.6953 193.122 42.3776 193.539 42.1641C193.956 41.9453 194.451 41.8359 195.023 41.8359C195.19 41.8359 195.357 41.8464 195.523 41.8672C195.695 41.888 195.862 41.9193 196.023 41.9609L195.945 43.1406C195.836 43.1146 195.711 43.0964 195.57 43.0859C195.435 43.0755 195.299 43.0703 195.164 43.0703C194.857 43.0703 194.591 43.1328 194.367 43.2578C194.148 43.3776 193.982 43.5547 193.867 43.7891C193.753 44.0234 193.695 44.3125 193.695 44.6562V54ZM195.492 45.5469V46.6562H190.914V45.5469H195.492ZM198.547 46.875V54H197.102V45.5469H198.508L198.547 46.875ZM201.188 45.5L201.18 46.8438C201.06 46.8177 200.945 46.8021 200.836 46.7969C200.732 46.7865 200.612 46.7812 200.477 46.7812C200.143 46.7812 199.849 46.8333 199.594 46.9375C199.339 47.0417 199.122 47.1875 198.945 47.375C198.768 47.5625 198.628 47.7865 198.523 48.0469C198.424 48.3021 198.359 48.5833 198.328 48.8906L197.922 49.125C197.922 48.6146 197.971 48.1354 198.07 47.6875C198.174 47.2396 198.333 46.8438 198.547 46.5C198.76 46.151 199.031 45.8802 199.359 45.6875C199.693 45.4896 200.089 45.3906 200.547 45.3906C200.651 45.3906 200.771 45.4036 200.906 45.4297C201.042 45.4505 201.135 45.474 201.188 45.5ZM201.984 49.8672V49.6875C201.984 49.0781 202.073 48.513 202.25 47.9922C202.427 47.4661 202.682 47.0104 203.016 46.625C203.349 46.2344 203.753 45.9323 204.227 45.7188C204.701 45.5 205.232 45.3906 205.82 45.3906C206.414 45.3906 206.948 45.5 207.422 45.7188C207.901 45.9323 208.307 46.2344 208.641 46.625C208.979 47.0104 209.237 47.4661 209.414 47.9922C209.591 48.513 209.68 49.0781 209.68 49.6875V49.8672C209.68 50.4766 209.591 51.0417 209.414 51.5625C209.237 52.0833 208.979 52.5391 208.641 52.9297C208.307 53.3151 207.904 53.6172 207.43 53.8359C206.961 54.0495 206.43 54.1562 205.836 54.1562C205.242 54.1562 204.708 54.0495 204.234 53.8359C203.76 53.6172 203.354 53.3151 203.016 52.9297C202.682 52.5391 202.427 52.0833 202.25 51.5625C202.073 51.0417 201.984 50.4766 201.984 49.8672ZM203.43 49.6875V49.8672C203.43 50.2891 203.479 50.6875 203.578 51.0625C203.677 51.4323 203.826 51.7604 204.023 52.0469C204.227 52.3333 204.479 52.5599 204.781 52.7266C205.083 52.888 205.435 52.9688 205.836 52.9688C206.232 52.9688 206.578 52.888 206.875 52.7266C207.177 52.5599 207.427 52.3333 207.625 52.0469C207.823 51.7604 207.971 51.4323 208.07 51.0625C208.174 50.6875 208.227 50.2891 208.227 49.8672V49.6875C208.227 49.2708 208.174 48.8776 208.07 48.5078C207.971 48.1328 207.82 47.8021 207.617 47.5156C207.419 47.224 207.169 46.9948 206.867 46.8281C206.57 46.6615 206.221 46.5781 205.82 46.5781C205.424 46.5781 205.076 46.6615 204.773 46.8281C204.477 46.9948 204.227 47.224 204.023 47.5156C203.826 47.8021 203.677 48.1328 203.578 48.5078C203.479 48.8776 203.43 49.2708 203.43 49.6875ZM212.938 47.3516V54H211.492V45.5469H212.859L212.938 47.3516ZM212.594 49.4531L211.992 49.4297C211.997 48.8516 212.083 48.3177 212.25 47.8281C212.417 47.3333 212.651 46.9036 212.953 46.5391C213.255 46.1745 213.615 45.8932 214.031 45.6953C214.453 45.4922 214.919 45.3906 215.43 45.3906C215.846 45.3906 216.221 45.4479 216.555 45.5625C216.888 45.6719 217.172 45.849 217.406 46.0938C217.646 46.3385 217.828 46.6562 217.953 47.0469C218.078 47.4323 218.141 47.9036 218.141 48.4609V54H216.688V48.4453C216.688 48.0026 216.622 47.6484 216.492 47.3828C216.362 47.112 216.172 46.9167 215.922 46.7969C215.672 46.6719 215.365 46.6094 215 46.6094C214.641 46.6094 214.312 46.6849 214.016 46.8359C213.724 46.987 213.471 47.1953 213.258 47.4609C213.049 47.7266 212.885 48.0312 212.766 48.375C212.651 48.7135 212.594 49.0729 212.594 49.4531ZM223.875 45.5469V46.6562H219.305V45.5469H223.875ZM220.852 43.4922H222.297V51.9062C222.297 52.1927 222.341 52.4089 222.43 52.5547C222.518 52.7005 222.633 52.7969 222.773 52.8438C222.914 52.8906 223.065 52.9141 223.227 52.9141C223.346 52.9141 223.471 52.9036 223.602 52.8828C223.737 52.8568 223.839 52.8359 223.906 52.8203L223.914 54C223.799 54.0365 223.648 54.0703 223.461 54.1016C223.279 54.138 223.057 54.1562 222.797 54.1562C222.443 54.1562 222.117 54.0859 221.82 53.9453C221.523 53.8047 221.286 53.5703 221.109 53.2422C220.938 52.9089 220.852 52.4609 220.852 51.8984V43.4922ZM234.859 57.25V47.1719L234.984 45.5469H236.312V57.25H234.859ZM229.18 49.8672V49.7031C229.18 49.0573 229.255 48.4714 229.406 47.9453C229.557 47.4141 229.779 46.9583 230.07 46.5781C230.362 46.1979 230.714 45.9062 231.125 45.7031C231.542 45.4948 232.016 45.3906 232.547 45.3906C233.078 45.3906 233.544 45.4844 233.945 45.6719C234.352 45.8542 234.695 46.1224 234.977 46.4766C235.263 46.8255 235.49 47.2474 235.656 47.7422C235.823 48.237 235.938 48.7969 236 49.4219V50.1406C235.943 50.7604 235.831 51.3177 235.664 51.8125C235.497 52.3073 235.271 52.7292 234.984 53.0781C234.703 53.4271 234.357 53.6953 233.945 53.8828C233.539 54.0651 233.068 54.1562 232.531 54.1562C232.01 54.1562 231.542 54.0495 231.125 53.8359C230.714 53.6224 230.362 53.3229 230.07 52.9375C229.784 52.5521 229.562 52.099 229.406 51.5781C229.255 51.0521 229.18 50.4818 229.18 49.8672ZM230.633 49.7031V49.8672C230.633 50.2891 230.677 50.6875 230.766 51.0625C230.854 51.4323 230.99 51.7604 231.172 52.0469C231.359 52.3333 231.594 52.5599 231.875 52.7266C232.161 52.888 232.5 52.9688 232.891 52.9688C233.37 52.9688 233.768 52.8646 234.086 52.6562C234.409 52.4479 234.667 52.1745 234.859 51.8359C235.052 51.4922 235.201 51.125 235.305 50.7344V48.8516C235.247 48.5651 235.156 48.2865 235.031 48.0156C234.911 47.7448 234.755 47.5026 234.562 47.2891C234.37 47.0703 234.135 46.8984 233.859 46.7734C233.589 46.6432 233.271 46.5781 232.906 46.5781C232.51 46.5781 232.169 46.6615 231.883 46.8281C231.596 46.9948 231.359 47.224 231.172 47.5156C230.99 47.8021 230.854 48.1328 230.766 48.5078C230.677 48.8828 230.633 49.2812 230.633 49.7031ZM238.25 49.8672V49.6875C238.25 49.0781 238.339 48.513 238.516 47.9922C238.693 47.4661 238.948 47.0104 239.281 46.625C239.615 46.2344 240.018 45.9323 240.492 45.7188C240.966 45.5 241.497 45.3906 242.086 45.3906C242.68 45.3906 243.214 45.5 243.688 45.7188C244.167 45.9323 244.573 46.2344 244.906 46.625C245.245 47.0104 245.503 47.4661 245.68 47.9922C245.857 48.513 245.945 49.0781 245.945 49.6875V49.8672C245.945 50.4766 245.857 51.0417 245.68 51.5625C245.503 52.0833 245.245 52.5391 244.906 52.9297C244.573 53.3151 244.169 53.6172 243.695 53.8359C243.227 54.0495 242.695 54.1562 242.102 54.1562C241.508 54.1562 240.974 54.0495 240.5 53.8359C240.026 53.6172 239.62 53.3151 239.281 52.9297C238.948 52.5391 238.693 52.0833 238.516 51.5625C238.339 51.0417 238.25 50.4766 238.25 49.8672ZM239.695 49.6875V49.8672C239.695 50.2891 239.745 50.6875 239.844 51.0625C239.943 51.4323 240.091 51.7604 240.289 52.0469C240.492 52.3333 240.745 52.5599 241.047 52.7266C241.349 52.888 241.701 52.9688 242.102 52.9688C242.497 52.9688 242.844 52.888 243.141 52.7266C243.443 52.5599 243.693 52.3333 243.891 52.0469C244.089 51.7604 244.237 51.4323 244.336 51.0625C244.44 50.6875 244.492 50.2891 244.492 49.8672V49.6875C244.492 49.2708 244.44 48.8776 244.336 48.5078C244.237 48.1328 244.086 47.8021 243.883 47.5156C243.685 47.224 243.435 46.9948 243.133 46.8281C242.836 46.6615 242.487 46.5781 242.086 46.5781C241.69 46.5781 241.341 46.6615 241.039 46.8281C240.742 46.9948 240.492 47.224 240.289 47.5156C240.091 47.8021 239.943 48.1328 239.844 48.5078C239.745 48.8776 239.695 49.2708 239.695 49.6875ZM252.93 52.0469V45.5469H254.383V54H253L252.93 52.0469ZM253.203 50.2656L253.805 50.25C253.805 50.8125 253.745 51.3333 253.625 51.8125C253.51 52.2865 253.323 52.6979 253.062 53.0469C252.802 53.3958 252.461 53.6693 252.039 53.8672C251.617 54.0599 251.104 54.1562 250.5 54.1562C250.089 54.1562 249.711 54.0964 249.367 53.9766C249.029 53.8568 248.737 53.6719 248.492 53.4219C248.247 53.1719 248.057 52.8464 247.922 52.4453C247.792 52.0443 247.727 51.5625 247.727 51V45.5469H249.172V51.0156C249.172 51.3958 249.214 51.7109 249.297 51.9609C249.385 52.2057 249.503 52.401 249.648 52.5469C249.799 52.6875 249.966 52.7865 250.148 52.8438C250.336 52.901 250.529 52.9297 250.727 52.9297C251.341 52.9297 251.828 52.8125 252.188 52.5781C252.547 52.3385 252.805 52.0182 252.961 51.6172C253.122 51.2109 253.203 50.7604 253.203 50.2656ZM260.125 45.5469V46.6562H255.555V45.5469H260.125ZM257.102 43.4922H258.547V51.9062C258.547 52.1927 258.591 52.4089 258.68 52.5547C258.768 52.7005 258.883 52.7969 259.023 52.8438C259.164 52.8906 259.315 52.9141 259.477 52.9141C259.596 52.9141 259.721 52.9036 259.852 52.8828C259.987 52.8568 260.089 52.8359 260.156 52.8203L260.164 54C260.049 54.0365 259.898 54.0703 259.711 54.1016C259.529 54.138 259.307 54.1562 259.047 54.1562C258.693 54.1562 258.367 54.0859 258.07 53.9453C257.773 53.8047 257.536 53.5703 257.359 53.2422C257.188 52.9089 257.102 52.4609 257.102 51.8984V43.4922ZM265.328 54.1562C264.74 54.1562 264.206 54.0573 263.727 53.8594C263.253 53.6562 262.844 53.3724 262.5 53.0078C262.161 52.6432 261.901 52.2109 261.719 51.7109C261.536 51.2109 261.445 50.6641 261.445 50.0703V49.7422C261.445 49.0547 261.547 48.4427 261.75 47.9062C261.953 47.3646 262.229 46.9062 262.578 46.5312C262.927 46.1562 263.323 45.8724 263.766 45.6797C264.208 45.487 264.667 45.3906 265.141 45.3906C265.745 45.3906 266.266 45.4948 266.703 45.7031C267.146 45.9115 267.508 46.2031 267.789 46.5781C268.07 46.9479 268.279 47.3854 268.414 47.8906C268.549 48.3906 268.617 48.9375 268.617 49.5312V50.1797H262.305V49H267.172V48.8906C267.151 48.5156 267.073 48.151 266.938 47.7969C266.807 47.4427 266.599 47.151 266.312 46.9219C266.026 46.6927 265.635 46.5781 265.141 46.5781C264.812 46.5781 264.51 46.6484 264.234 46.7891C263.958 46.9245 263.721 47.1276 263.523 47.3984C263.326 47.6693 263.172 48 263.062 48.3906C262.953 48.7812 262.898 49.2318 262.898 49.7422V50.0703C262.898 50.4714 262.953 50.849 263.062 51.2031C263.177 51.5521 263.341 51.8594 263.555 52.125C263.773 52.3906 264.036 52.599 264.344 52.75C264.656 52.901 265.01 52.9766 265.406 52.9766C265.917 52.9766 266.349 52.8724 266.703 52.6641C267.057 52.4557 267.367 52.1771 267.633 51.8281L268.508 52.5234C268.326 52.7995 268.094 53.0625 267.812 53.3125C267.531 53.5625 267.185 53.7656 266.773 53.9219C266.367 54.0781 265.885 54.1562 265.328 54.1562ZM277.812 45.5469V46.6562H273.242V45.5469H277.812ZM274.789 43.4922H276.234V51.9062C276.234 52.1927 276.279 52.4089 276.367 52.5547C276.456 52.7005 276.57 52.7969 276.711 52.8438C276.852 52.8906 277.003 52.9141 277.164 52.9141C277.284 52.9141 277.409 52.9036 277.539 52.8828C277.674 52.8568 277.776 52.8359 277.844 52.8203L277.852 54C277.737 54.0365 277.586 54.0703 277.398 54.1016C277.216 54.138 276.995 54.1562 276.734 54.1562C276.38 54.1562 276.055 54.0859 275.758 53.9453C275.461 53.8047 275.224 53.5703 275.047 53.2422C274.875 52.9089 274.789 52.4609 274.789 51.8984V43.4922ZM280.953 42V54H279.508V42H280.953ZM280.609 49.4531L280.008 49.4297C280.013 48.8516 280.099 48.3177 280.266 47.8281C280.432 47.3333 280.667 46.9036 280.969 46.5391C281.271 46.1745 281.63 45.8932 282.047 45.6953C282.469 45.4922 282.935 45.3906 283.445 45.3906C283.862 45.3906 284.237 45.4479 284.57 45.5625C284.904 45.6719 285.188 45.849 285.422 46.0938C285.661 46.3385 285.844 46.6562 285.969 47.0469C286.094 47.4323 286.156 47.9036 286.156 48.4609V54H284.703V48.4453C284.703 48.0026 284.638 47.6484 284.508 47.3828C284.378 47.112 284.188 46.9167 283.938 46.7969C283.688 46.6719 283.38 46.6094 283.016 46.6094C282.656 46.6094 282.328 46.6849 282.031 46.8359C281.74 46.987 281.487 47.1953 281.273 47.4609C281.065 47.7266 280.901 48.0312 280.781 48.375C280.667 48.7135 280.609 49.0729 280.609 49.4531ZM293.305 52.5547V48.2031C293.305 47.8698 293.237 47.5807 293.102 47.3359C292.971 47.0859 292.773 46.8932 292.508 46.7578C292.242 46.6224 291.914 46.5547 291.523 46.5547C291.159 46.5547 290.839 46.6172 290.562 46.7422C290.292 46.8672 290.078 47.0312 289.922 47.2344C289.771 47.4375 289.695 47.6562 289.695 47.8906H288.25C288.25 47.5885 288.328 47.2891 288.484 46.9922C288.641 46.6953 288.865 46.4271 289.156 46.1875C289.453 45.9427 289.807 45.75 290.219 45.6094C290.635 45.4635 291.099 45.3906 291.609 45.3906C292.224 45.3906 292.766 45.4948 293.234 45.7031C293.708 45.9115 294.078 46.2266 294.344 46.6484C294.615 47.0651 294.75 47.5885 294.75 48.2188V52.1562C294.75 52.4375 294.773 52.737 294.82 53.0547C294.872 53.3724 294.948 53.6458 295.047 53.875V54H293.539C293.466 53.8333 293.409 53.612 293.367 53.3359C293.326 53.0547 293.305 52.7943 293.305 52.5547ZM293.555 48.875L293.57 49.8906H292.109C291.698 49.8906 291.331 49.9245 291.008 49.9922C290.685 50.0547 290.414 50.151 290.195 50.2812C289.977 50.4115 289.81 50.5755 289.695 50.7734C289.581 50.9661 289.523 51.1927 289.523 51.4531C289.523 51.7188 289.583 51.9609 289.703 52.1797C289.823 52.3984 290.003 52.5729 290.242 52.7031C290.487 52.8281 290.786 52.8906 291.141 52.8906C291.583 52.8906 291.974 52.7969 292.312 52.6094C292.651 52.4219 292.919 52.1927 293.117 51.9219C293.32 51.651 293.43 51.388 293.445 51.1328L294.062 51.8281C294.026 52.0469 293.927 52.2891 293.766 52.5547C293.604 52.8203 293.388 53.0755 293.117 53.3203C292.852 53.5599 292.534 53.7604 292.164 53.9219C291.799 54.0781 291.388 54.1562 290.93 54.1562C290.357 54.1562 289.854 54.0443 289.422 53.8203C288.995 53.5964 288.661 53.2969 288.422 52.9219C288.188 52.5417 288.07 52.1172 288.07 51.6484C288.07 51.1953 288.159 50.7969 288.336 50.4531C288.513 50.1042 288.768 49.8151 289.102 49.5859C289.435 49.3516 289.836 49.1745 290.305 49.0547C290.773 48.9349 291.297 48.875 291.875 48.875H293.555ZM300.562 45.5469V46.6562H295.992V45.5469H300.562ZM297.539 43.4922H298.984V51.9062C298.984 52.1927 299.029 52.4089 299.117 52.5547C299.206 52.7005 299.32 52.7969 299.461 52.8438C299.602 52.8906 299.753 52.9141 299.914 52.9141C300.034 52.9141 300.159 52.9036 300.289 52.8828C300.424 52.8568 300.526 52.8359 300.594 52.8203L300.602 54C300.487 54.0365 300.336 54.0703 300.148 54.1016C299.966 54.138 299.745 54.1562 299.484 54.1562C299.13 54.1562 298.805 54.0859 298.508 53.9453C298.211 53.8047 297.974 53.5703 297.797 53.2422C297.625 52.9089 297.539 52.4609 297.539 51.8984V43.4922ZM311.555 52.3594V42H313.008V54H311.68L311.555 52.3594ZM305.867 49.8672V49.7031C305.867 49.0573 305.945 48.4714 306.102 47.9453C306.263 47.4141 306.49 46.9583 306.781 46.5781C307.078 46.1979 307.43 45.9062 307.836 45.7031C308.247 45.4948 308.706 45.3906 309.211 45.3906C309.742 45.3906 310.206 45.4844 310.602 45.6719C311.003 45.8542 311.341 46.1224 311.617 46.4766C311.898 46.8255 312.12 47.2474 312.281 47.7422C312.443 48.237 312.555 48.7969 312.617 49.4219V50.1406C312.56 50.7604 312.448 51.3177 312.281 51.8125C312.12 52.3073 311.898 52.7292 311.617 53.0781C311.341 53.4271 311.003 53.6953 310.602 53.8828C310.201 54.0651 309.732 54.1562 309.195 54.1562C308.701 54.1562 308.247 54.0495 307.836 53.8359C307.43 53.6224 307.078 53.3229 306.781 52.9375C306.49 52.5521 306.263 52.099 306.102 51.5781C305.945 51.0521 305.867 50.4818 305.867 49.8672ZM307.32 49.7031V49.8672C307.32 50.2891 307.362 50.6849 307.445 51.0547C307.534 51.4245 307.669 51.75 307.852 52.0312C308.034 52.3125 308.266 52.5339 308.547 52.6953C308.828 52.8516 309.164 52.9297 309.555 52.9297C310.034 52.9297 310.427 52.8281 310.734 52.625C311.047 52.4219 311.297 52.1536 311.484 51.8203C311.672 51.487 311.818 51.125 311.922 50.7344V48.8516C311.859 48.5651 311.768 48.2891 311.648 48.0234C311.534 47.7526 311.383 47.513 311.195 47.3047C311.013 47.0911 310.786 46.9219 310.516 46.7969C310.25 46.6719 309.935 46.6094 309.57 46.6094C309.174 46.6094 308.833 46.6927 308.547 46.8594C308.266 47.0208 308.034 47.2448 307.852 47.5312C307.669 47.8125 307.534 48.1406 307.445 48.5156C307.362 48.8854 307.32 49.2812 307.32 49.7031ZM314.875 49.8672V49.6875C314.875 49.0781 314.964 48.513 315.141 47.9922C315.318 47.4661 315.573 47.0104 315.906 46.625C316.24 46.2344 316.643 45.9323 317.117 45.7188C317.591 45.5 318.122 45.3906 318.711 45.3906C319.305 45.3906 319.839 45.5 320.312 45.7188C320.792 45.9323 321.198 46.2344 321.531 46.625C321.87 47.0104 322.128 47.4661 322.305 47.9922C322.482 48.513 322.57 49.0781 322.57 49.6875V49.8672C322.57 50.4766 322.482 51.0417 322.305 51.5625C322.128 52.0833 321.87 52.5391 321.531 52.9297C321.198 53.3151 320.794 53.6172 320.32 53.8359C319.852 54.0495 319.32 54.1562 318.727 54.1562C318.133 54.1562 317.599 54.0495 317.125 53.8359C316.651 53.6172 316.245 53.3151 315.906 52.9297C315.573 52.5391 315.318 52.0833 315.141 51.5625C314.964 51.0417 314.875 50.4766 314.875 49.8672ZM316.32 49.6875V49.8672C316.32 50.2891 316.37 50.6875 316.469 51.0625C316.568 51.4323 316.716 51.7604 316.914 52.0469C317.117 52.3333 317.37 52.5599 317.672 52.7266C317.974 52.888 318.326 52.9688 318.727 52.9688C319.122 52.9688 319.469 52.888 319.766 52.7266C320.068 52.5599 320.318 52.3333 320.516 52.0469C320.714 51.7604 320.862 51.4323 320.961 51.0625C321.065 50.6875 321.117 50.2891 321.117 49.8672V49.6875C321.117 49.2708 321.065 48.8776 320.961 48.5078C320.862 48.1328 320.711 47.8021 320.508 47.5156C320.31 47.224 320.06 46.9948 319.758 46.8281C319.461 46.6615 319.112 46.5781 318.711 46.5781C318.315 46.5781 317.966 46.6615 317.664 46.8281C317.367 46.9948 317.117 47.224 316.914 47.5156C316.716 47.8021 316.568 48.1328 316.469 48.5078C316.37 48.8776 316.32 49.2708 316.32 49.6875ZM327.891 54.1562C327.302 54.1562 326.768 54.0573 326.289 53.8594C325.815 53.6562 325.406 53.3724 325.062 53.0078C324.724 52.6432 324.464 52.2109 324.281 51.7109C324.099 51.2109 324.008 50.6641 324.008 50.0703V49.7422C324.008 49.0547 324.109 48.4427 324.312 47.9062C324.516 47.3646 324.792 46.9062 325.141 46.5312C325.49 46.1562 325.885 45.8724 326.328 45.6797C326.771 45.487 327.229 45.3906 327.703 45.3906C328.307 45.3906 328.828 45.4948 329.266 45.7031C329.708 45.9115 330.07 46.2031 330.352 46.5781C330.633 46.9479 330.841 47.3854 330.977 47.8906C331.112 48.3906 331.18 48.9375 331.18 49.5312V50.1797H324.867V49H329.734V48.8906C329.714 48.5156 329.635 48.151 329.5 47.7969C329.37 47.4427 329.161 47.151 328.875 46.9219C328.589 46.6927 328.198 46.5781 327.703 46.5781C327.375 46.5781 327.073 46.6484 326.797 46.7891C326.521 46.9245 326.284 47.1276 326.086 47.3984C325.888 47.6693 325.734 48 325.625 48.3906C325.516 48.7812 325.461 49.2318 325.461 49.7422V50.0703C325.461 50.4714 325.516 50.849 325.625 51.2031C325.74 51.5521 325.904 51.8594 326.117 52.125C326.336 52.3906 326.599 52.599 326.906 52.75C327.219 52.901 327.573 52.9766 327.969 52.9766C328.479 52.9766 328.911 52.8724 329.266 52.6641C329.62 52.4557 329.93 52.1771 330.195 51.8281L331.07 52.5234C330.888 52.7995 330.656 53.0625 330.375 53.3125C330.094 53.5625 329.747 53.7656 329.336 53.9219C328.93 54.0781 328.448 54.1562 327.891 54.1562ZM337.789 51.7578C337.789 51.5495 337.742 51.3568 337.648 51.1797C337.56 50.9974 337.375 50.8333 337.094 50.6875C336.818 50.5365 336.401 50.4062 335.844 50.2969C335.375 50.1979 334.951 50.0807 334.57 49.9453C334.195 49.8099 333.875 49.6458 333.609 49.4531C333.349 49.2604 333.148 49.0339 333.008 48.7734C332.867 48.513 332.797 48.2083 332.797 47.8594C332.797 47.526 332.87 47.2109 333.016 46.9141C333.167 46.6172 333.378 46.3542 333.648 46.125C333.924 45.8958 334.255 45.7161 334.641 45.5859C335.026 45.4557 335.456 45.3906 335.93 45.3906C336.607 45.3906 337.185 45.5104 337.664 45.75C338.143 45.9896 338.51 46.3099 338.766 46.7109C339.021 47.1068 339.148 47.5469 339.148 48.0312H337.703C337.703 47.7969 337.633 47.5703 337.492 47.3516C337.357 47.1276 337.156 46.9427 336.891 46.7969C336.63 46.651 336.31 46.5781 335.93 46.5781C335.529 46.5781 335.203 46.6406 334.953 46.7656C334.708 46.8854 334.529 47.0391 334.414 47.2266C334.305 47.4141 334.25 47.612 334.25 47.8203C334.25 47.9766 334.276 48.1172 334.328 48.2422C334.385 48.362 334.484 48.474 334.625 48.5781C334.766 48.6771 334.964 48.7708 335.219 48.8594C335.474 48.9479 335.799 49.0365 336.195 49.125C336.888 49.2812 337.458 49.4688 337.906 49.6875C338.354 49.9062 338.688 50.1745 338.906 50.4922C339.125 50.8099 339.234 51.1953 339.234 51.6484C339.234 52.0182 339.156 52.3568 339 52.6641C338.849 52.9714 338.628 53.237 338.336 53.4609C338.049 53.6797 337.706 53.8516 337.305 53.9766C336.909 54.0964 336.464 54.1562 335.969 54.1562C335.224 54.1562 334.594 54.0234 334.078 53.7578C333.562 53.4922 333.172 53.1484 332.906 52.7266C332.641 52.3047 332.508 51.8594 332.508 51.3906H333.961C333.982 51.7865 334.096 52.1016 334.305 52.3359C334.513 52.5651 334.768 52.7292 335.07 52.8281C335.372 52.9219 335.672 52.9688 335.969 52.9688C336.365 52.9688 336.695 52.9167 336.961 52.8125C337.232 52.7083 337.438 52.5651 337.578 52.3828C337.719 52.2005 337.789 51.9922 337.789 51.7578ZM346.547 47.3516V54H345.102V45.5469H346.469L346.547 47.3516ZM346.203 49.4531L345.602 49.4297C345.607 48.8516 345.693 48.3177 345.859 47.8281C346.026 47.3333 346.26 46.9036 346.562 46.5391C346.865 46.1745 347.224 45.8932 347.641 45.6953C348.062 45.4922 348.529 45.3906 349.039 45.3906C349.456 45.3906 349.831 45.4479 350.164 45.5625C350.497 45.6719 350.781 45.849 351.016 46.0938C351.255 46.3385 351.438 46.6562 351.562 47.0469C351.688 47.4323 351.75 47.9036 351.75 48.4609V54H350.297V48.4453C350.297 48.0026 350.232 47.6484 350.102 47.3828C349.971 47.112 349.781 46.9167 349.531 46.7969C349.281 46.6719 348.974 46.6094 348.609 46.6094C348.25 46.6094 347.922 46.6849 347.625 46.8359C347.333 46.987 347.081 47.1953 346.867 47.4609C346.659 47.7266 346.495 48.0312 346.375 48.375C346.26 48.7135 346.203 49.0729 346.203 49.4531ZM353.562 49.8672V49.6875C353.562 49.0781 353.651 48.513 353.828 47.9922C354.005 47.4661 354.26 47.0104 354.594 46.625C354.927 46.2344 355.331 45.9323 355.805 45.7188C356.279 45.5 356.81 45.3906 357.398 45.3906C357.992 45.3906 358.526 45.5 359 45.7188C359.479 45.9323 359.885 46.2344 360.219 46.625C360.557 47.0104 360.815 47.4661 360.992 47.9922C361.169 48.513 361.258 49.0781 361.258 49.6875V49.8672C361.258 50.4766 361.169 51.0417 360.992 51.5625C360.815 52.0833 360.557 52.5391 360.219 52.9297C359.885 53.3151 359.482 53.6172 359.008 53.8359C358.539 54.0495 358.008 54.1562 357.414 54.1562C356.82 54.1562 356.286 54.0495 355.812 53.8359C355.339 53.6172 354.932 53.3151 354.594 52.9297C354.26 52.5391 354.005 52.0833 353.828 51.5625C353.651 51.0417 353.562 50.4766 353.562 49.8672ZM355.008 49.6875V49.8672C355.008 50.2891 355.057 50.6875 355.156 51.0625C355.255 51.4323 355.404 51.7604 355.602 52.0469C355.805 52.3333 356.057 52.5599 356.359 52.7266C356.661 52.888 357.013 52.9688 357.414 52.9688C357.81 52.9688 358.156 52.888 358.453 52.7266C358.755 52.5599 359.005 52.3333 359.203 52.0469C359.401 51.7604 359.549 51.4323 359.648 51.0625C359.753 50.6875 359.805 50.2891 359.805 49.8672V49.6875C359.805 49.2708 359.753 48.8776 359.648 48.5078C359.549 48.1328 359.398 47.8021 359.195 47.5156C358.997 47.224 358.747 46.9948 358.445 46.8281C358.148 46.6615 357.799 46.5781 357.398 46.5781C357.003 46.5781 356.654 46.6615 356.352 46.8281C356.055 46.9948 355.805 47.224 355.602 47.5156C355.404 47.8021 355.255 48.1328 355.156 48.5078C355.057 48.8776 355.008 49.2708 355.008 49.6875ZM366.609 45.5469V46.6562H362.039V45.5469H366.609ZM363.586 43.4922H365.031V51.9062C365.031 52.1927 365.076 52.4089 365.164 52.5547C365.253 52.7005 365.367 52.7969 365.508 52.8438C365.648 52.8906 365.799 52.9141 365.961 52.9141C366.081 52.9141 366.206 52.9036 366.336 52.8828C366.471 52.8568 366.573 52.8359 366.641 52.8203L366.648 54C366.534 54.0365 366.383 54.0703 366.195 54.1016C366.013 54.138 365.792 54.1562 365.531 54.1562C365.177 54.1562 364.852 54.0859 364.555 53.9453C364.258 53.8047 364.021 53.5703 363.844 53.2422C363.672 52.9089 363.586 52.4609 363.586 51.8984V43.4922ZM375.656 52.9688C376 52.9688 376.318 52.8984 376.609 52.7578C376.901 52.6172 377.141 52.4245 377.328 52.1797C377.516 51.9297 377.622 51.6458 377.648 51.3281H379.023C378.997 51.8281 378.828 52.2943 378.516 52.7266C378.208 53.1536 377.805 53.5 377.305 53.7656C376.805 54.026 376.255 54.1562 375.656 54.1562C375.021 54.1562 374.466 54.0443 373.992 53.8203C373.523 53.5964 373.133 53.2891 372.82 52.8984C372.513 52.5078 372.281 52.0599 372.125 51.5547C371.974 51.0443 371.898 50.5052 371.898 49.9375V49.6094C371.898 49.0417 371.974 48.5052 372.125 48C372.281 47.4896 372.513 47.0391 372.82 46.6484C373.133 46.2578 373.523 45.9505 373.992 45.7266C374.466 45.5026 375.021 45.3906 375.656 45.3906C376.318 45.3906 376.896 45.526 377.391 45.7969C377.885 46.0625 378.273 46.4271 378.555 46.8906C378.841 47.349 378.997 47.8698 379.023 48.4531H377.648C377.622 48.1042 377.523 47.7891 377.352 47.5078C377.185 47.2266 376.956 47.0026 376.664 46.8359C376.378 46.6641 376.042 46.5781 375.656 46.5781C375.214 46.5781 374.841 46.6667 374.539 46.8438C374.242 47.0156 374.005 47.25 373.828 47.5469C373.656 47.8385 373.531 48.1641 373.453 48.5234C373.38 48.8776 373.344 49.2396 373.344 49.6094V49.9375C373.344 50.3073 373.38 50.6719 373.453 51.0312C373.526 51.3906 373.648 51.7161 373.82 52.0078C373.997 52.2995 374.234 52.5339 374.531 52.7109C374.833 52.8828 375.208 52.9688 375.656 52.9688ZM382.094 42V54H380.648V42H382.094ZM381.75 49.4531L381.148 49.4297C381.154 48.8516 381.24 48.3177 381.406 47.8281C381.573 47.3333 381.807 46.9036 382.109 46.5391C382.411 46.1745 382.771 45.8932 383.188 45.6953C383.609 45.4922 384.076 45.3906 384.586 45.3906C385.003 45.3906 385.378 45.4479 385.711 45.5625C386.044 45.6719 386.328 45.849 386.562 46.0938C386.802 46.3385 386.984 46.6562 387.109 47.0469C387.234 47.4323 387.297 47.9036 387.297 48.4609V54H385.844V48.4453C385.844 48.0026 385.779 47.6484 385.648 47.3828C385.518 47.112 385.328 46.9167 385.078 46.7969C384.828 46.6719 384.521 46.6094 384.156 46.6094C383.797 46.6094 383.469 46.6849 383.172 46.8359C382.88 46.987 382.628 47.1953 382.414 47.4609C382.206 47.7266 382.042 48.0312 381.922 48.375C381.807 48.7135 381.75 49.0729 381.75 49.4531ZM394.445 52.5547V48.2031C394.445 47.8698 394.378 47.5807 394.242 47.3359C394.112 47.0859 393.914 46.8932 393.648 46.7578C393.383 46.6224 393.055 46.5547 392.664 46.5547C392.299 46.5547 391.979 46.6172 391.703 46.7422C391.432 46.8672 391.219 47.0312 391.062 47.2344C390.911 47.4375 390.836 47.6562 390.836 47.8906H389.391C389.391 47.5885 389.469 47.2891 389.625 46.9922C389.781 46.6953 390.005 46.4271 390.297 46.1875C390.594 45.9427 390.948 45.75 391.359 45.6094C391.776 45.4635 392.24 45.3906 392.75 45.3906C393.365 45.3906 393.906 45.4948 394.375 45.7031C394.849 45.9115 395.219 46.2266 395.484 46.6484C395.755 47.0651 395.891 47.5885 395.891 48.2188V52.1562C395.891 52.4375 395.914 52.737 395.961 53.0547C396.013 53.3724 396.089 53.6458 396.188 53.875V54H394.68C394.607 53.8333 394.549 53.612 394.508 53.3359C394.466 53.0547 394.445 52.7943 394.445 52.5547ZM394.695 48.875L394.711 49.8906H393.25C392.839 49.8906 392.471 49.9245 392.148 49.9922C391.826 50.0547 391.555 50.151 391.336 50.2812C391.117 50.4115 390.951 50.5755 390.836 50.7734C390.721 50.9661 390.664 51.1927 390.664 51.4531C390.664 51.7188 390.724 51.9609 390.844 52.1797C390.964 52.3984 391.143 52.5729 391.383 52.7031C391.628 52.8281 391.927 52.8906 392.281 52.8906C392.724 52.8906 393.115 52.7969 393.453 52.6094C393.792 52.4219 394.06 52.1927 394.258 51.9219C394.461 51.651 394.57 51.388 394.586 51.1328L395.203 51.8281C395.167 52.0469 395.068 52.2891 394.906 52.5547C394.745 52.8203 394.529 53.0755 394.258 53.3203C393.992 53.5599 393.674 53.7604 393.305 53.9219C392.94 54.0781 392.529 54.1562 392.07 54.1562C391.497 54.1562 390.995 54.0443 390.562 53.8203C390.135 53.5964 389.802 53.2969 389.562 52.9219C389.328 52.5417 389.211 52.1172 389.211 51.6484C389.211 51.1953 389.299 50.7969 389.477 50.4531C389.654 50.1042 389.909 49.8151 390.242 49.5859C390.576 49.3516 390.977 49.1745 391.445 49.0547C391.914 48.9349 392.438 48.875 393.016 48.875H394.695ZM399.609 47.3516V54H398.164V45.5469H399.531L399.609 47.3516ZM399.266 49.4531L398.664 49.4297C398.669 48.8516 398.755 48.3177 398.922 47.8281C399.089 47.3333 399.323 46.9036 399.625 46.5391C399.927 46.1745 400.286 45.8932 400.703 45.6953C401.125 45.4922 401.591 45.3906 402.102 45.3906C402.518 45.3906 402.893 45.4479 403.227 45.5625C403.56 45.6719 403.844 45.849 404.078 46.0938C404.318 46.3385 404.5 46.6562 404.625 47.0469C404.75 47.4323 404.812 47.9036 404.812 48.4609V54H403.359V48.4453C403.359 48.0026 403.294 47.6484 403.164 47.3828C403.034 47.112 402.844 46.9167 402.594 46.7969C402.344 46.6719 402.036 46.6094 401.672 46.6094C401.312 46.6094 400.984 46.6849 400.688 46.8359C400.396 46.987 400.143 47.1953 399.93 47.4609C399.721 47.7266 399.557 48.0312 399.438 48.375C399.323 48.7135 399.266 49.0729 399.266 49.4531ZM412.484 45.5469H413.797V53.8203C413.797 54.5651 413.646 55.2005 413.344 55.7266C413.042 56.2526 412.62 56.651 412.078 56.9219C411.542 57.1979 410.922 57.3359 410.219 57.3359C409.927 57.3359 409.583 57.2891 409.188 57.1953C408.797 57.1068 408.411 56.9531 408.031 56.7344C407.656 56.5208 407.341 56.2318 407.086 55.8672L407.844 55.0078C408.198 55.4349 408.568 55.7318 408.953 55.8984C409.344 56.0651 409.729 56.1484 410.109 56.1484C410.568 56.1484 410.964 56.0625 411.297 55.8906C411.63 55.7188 411.888 55.4635 412.07 55.125C412.258 54.7917 412.352 54.3802 412.352 53.8906V47.4062L412.484 45.5469ZM406.664 49.8672V49.7031C406.664 49.0573 406.74 48.4714 406.891 47.9453C407.047 47.4141 407.268 46.9583 407.555 46.5781C407.846 46.1979 408.198 45.9062 408.609 45.7031C409.021 45.4948 409.484 45.3906 410 45.3906C410.531 45.3906 410.995 45.4844 411.391 45.6719C411.792 45.8542 412.13 46.1224 412.406 46.4766C412.688 46.8255 412.909 47.2474 413.07 47.7422C413.232 48.237 413.344 48.7969 413.406 49.4219V50.1406C413.349 50.7604 413.237 51.3177 413.07 51.8125C412.909 52.3073 412.688 52.7292 412.406 53.0781C412.13 53.4271 411.792 53.6953 411.391 53.8828C410.99 54.0651 410.521 54.1562 409.984 54.1562C409.479 54.1562 409.021 54.0495 408.609 53.8359C408.203 53.6224 407.854 53.3229 407.562 52.9375C407.271 52.5521 407.047 52.099 406.891 51.5781C406.74 51.0521 406.664 50.4818 406.664 49.8672ZM408.109 49.7031V49.8672C408.109 50.2891 408.151 50.6849 408.234 51.0547C408.323 51.4245 408.456 51.75 408.633 52.0312C408.815 52.3125 409.047 52.5339 409.328 52.6953C409.609 52.8516 409.945 52.9297 410.336 52.9297C410.815 52.9297 411.211 52.8281 411.523 52.625C411.836 52.4219 412.083 52.1536 412.266 51.8203C412.453 51.487 412.599 51.125 412.703 50.7344V48.8516C412.646 48.5651 412.557 48.2891 412.438 48.0234C412.323 47.7526 412.172 47.513 411.984 47.3047C411.802 47.0911 411.576 46.9219 411.305 46.7969C411.034 46.6719 410.716 46.6094 410.352 46.6094C409.956 46.6094 409.615 46.6927 409.328 46.8594C409.047 47.0208 408.815 47.2448 408.633 47.5312C408.456 47.8125 408.323 48.1406 408.234 48.5156C408.151 48.8854 408.109 49.2812 408.109 49.7031ZM419.5 54.1562C418.911 54.1562 418.378 54.0573 417.898 53.8594C417.424 53.6562 417.016 53.3724 416.672 53.0078C416.333 52.6432 416.073 52.2109 415.891 51.7109C415.708 51.2109 415.617 50.6641 415.617 50.0703V49.7422C415.617 49.0547 415.719 48.4427 415.922 47.9062C416.125 47.3646 416.401 46.9062 416.75 46.5312C417.099 46.1562 417.495 45.8724 417.938 45.6797C418.38 45.487 418.839 45.3906 419.312 45.3906C419.917 45.3906 420.438 45.4948 420.875 45.7031C421.318 45.9115 421.68 46.2031 421.961 46.5781C422.242 46.9479 422.451 47.3854 422.586 47.8906C422.721 48.3906 422.789 48.9375 422.789 49.5312V50.1797H416.477V49H421.344V48.8906C421.323 48.5156 421.245 48.151 421.109 47.7969C420.979 47.4427 420.771 47.151 420.484 46.9219C420.198 46.6927 419.807 46.5781 419.312 46.5781C418.984 46.5781 418.682 46.6484 418.406 46.7891C418.13 46.9245 417.893 47.1276 417.695 47.3984C417.497 47.6693 417.344 48 417.234 48.3906C417.125 48.7812 417.07 49.2318 417.07 49.7422V50.0703C417.07 50.4714 417.125 50.849 417.234 51.2031C417.349 51.5521 417.513 51.8594 417.727 52.125C417.945 52.3906 418.208 52.599 418.516 52.75C418.828 52.901 419.182 52.9766 419.578 52.9766C420.089 52.9766 420.521 52.8724 420.875 52.6641C421.229 52.4557 421.539 52.1771 421.805 51.8281L422.68 52.5234C422.497 52.7995 422.266 53.0625 421.984 53.3125C421.703 53.5625 421.357 53.7656 420.945 53.9219C420.539 54.0781 420.057 54.1562 419.5 54.1562Z" fill="black"/>
<circle cx="102.5" cy="195.5" r="98" fill="white" stroke="#22A960" stroke-width="9"/>
<circle cx="80" cy="34.5" r="29.5" fill="#22A960"/>
<path d="M73.9421 46.336C72.7741 46.336 71.8061 46.096 71.0381 45.616C70.2701 45.136 69.6941 44.48 69.3101 43.648C68.9261 42.8 68.7341 41.824 68.7341 40.72V32.008C68.7341 30.872 68.9181 29.88 69.2861 29.032C69.6541 28.168 70.2221 27.496 70.9901 27.016C71.7581 26.536 72.7421 26.296 73.9421 26.296C75.1261 26.296 76.0941 26.536 76.8461 27.016C77.6141 27.496 78.1821 28.168 78.5501 29.032C78.9181 29.88 79.1021 30.872 79.1021 32.008V40.72C79.1021 41.824 78.9101 42.8 78.5261 43.648C78.1421 44.48 77.5661 45.136 76.7981 45.616C76.0301 46.096 75.0781 46.336 73.9421 46.336ZM73.9421 43.072C74.3741 43.072 74.6861 42.936 74.8781 42.664C75.0701 42.392 75.1981 42.072 75.2621 41.704C75.3261 41.32 75.3581 40.968 75.3581 40.648V32.08C75.3581 31.728 75.3261 31.36 75.2621 30.976C75.2141 30.592 75.0941 30.264 74.9021 29.992C74.7101 29.704 74.3901 29.56 73.9421 29.56C73.4941 29.56 73.1661 29.704 72.9581 29.992C72.7661 30.264 72.6381 30.592 72.5741 30.976C72.5261 31.36 72.5021 31.728 72.5021 32.08V40.648C72.5021 40.968 72.5341 41.32 72.5981 41.704C72.6621 42.072 72.7981 42.392 73.0061 42.664C73.2141 42.936 73.5261 43.072 73.9421 43.072ZM86.5893 46.336C85.2933 46.336 84.2613 46.096 83.4933 45.616C82.7413 45.12 82.1973 44.432 81.8613 43.552C81.5253 42.656 81.3573 41.632 81.3573 40.48V39.784H85.0533C85.0533 39.816 85.0533 39.904 85.0533 40.048C85.0533 40.176 85.0533 40.304 85.0533 40.432C85.0693 41.056 85.1173 41.576 85.1973 41.992C85.2933 42.392 85.4533 42.696 85.6773 42.904C85.9013 43.112 86.2213 43.216 86.6373 43.216C87.0693 43.216 87.3893 43.112 87.5973 42.904C87.8053 42.68 87.9493 42.36 88.0293 41.944C88.1093 41.528 88.1493 41.016 88.1493 40.408C88.1493 39.432 88.0053 38.68 87.7173 38.152C87.4293 37.608 86.8533 37.328 85.9893 37.312C85.9733 37.312 85.8933 37.312 85.7493 37.312C85.6053 37.312 85.4693 37.312 85.3413 37.312V34.576C85.4373 34.576 85.5333 34.576 85.6293 34.576C85.7413 34.576 85.8373 34.576 85.9173 34.576C86.7813 34.576 87.3653 34.344 87.6693 33.88C87.9893 33.416 88.1493 32.688 88.1493 31.696C88.1493 30.928 88.0373 30.328 87.8133 29.896C87.5893 29.464 87.1733 29.248 86.5653 29.248C85.9573 29.248 85.5573 29.488 85.3653 29.968C85.1733 30.448 85.0693 31.064 85.0533 31.816C85.0533 31.944 85.0533 32.088 85.0533 32.248C85.0533 32.392 85.0533 32.536 85.0533 32.68H81.3573V31.624C81.3573 30.488 81.5653 29.528 81.9813 28.744C82.3973 27.944 82.9893 27.336 83.7573 26.92C84.5253 26.504 85.4613 26.296 86.5653 26.296C87.6693 26.296 88.6133 26.496 89.3973 26.896C90.1813 27.296 90.7733 27.88 91.1733 28.648C91.5893 29.416 91.7973 30.368 91.7973 31.504C91.7973 32.64 91.5573 33.584 91.0773 34.336C90.6133 35.088 90.0373 35.568 89.3493 35.776C89.8293 35.936 90.2533 36.2 90.6213 36.568C90.9893 36.936 91.2773 37.432 91.4853 38.056C91.6933 38.664 91.7973 39.424 91.7973 40.336C91.7973 41.504 91.6293 42.544 91.2933 43.456C90.9573 44.352 90.4053 45.056 89.6373 45.568C88.8693 46.08 87.8533 46.336 86.5893 46.336Z" fill="white"/>
<circle cx="103" cy="195" r="80" fill="#22A960"/>
</svg>
