<svg width="362" height="302" viewBox="0 0 362 302" fill="none" xmlns="http://www.w3.org/2000/svg">
<path d="M75.7992 26.288C74.4872 26.288 73.4472 26.016 72.6792 25.472C71.9112 24.912 71.3592 24.128 71.0232 23.12C70.7032 22.096 70.5432 20.912 70.5432 19.568V13.064C70.5432 11.672 70.7112 10.472 71.0472 9.464C71.3832 8.456 71.9672 7.68 72.7992 7.136C73.6472 6.592 74.7912 6.32 76.2312 6.32C77.6232 6.32 78.7192 6.552 79.5192 7.016C80.3352 7.48 80.9192 8.136 81.2712 8.984C81.6232 9.832 81.7992 10.84 81.7992 12.008V13.136H77.9352V11.768C77.9352 11.256 77.9032 10.808 77.8392 10.424C77.7752 10.024 77.6232 9.712 77.3832 9.488C77.1592 9.264 76.7912 9.152 76.2792 9.152C75.7512 9.152 75.3672 9.288 75.1272 9.56C74.8872 9.832 74.7352 10.184 74.6712 10.616C74.6072 11.032 74.5752 11.48 74.5752 11.96V20.576C74.5752 21.12 74.6232 21.608 74.7192 22.04C74.8152 22.472 74.9912 22.808 75.2472 23.048C75.5192 23.288 75.9032 23.408 76.3992 23.408C76.8952 23.408 77.2792 23.28 77.5512 23.024C77.8232 22.768 78.0072 22.424 78.1032 21.992C78.2152 21.544 78.2712 21.04 78.2712 20.48V18.416H76.3752V16.016H81.8472V26H79.2552L79.0152 24.248C78.7592 24.84 78.3752 25.328 77.8632 25.712C77.3512 26.096 76.6632 26.288 75.7992 26.288ZM88.7176 26.24C87.6936 26.24 86.8376 26.056 86.1496 25.688C85.4616 25.304 84.9416 24.752 84.5896 24.032C84.2376 23.296 84.0616 22.416 84.0616 21.392V16.736C84.0616 15.68 84.2376 14.8 84.5896 14.096C84.9416 13.376 85.4696 12.832 86.1736 12.464C86.8776 12.08 87.7256 11.888 88.7176 11.888C89.7736 11.888 90.6296 12.08 91.2856 12.464C91.9416 12.848 92.4216 13.408 92.7256 14.144C93.0456 14.88 93.2056 15.776 93.2056 16.832V19.256H87.6376V21.944C87.6376 22.344 87.6776 22.672 87.7576 22.928C87.8536 23.184 87.9816 23.368 88.1416 23.48C88.3016 23.576 88.5016 23.624 88.7416 23.624C88.9656 23.624 89.1576 23.576 89.3176 23.48C89.4936 23.368 89.6216 23.2 89.7016 22.976C89.7816 22.752 89.8216 22.456 89.8216 22.088V20.768H93.1816V21.92C93.1816 23.328 92.7976 24.4 92.0296 25.136C91.2616 25.872 90.1576 26.24 88.7176 26.24ZM87.6376 17.528H89.8216V16.16C89.8216 15.76 89.7816 15.44 89.7016 15.2C89.6216 14.944 89.4936 14.768 89.3176 14.672C89.1576 14.56 88.9496 14.504 88.6936 14.504C88.4536 14.504 88.2536 14.56 88.0936 14.672C87.9496 14.784 87.8376 14.984 87.7576 15.272C87.6776 15.544 87.6376 15.936 87.6376 16.448V17.528ZM99.5406 26.144C98.5806 26.144 97.8286 26 97.2846 25.712C96.7406 25.408 96.3646 24.976 96.1566 24.416C95.9486 23.856 95.8446 23.176 95.8446 22.376V14.504H94.4766V12.128H95.8446V7.928H99.5166V12.128H101.533V14.504H99.5166V22.04C99.5166 22.472 99.6206 22.784 99.8286 22.976C100.053 23.152 100.357 23.24 100.741 23.24C100.933 23.24 101.117 23.232 101.293 23.216C101.469 23.184 101.629 23.16 101.773 23.144V25.976C101.549 26.008 101.229 26.04 100.813 26.072C100.397 26.12 99.9726 26.144 99.5406 26.144ZM109.855 26V6.56H118.063V9.248H113.815V14.504H117.415V17.264H113.815V26H109.855ZM119.882 26V12.128H123.506V26H119.882ZM119.858 9.848V7.136H123.506V9.848H119.858ZM125.014 26L127.99 18.464L125.134 12.128H128.758L130.366 15.68L131.782 12.128H134.686L131.854 18.968L134.998 26H131.35L129.574 21.992L128.062 26H125.014ZM140.608 26.24C139.584 26.24 138.728 26.056 138.04 25.688C137.352 25.304 136.832 24.752 136.48 24.032C136.128 23.296 135.952 22.416 135.952 21.392V16.736C135.952 15.68 136.128 14.8 136.48 14.096C136.832 13.376 137.36 12.832 138.064 12.464C138.768 12.08 139.616 11.888 140.608 11.888C141.664 11.888 142.52 12.08 143.176 12.464C143.832 12.848 144.312 13.408 144.616 14.144C144.936 14.88 145.096 15.776 145.096 16.832V19.256H139.528V21.944C139.528 22.344 139.568 22.672 139.648 22.928C139.744 23.184 139.872 23.368 140.032 23.48C140.192 23.576 140.392 23.624 140.632 23.624C140.856 23.624 141.048 23.576 141.208 23.48C141.384 23.368 141.512 23.2 141.592 22.976C141.672 22.752 141.712 22.456 141.712 22.088V20.768H145.072V21.92C145.072 23.328 144.688 24.4 143.92 25.136C143.152 25.872 142.048 26.24 140.608 26.24ZM139.528 17.528H141.712V16.16C141.712 15.76 141.672 15.44 141.592 15.2C141.512 14.944 141.384 14.768 141.208 14.672C141.048 14.56 140.84 14.504 140.584 14.504C140.344 14.504 140.144 14.56 139.984 14.672C139.84 14.784 139.728 14.984 139.648 15.272C139.568 15.544 139.528 15.936 139.528 16.448V17.528ZM150.327 26.24C149.271 26.24 148.455 25.864 147.879 25.112C147.319 24.36 147.039 23.208 147.039 21.656V16.568C147.039 15.672 147.151 14.872 147.375 14.168C147.615 13.464 147.975 12.912 148.455 12.512C148.935 12.096 149.551 11.888 150.303 11.888C150.799 11.888 151.271 11.992 151.719 12.2C152.167 12.408 152.575 12.672 152.943 12.992V6.56H156.567V26H152.943V24.968C152.543 25.352 152.119 25.664 151.671 25.904C151.239 26.128 150.791 26.24 150.327 26.24ZM151.791 23.84C151.951 23.84 152.127 23.808 152.319 23.744C152.527 23.664 152.735 23.56 152.943 23.432V14.6C152.767 14.504 152.583 14.424 152.391 14.36C152.199 14.28 152.007 14.24 151.815 14.24C151.399 14.24 151.103 14.416 150.927 14.768C150.767 15.12 150.687 15.544 150.687 16.04V21.896C150.687 22.264 150.719 22.6 150.783 22.904C150.847 23.192 150.959 23.424 151.119 23.6C151.279 23.76 151.503 23.84 151.791 23.84ZM174.981 29.84C174.613 29.664 174.189 29.392 173.709 29.024C173.229 28.656 172.757 28.224 172.293 27.728C171.829 27.248 171.437 26.752 171.117 26.24C171.053 26.256 170.981 26.264 170.901 26.264C170.837 26.264 170.765 26.264 170.685 26.264C169.261 26.264 168.133 26.008 167.301 25.496C166.469 24.984 165.869 24.256 165.501 23.312C165.149 22.352 164.973 21.208 164.973 19.88V12.632C164.973 11.304 165.149 10.168 165.501 9.224C165.869 8.28 166.469 7.56 167.301 7.064C168.133 6.568 169.261 6.32 170.685 6.32C172.125 6.32 173.261 6.576 174.093 7.088C174.941 7.584 175.541 8.304 175.893 9.248C176.261 10.176 176.445 11.304 176.445 12.632V19.88C176.445 20.808 176.357 21.648 176.181 22.4C176.021 23.136 175.749 23.776 175.365 24.32C174.981 24.864 174.469 25.296 173.829 25.616C174.037 25.84 174.253 26.064 174.477 26.288C174.701 26.512 174.925 26.72 175.149 26.912C175.373 27.104 175.589 27.264 175.797 27.392L174.981 29.84ZM170.685 23.408C171.197 23.408 171.573 23.296 171.813 23.072C172.053 22.832 172.213 22.52 172.293 22.136C172.373 21.736 172.413 21.312 172.413 20.864V11.672C172.413 11.224 172.373 10.808 172.293 10.424C172.213 10.04 172.053 9.736 171.813 9.512C171.573 9.272 171.197 9.152 170.685 9.152C170.189 9.152 169.821 9.272 169.581 9.512C169.341 9.736 169.181 10.04 169.101 10.424C169.037 10.808 169.005 11.224 169.005 11.672V20.864C169.005 21.312 169.037 21.736 169.101 22.136C169.181 22.52 169.341 22.832 169.581 23.072C169.821 23.296 170.189 23.408 170.685 23.408ZM183.265 26.24C182.273 26.24 181.425 26.064 180.721 25.712C180.017 25.344 179.481 24.816 179.113 24.128C178.761 23.44 178.585 22.584 178.585 21.56V16.568C178.585 15.544 178.761 14.688 179.113 14C179.481 13.312 180.017 12.792 180.721 12.44C181.425 12.072 182.273 11.888 183.265 11.888C184.257 11.888 185.105 12.072 185.809 12.44C186.513 12.792 187.049 13.312 187.417 14C187.785 14.688 187.969 15.544 187.969 16.568V21.56C187.969 22.584 187.785 23.44 187.417 24.128C187.049 24.816 186.513 25.344 185.809 25.712C185.105 26.064 184.257 26.24 183.265 26.24ZM183.289 23.792C183.593 23.792 183.825 23.712 183.985 23.552C184.145 23.376 184.249 23.144 184.297 22.856C184.345 22.552 184.369 22.208 184.369 21.824V16.328C184.369 15.928 184.345 15.584 184.297 15.296C184.249 15.008 184.145 14.776 183.985 14.6C183.825 14.424 183.593 14.336 183.289 14.336C182.985 14.336 182.753 14.424 182.593 14.6C182.433 14.776 182.321 15.008 182.257 15.296C182.209 15.584 182.185 15.928 182.185 16.328V21.824C182.185 22.208 182.209 22.552 182.257 22.856C182.321 23.144 182.433 23.376 182.593 23.552C182.753 23.712 182.985 23.792 183.289 23.792ZM192.522 26.24C191.962 26.24 191.49 26.096 191.106 25.808C190.738 25.52 190.466 25.136 190.29 24.656C190.114 24.176 190.026 23.648 190.026 23.072V12.128H193.65V22.544C193.65 22.928 193.714 23.224 193.842 23.432C193.97 23.624 194.202 23.72 194.538 23.72C194.73 23.72 194.93 23.672 195.138 23.576C195.362 23.464 195.586 23.336 195.81 23.192V12.128H199.434V26H195.81V24.704C195.33 25.168 194.81 25.544 194.25 25.832C193.706 26.104 193.13 26.24 192.522 26.24ZM206.088 26.144C205.128 26.144 204.376 26 203.832 25.712C203.288 25.408 202.912 24.976 202.704 24.416C202.496 23.856 202.392 23.176 202.392 22.376V14.504H201.024V12.128H202.392V7.928H206.064V12.128H208.08V14.504H206.064V22.04C206.064 22.472 206.168 22.784 206.376 22.976C206.6 23.152 206.904 23.24 207.288 23.24C207.48 23.24 207.664 23.232 207.84 23.216C208.016 23.184 208.176 23.16 208.32 23.144V25.976C208.096 26.008 207.776 26.04 207.36 26.072C206.944 26.12 206.52 26.144 206.088 26.144ZM214.554 26.24C213.53 26.24 212.674 26.056 211.986 25.688C211.298 25.304 210.778 24.752 210.426 24.032C210.074 23.296 209.898 22.416 209.898 21.392V16.736C209.898 15.68 210.074 14.8 210.426 14.096C210.778 13.376 211.306 12.832 212.01 12.464C212.714 12.08 213.562 11.888 214.554 11.888C215.61 11.888 216.466 12.08 217.122 12.464C217.778 12.848 218.258 13.408 218.562 14.144C218.882 14.88 219.042 15.776 219.042 16.832V19.256H213.474V21.944C213.474 22.344 213.514 22.672 213.594 22.928C213.69 23.184 213.818 23.368 213.978 23.48C214.138 23.576 214.338 23.624 214.578 23.624C214.802 23.624 214.994 23.576 215.154 23.48C215.33 23.368 215.458 23.2 215.538 22.976C215.618 22.752 215.658 22.456 215.658 22.088V20.768H219.018V21.92C219.018 23.328 218.634 24.4 217.866 25.136C217.098 25.872 215.994 26.24 214.554 26.24ZM213.474 17.528H215.658V16.16C215.658 15.76 215.618 15.44 215.538 15.2C215.458 14.944 215.33 14.768 215.154 14.672C214.994 14.56 214.786 14.504 214.53 14.504C214.29 14.504 214.09 14.56 213.93 14.672C213.786 14.784 213.674 14.984 213.594 15.272C213.514 15.544 213.474 15.936 213.474 16.448V17.528ZM227.273 26V12.128H230.897V26H227.273ZM227.249 9.848V7.136H230.897V9.848H227.249ZM233.389 26V12.128H237.013V13.52C237.509 13.024 238.029 12.632 238.573 12.344C239.133 12.04 239.725 11.888 240.349 11.888C240.925 11.888 241.389 12.032 241.741 12.32C242.109 12.608 242.381 12.992 242.557 13.472C242.733 13.936 242.821 14.464 242.821 15.056V26H239.221V15.656C239.221 15.272 239.157 14.984 239.029 14.792C238.917 14.6 238.693 14.504 238.357 14.504C238.165 14.504 237.949 14.56 237.709 14.672C237.485 14.768 237.253 14.904 237.013 15.08V26H233.389ZM256.025 26.336C254.665 26.336 253.625 26.088 252.905 25.592C252.185 25.096 251.689 24.4 251.417 23.504C251.161 22.608 251.033 21.56 251.033 20.36H254.609C254.609 21.064 254.649 21.656 254.729 22.136C254.825 22.616 254.985 22.976 255.209 23.216C255.449 23.456 255.801 23.568 256.265 23.552C256.729 23.536 257.065 23.36 257.273 23.024C257.481 22.688 257.609 22.208 257.657 21.584C257.705 20.96 257.729 20.224 257.729 19.376C257.729 18.688 257.689 18.08 257.609 17.552C257.529 17.024 257.369 16.608 257.129 16.304C256.905 16 256.553 15.848 256.073 15.848C255.641 15.848 255.281 16 254.993 16.304C254.721 16.608 254.521 17.04 254.393 17.6H251.225L251.489 6.56H260.417V9.752H254.537L254.321 14.048C254.513 13.808 254.833 13.6 255.281 13.424C255.745 13.248 256.241 13.144 256.769 13.112C257.777 13.016 258.609 13.208 259.265 13.688C259.937 14.168 260.433 14.88 260.753 15.824C261.073 16.752 261.233 17.888 261.233 19.232C261.233 20.256 261.169 21.208 261.041 22.088C260.913 22.952 260.665 23.704 260.297 24.344C259.929 24.968 259.401 25.456 258.713 25.808C258.025 26.16 257.129 26.336 256.025 26.336ZM269.271 26V12.128H272.799V13.28C273.295 12.768 273.815 12.408 274.359 12.2C274.919 11.976 275.487 11.864 276.063 11.864C276.623 11.864 277.103 12.008 277.503 12.296C277.919 12.568 278.223 12.984 278.415 13.544C278.959 12.936 279.527 12.504 280.119 12.248C280.711 11.992 281.319 11.864 281.943 11.864C282.455 11.864 282.911 11.992 283.311 12.248C283.711 12.504 284.023 12.88 284.247 13.376C284.471 13.872 284.583 14.48 284.583 15.2V26H281.055V15.56C281.055 15.112 280.975 14.8 280.815 14.624C280.671 14.432 280.447 14.336 280.143 14.336C279.951 14.336 279.719 14.392 279.447 14.504C279.175 14.616 278.919 14.776 278.679 14.984C278.679 15.016 278.679 15.048 278.679 15.08C278.679 15.112 278.679 15.152 278.679 15.2V26H275.199V15.56C275.199 15.112 275.119 14.8 274.959 14.624C274.799 14.432 274.567 14.336 274.263 14.336C274.055 14.336 273.815 14.392 273.543 14.504C273.287 14.616 273.039 14.776 272.799 14.984V26H269.271ZM287.015 26V12.128H290.639V26H287.015ZM286.991 9.848V7.136H290.639V9.848H286.991ZM293.131 26V12.128H296.755V13.52C297.251 13.024 297.771 12.632 298.315 12.344C298.875 12.04 299.467 11.888 300.091 11.888C300.667 11.888 301.131 12.032 301.483 12.32C301.851 12.608 302.123 12.992 302.299 13.472C302.475 13.936 302.563 14.464 302.563 15.056V26H298.963V15.656C298.963 15.272 298.899 14.984 298.771 14.792C298.659 14.6 298.435 14.504 298.099 14.504C297.907 14.504 297.691 14.56 297.451 14.672C297.227 14.768 296.995 14.904 296.755 15.08V26H293.131ZM308.999 26.24C307.799 26.24 306.807 25.952 306.023 25.376C305.255 24.784 304.655 23.88 304.223 22.664L306.767 21.608C307.007 22.28 307.295 22.808 307.631 23.192C307.967 23.56 308.359 23.744 308.807 23.744C309.143 23.744 309.391 23.672 309.551 23.528C309.727 23.368 309.815 23.152 309.815 22.88C309.815 22.496 309.687 22.152 309.431 21.848C309.175 21.544 308.719 21.12 308.063 20.576L306.767 19.472C306.095 18.896 305.551 18.328 305.135 17.768C304.735 17.192 304.535 16.48 304.535 15.632C304.535 14.88 304.719 14.224 305.087 13.664C305.471 13.104 305.975 12.672 306.599 12.368C307.239 12.048 307.927 11.888 308.663 11.888C309.799 11.888 310.727 12.216 311.447 12.872C312.183 13.512 312.679 14.384 312.935 15.488L310.583 16.544C310.487 16.192 310.359 15.864 310.199 15.56C310.039 15.24 309.831 14.976 309.575 14.768C309.335 14.56 309.063 14.456 308.759 14.456C308.471 14.456 308.239 14.544 308.063 14.72C307.887 14.896 307.799 15.12 307.799 15.392C307.799 15.68 307.943 15.984 308.231 16.304C308.535 16.624 308.951 17.008 309.479 17.456L310.775 18.608C311.159 18.944 311.535 19.304 311.903 19.688C312.271 20.056 312.575 20.472 312.815 20.936C313.055 21.384 313.175 21.904 313.175 22.496C313.175 23.296 312.983 23.976 312.599 24.536C312.215 25.096 311.703 25.52 311.063 25.808C310.439 26.096 309.751 26.24 308.999 26.24Z" fill="black"/>
<path d="M71.9531 42.625V54H70.4453V42.625H71.9531ZM76.7188 47.7422V48.9766H71.625V47.7422H76.7188ZM77.4922 42.625V43.8594H71.625V42.625H77.4922ZM80.6406 45.5469V54H79.1875V45.5469H80.6406ZM79.0781 43.3047C79.0781 43.0703 79.1484 42.8724 79.2891 42.7109C79.4349 42.5495 79.6484 42.4688 79.9297 42.4688C80.2057 42.4688 80.4167 42.5495 80.5625 42.7109C80.7135 42.8724 80.7891 43.0703 80.7891 43.3047C80.7891 43.5286 80.7135 43.7214 80.5625 43.8828C80.4167 44.0391 80.2057 44.1172 79.9297 44.1172C79.6484 44.1172 79.4349 44.0391 79.2891 43.8828C79.1484 43.7214 79.0781 43.5286 79.0781 43.3047ZM83.9375 45.5469L85.7891 48.625L87.6641 45.5469H89.3594L86.5938 49.7188L89.4453 54H87.7734L85.8203 50.8281L83.8672 54H82.1875L85.0312 49.7188L82.2734 45.5469H83.9375ZM94.25 54.1562C93.6615 54.1562 93.1276 54.0573 92.6484 53.8594C92.1745 53.6562 91.7656 53.3724 91.4219 53.0078C91.0833 52.6432 90.8229 52.2109 90.6406 51.7109C90.4583 51.2109 90.3672 50.6641 90.3672 50.0703V49.7422C90.3672 49.0547 90.4688 48.4427 90.6719 47.9062C90.875 47.3646 91.151 46.9062 91.5 46.5312C91.849 46.1562 92.2448 45.8724 92.6875 45.6797C93.1302 45.487 93.5885 45.3906 94.0625 45.3906C94.6667 45.3906 95.1875 45.4948 95.625 45.7031C96.0677 45.9115 96.4297 46.2031 96.7109 46.5781C96.9922 46.9479 97.2005 47.3854 97.3359 47.8906C97.4714 48.3906 97.5391 48.9375 97.5391 49.5312V50.1797H91.2266V49H96.0938V48.8906C96.0729 48.5156 95.9948 48.151 95.8594 47.7969C95.7292 47.4427 95.5208 47.151 95.2344 46.9219C94.9479 46.6927 94.5573 46.5781 94.0625 46.5781C93.7344 46.5781 93.4323 46.6484 93.1562 46.7891C92.8802 46.9245 92.6432 47.1276 92.4453 47.3984C92.2474 47.6693 92.0938 48 91.9844 48.3906C91.875 48.7812 91.8203 49.2318 91.8203 49.7422V50.0703C91.8203 50.4714 91.875 50.849 91.9844 51.2031C92.099 51.5521 92.263 51.8594 92.4766 52.125C92.6953 52.3906 92.9583 52.599 93.2656 52.75C93.5781 52.901 93.9323 52.9766 94.3281 52.9766C94.8385 52.9766 95.2708 52.8724 95.625 52.6641C95.9792 52.4557 96.2891 52.1771 96.5547 51.8281L97.4297 52.5234C97.2474 52.7995 97.0156 53.0625 96.7344 53.3125C96.4531 53.5625 96.1068 53.7656 95.6953 53.9219C95.2891 54.0781 94.8073 54.1562 94.25 54.1562ZM104.555 52.3594V42H106.008V54H104.68L104.555 52.3594ZM98.8672 49.8672V49.7031C98.8672 49.0573 98.9453 48.4714 99.1016 47.9453C99.263 47.4141 99.4896 46.9583 99.7812 46.5781C100.078 46.1979 100.43 45.9062 100.836 45.7031C101.247 45.4948 101.706 45.3906 102.211 45.3906C102.742 45.3906 103.206 45.4844 103.602 45.6719C104.003 45.8542 104.341 46.1224 104.617 46.4766C104.898 46.8255 105.12 47.2474 105.281 47.7422C105.443 48.237 105.555 48.7969 105.617 49.4219V50.1406C105.56 50.7604 105.448 51.3177 105.281 51.8125C105.12 52.3073 104.898 52.7292 104.617 53.0781C104.341 53.4271 104.003 53.6953 103.602 53.8828C103.201 54.0651 102.732 54.1562 102.195 54.1562C101.701 54.1562 101.247 54.0495 100.836 53.8359C100.43 53.6224 100.078 53.3229 99.7812 52.9375C99.4896 52.5521 99.263 52.099 99.1016 51.5781C98.9453 51.0521 98.8672 50.4818 98.8672 49.8672ZM100.32 49.7031V49.8672C100.32 50.2891 100.362 50.6849 100.445 51.0547C100.534 51.4245 100.669 51.75 100.852 52.0312C101.034 52.3125 101.266 52.5339 101.547 52.6953C101.828 52.8516 102.164 52.9297 102.555 52.9297C103.034 52.9297 103.427 52.8281 103.734 52.625C104.047 52.4219 104.297 52.1536 104.484 51.8203C104.672 51.487 104.818 51.125 104.922 50.7344V48.8516C104.859 48.5651 104.768 48.2891 104.648 48.0234C104.534 47.7526 104.383 47.513 104.195 47.3047C104.013 47.0911 103.786 46.9219 103.516 46.7969C103.25 46.6719 102.935 46.6094 102.57 46.6094C102.174 46.6094 101.833 46.6927 101.547 46.8594C101.266 47.0208 101.034 47.2448 100.852 47.5312C100.669 47.8125 100.534 48.1406 100.445 48.5156C100.362 48.8854 100.32 49.2812 100.32 49.7031ZM117.398 52.0469V45.5469H118.852V54H117.469L117.398 52.0469ZM117.672 50.2656L118.273 50.25C118.273 50.8125 118.214 51.3333 118.094 51.8125C117.979 52.2865 117.792 52.6979 117.531 53.0469C117.271 53.3958 116.93 53.6693 116.508 53.8672C116.086 54.0599 115.573 54.1562 114.969 54.1562C114.557 54.1562 114.18 54.0964 113.836 53.9766C113.497 53.8568 113.206 53.6719 112.961 53.4219C112.716 53.1719 112.526 52.8464 112.391 52.4453C112.26 52.0443 112.195 51.5625 112.195 51V45.5469H113.641V51.0156C113.641 51.3958 113.682 51.7109 113.766 51.9609C113.854 52.2057 113.971 52.401 114.117 52.5469C114.268 52.6875 114.435 52.7865 114.617 52.8438C114.805 52.901 114.997 52.9297 115.195 52.9297C115.81 52.9297 116.297 52.8125 116.656 52.5781C117.016 52.3385 117.273 52.0182 117.43 51.6172C117.591 51.2109 117.672 50.7604 117.672 50.2656ZM122.5 47.1719V57.25H121.047V45.5469H122.375L122.5 47.1719ZM128.195 49.7031V49.8672C128.195 50.4818 128.122 51.0521 127.977 51.5781C127.831 52.099 127.617 52.5521 127.336 52.9375C127.06 53.3229 126.719 53.6224 126.312 53.8359C125.906 54.0495 125.44 54.1562 124.914 54.1562C124.378 54.1562 123.904 54.0677 123.492 53.8906C123.081 53.7135 122.732 53.4557 122.445 53.1172C122.159 52.7786 121.93 52.3724 121.758 51.8984C121.591 51.4245 121.477 50.8906 121.414 50.2969V49.4219C121.477 48.7969 121.594 48.237 121.766 47.7422C121.938 47.2474 122.164 46.8255 122.445 46.4766C122.732 46.1224 123.078 45.8542 123.484 45.6719C123.891 45.4844 124.359 45.3906 124.891 45.3906C125.422 45.3906 125.893 45.4948 126.305 45.7031C126.716 45.9062 127.062 46.1979 127.344 46.5781C127.625 46.9583 127.836 47.4141 127.977 47.9453C128.122 48.4714 128.195 49.0573 128.195 49.7031ZM126.742 49.8672V49.7031C126.742 49.2812 126.698 48.8854 126.609 48.5156C126.521 48.1406 126.383 47.8125 126.195 47.5312C126.013 47.2448 125.779 47.0208 125.492 46.8594C125.206 46.6927 124.865 46.6094 124.469 46.6094C124.104 46.6094 123.786 46.6719 123.516 46.7969C123.25 46.9219 123.023 47.0911 122.836 47.3047C122.648 47.513 122.495 47.7526 122.375 48.0234C122.26 48.2891 122.174 48.5651 122.117 48.8516V50.875C122.221 51.2396 122.367 51.5833 122.555 51.9062C122.742 52.224 122.992 52.4818 123.305 52.6797C123.617 52.8724 124.01 52.9688 124.484 52.9688C124.875 52.9688 125.211 52.888 125.492 52.7266C125.779 52.5599 126.013 52.3333 126.195 52.0469C126.383 51.7604 126.521 51.4323 126.609 51.0625C126.698 50.6875 126.742 50.2891 126.742 49.8672ZM132.195 54H130.75V44.6562C130.75 44.0469 130.859 43.5339 131.078 43.1172C131.302 42.6953 131.622 42.3776 132.039 42.1641C132.456 41.9453 132.951 41.8359 133.523 41.8359C133.69 41.8359 133.857 41.8464 134.023 41.8672C134.195 41.888 134.362 41.9193 134.523 41.9609L134.445 43.1406C134.336 43.1146 134.211 43.0964 134.07 43.0859C133.935 43.0755 133.799 43.0703 133.664 43.0703C133.357 43.0703 133.091 43.1328 132.867 43.2578C132.648 43.3776 132.482 43.5547 132.367 43.7891C132.253 44.0234 132.195 44.3125 132.195 44.6562V54ZM133.992 45.5469V46.6562H129.414V45.5469H133.992ZM137.047 46.875V54H135.602V45.5469H137.008L137.047 46.875ZM139.688 45.5L139.68 46.8438C139.56 46.8177 139.445 46.8021 139.336 46.7969C139.232 46.7865 139.112 46.7812 138.977 46.7812C138.643 46.7812 138.349 46.8333 138.094 46.9375C137.839 47.0417 137.622 47.1875 137.445 47.375C137.268 47.5625 137.128 47.7865 137.023 48.0469C136.924 48.3021 136.859 48.5833 136.828 48.8906L136.422 49.125C136.422 48.6146 136.471 48.1354 136.57 47.6875C136.674 47.2396 136.833 46.8438 137.047 46.5C137.26 46.151 137.531 45.8802 137.859 45.6875C138.193 45.4896 138.589 45.3906 139.047 45.3906C139.151 45.3906 139.271 45.4036 139.406 45.4297C139.542 45.4505 139.635 45.474 139.688 45.5ZM140.484 49.8672V49.6875C140.484 49.0781 140.573 48.513 140.75 47.9922C140.927 47.4661 141.182 47.0104 141.516 46.625C141.849 46.2344 142.253 45.9323 142.727 45.7188C143.201 45.5 143.732 45.3906 144.32 45.3906C144.914 45.3906 145.448 45.5 145.922 45.7188C146.401 45.9323 146.807 46.2344 147.141 46.625C147.479 47.0104 147.737 47.4661 147.914 47.9922C148.091 48.513 148.18 49.0781 148.18 49.6875V49.8672C148.18 50.4766 148.091 51.0417 147.914 51.5625C147.737 52.0833 147.479 52.5391 147.141 52.9297C146.807 53.3151 146.404 53.6172 145.93 53.8359C145.461 54.0495 144.93 54.1562 144.336 54.1562C143.742 54.1562 143.208 54.0495 142.734 53.8359C142.26 53.6172 141.854 53.3151 141.516 52.9297C141.182 52.5391 140.927 52.0833 140.75 51.5625C140.573 51.0417 140.484 50.4766 140.484 49.8672ZM141.93 49.6875V49.8672C141.93 50.2891 141.979 50.6875 142.078 51.0625C142.177 51.4323 142.326 51.7604 142.523 52.0469C142.727 52.3333 142.979 52.5599 143.281 52.7266C143.583 52.888 143.935 52.9688 144.336 52.9688C144.732 52.9688 145.078 52.888 145.375 52.7266C145.677 52.5599 145.927 52.3333 146.125 52.0469C146.323 51.7604 146.471 51.4323 146.57 51.0625C146.674 50.6875 146.727 50.2891 146.727 49.8672V49.6875C146.727 49.2708 146.674 48.8776 146.57 48.5078C146.471 48.1328 146.32 47.8021 146.117 47.5156C145.919 47.224 145.669 46.9948 145.367 46.8281C145.07 46.6615 144.721 46.5781 144.32 46.5781C143.924 46.5781 143.576 46.6615 143.273 46.8281C142.977 46.9948 142.727 47.224 142.523 47.5156C142.326 47.8021 142.177 48.1328 142.078 48.5078C141.979 48.8776 141.93 49.2708 141.93 49.6875ZM151.438 47.3516V54H149.992V45.5469H151.359L151.438 47.3516ZM151.094 49.4531L150.492 49.4297C150.497 48.8516 150.583 48.3177 150.75 47.8281C150.917 47.3333 151.151 46.9036 151.453 46.5391C151.755 46.1745 152.115 45.8932 152.531 45.6953C152.953 45.4922 153.419 45.3906 153.93 45.3906C154.346 45.3906 154.721 45.4479 155.055 45.5625C155.388 45.6719 155.672 45.849 155.906 46.0938C156.146 46.3385 156.328 46.6562 156.453 47.0469C156.578 47.4323 156.641 47.9036 156.641 48.4609V54H155.188V48.4453C155.188 48.0026 155.122 47.6484 154.992 47.3828C154.862 47.112 154.672 46.9167 154.422 46.7969C154.172 46.6719 153.865 46.6094 153.5 46.6094C153.141 46.6094 152.812 46.6849 152.516 46.8359C152.224 46.987 151.971 47.1953 151.758 47.4609C151.549 47.7266 151.385 48.0312 151.266 48.375C151.151 48.7135 151.094 49.0729 151.094 49.4531ZM162.375 45.5469V46.6562H157.805V45.5469H162.375ZM159.352 43.4922H160.797V51.9062C160.797 52.1927 160.841 52.4089 160.93 52.5547C161.018 52.7005 161.133 52.7969 161.273 52.8438C161.414 52.8906 161.565 52.9141 161.727 52.9141C161.846 52.9141 161.971 52.9036 162.102 52.8828C162.237 52.8568 162.339 52.8359 162.406 52.8203L162.414 54C162.299 54.0365 162.148 54.0703 161.961 54.1016C161.779 54.138 161.557 54.1562 161.297 54.1562C160.943 54.1562 160.617 54.0859 160.32 53.9453C160.023 53.8047 159.786 53.5703 159.609 53.2422C159.438 52.9089 159.352 52.4609 159.352 51.8984V43.4922ZM173.359 57.25V47.1719L173.484 45.5469H174.812V57.25H173.359ZM167.68 49.8672V49.7031C167.68 49.0573 167.755 48.4714 167.906 47.9453C168.057 47.4141 168.279 46.9583 168.57 46.5781C168.862 46.1979 169.214 45.9062 169.625 45.7031C170.042 45.4948 170.516 45.3906 171.047 45.3906C171.578 45.3906 172.044 45.4844 172.445 45.6719C172.852 45.8542 173.195 46.1224 173.477 46.4766C173.763 46.8255 173.99 47.2474 174.156 47.7422C174.323 48.237 174.438 48.7969 174.5 49.4219V50.1406C174.443 50.7604 174.331 51.3177 174.164 51.8125C173.997 52.3073 173.771 52.7292 173.484 53.0781C173.203 53.4271 172.857 53.6953 172.445 53.8828C172.039 54.0651 171.568 54.1562 171.031 54.1562C170.51 54.1562 170.042 54.0495 169.625 53.8359C169.214 53.6224 168.862 53.3229 168.57 52.9375C168.284 52.5521 168.062 52.099 167.906 51.5781C167.755 51.0521 167.68 50.4818 167.68 49.8672ZM169.133 49.7031V49.8672C169.133 50.2891 169.177 50.6875 169.266 51.0625C169.354 51.4323 169.49 51.7604 169.672 52.0469C169.859 52.3333 170.094 52.5599 170.375 52.7266C170.661 52.888 171 52.9688 171.391 52.9688C171.87 52.9688 172.268 52.8646 172.586 52.6562C172.909 52.4479 173.167 52.1745 173.359 51.8359C173.552 51.4922 173.701 51.125 173.805 50.7344V48.8516C173.747 48.5651 173.656 48.2865 173.531 48.0156C173.411 47.7448 173.255 47.5026 173.062 47.2891C172.87 47.0703 172.635 46.8984 172.359 46.7734C172.089 46.6432 171.771 46.5781 171.406 46.5781C171.01 46.5781 170.669 46.6615 170.383 46.8281C170.096 46.9948 169.859 47.224 169.672 47.5156C169.49 47.8021 169.354 48.1328 169.266 48.5078C169.177 48.8828 169.133 49.2812 169.133 49.7031ZM176.75 49.8672V49.6875C176.75 49.0781 176.839 48.513 177.016 47.9922C177.193 47.4661 177.448 47.0104 177.781 46.625C178.115 46.2344 178.518 45.9323 178.992 45.7188C179.466 45.5 179.997 45.3906 180.586 45.3906C181.18 45.3906 181.714 45.5 182.188 45.7188C182.667 45.9323 183.073 46.2344 183.406 46.625C183.745 47.0104 184.003 47.4661 184.18 47.9922C184.357 48.513 184.445 49.0781 184.445 49.6875V49.8672C184.445 50.4766 184.357 51.0417 184.18 51.5625C184.003 52.0833 183.745 52.5391 183.406 52.9297C183.073 53.3151 182.669 53.6172 182.195 53.8359C181.727 54.0495 181.195 54.1562 180.602 54.1562C180.008 54.1562 179.474 54.0495 179 53.8359C178.526 53.6172 178.12 53.3151 177.781 52.9297C177.448 52.5391 177.193 52.0833 177.016 51.5625C176.839 51.0417 176.75 50.4766 176.75 49.8672ZM178.195 49.6875V49.8672C178.195 50.2891 178.245 50.6875 178.344 51.0625C178.443 51.4323 178.591 51.7604 178.789 52.0469C178.992 52.3333 179.245 52.5599 179.547 52.7266C179.849 52.888 180.201 52.9688 180.602 52.9688C180.997 52.9688 181.344 52.888 181.641 52.7266C181.943 52.5599 182.193 52.3333 182.391 52.0469C182.589 51.7604 182.737 51.4323 182.836 51.0625C182.94 50.6875 182.992 50.2891 182.992 49.8672V49.6875C182.992 49.2708 182.94 48.8776 182.836 48.5078C182.737 48.1328 182.586 47.8021 182.383 47.5156C182.185 47.224 181.935 46.9948 181.633 46.8281C181.336 46.6615 180.987 46.5781 180.586 46.5781C180.19 46.5781 179.841 46.6615 179.539 46.8281C179.242 46.9948 178.992 47.224 178.789 47.5156C178.591 47.8021 178.443 48.1328 178.344 48.5078C178.245 48.8776 178.195 49.2708 178.195 49.6875ZM191.43 52.0469V45.5469H192.883V54H191.5L191.43 52.0469ZM191.703 50.2656L192.305 50.25C192.305 50.8125 192.245 51.3333 192.125 51.8125C192.01 52.2865 191.823 52.6979 191.562 53.0469C191.302 53.3958 190.961 53.6693 190.539 53.8672C190.117 54.0599 189.604 54.1562 189 54.1562C188.589 54.1562 188.211 54.0964 187.867 53.9766C187.529 53.8568 187.237 53.6719 186.992 53.4219C186.747 53.1719 186.557 52.8464 186.422 52.4453C186.292 52.0443 186.227 51.5625 186.227 51V45.5469H187.672V51.0156C187.672 51.3958 187.714 51.7109 187.797 51.9609C187.885 52.2057 188.003 52.401 188.148 52.5469C188.299 52.6875 188.466 52.7865 188.648 52.8438C188.836 52.901 189.029 52.9297 189.227 52.9297C189.841 52.9297 190.328 52.8125 190.688 52.5781C191.047 52.3385 191.305 52.0182 191.461 51.6172C191.622 51.2109 191.703 50.7604 191.703 50.2656ZM198.625 45.5469V46.6562H194.055V45.5469H198.625ZM195.602 43.4922H197.047V51.9062C197.047 52.1927 197.091 52.4089 197.18 52.5547C197.268 52.7005 197.383 52.7969 197.523 52.8438C197.664 52.8906 197.815 52.9141 197.977 52.9141C198.096 52.9141 198.221 52.9036 198.352 52.8828C198.487 52.8568 198.589 52.8359 198.656 52.8203L198.664 54C198.549 54.0365 198.398 54.0703 198.211 54.1016C198.029 54.138 197.807 54.1562 197.547 54.1562C197.193 54.1562 196.867 54.0859 196.57 53.9453C196.273 53.8047 196.036 53.5703 195.859 53.2422C195.688 52.9089 195.602 52.4609 195.602 51.8984V43.4922ZM203.828 54.1562C203.24 54.1562 202.706 54.0573 202.227 53.8594C201.753 53.6562 201.344 53.3724 201 53.0078C200.661 52.6432 200.401 52.2109 200.219 51.7109C200.036 51.2109 199.945 50.6641 199.945 50.0703V49.7422C199.945 49.0547 200.047 48.4427 200.25 47.9062C200.453 47.3646 200.729 46.9062 201.078 46.5312C201.427 46.1562 201.823 45.8724 202.266 45.6797C202.708 45.487 203.167 45.3906 203.641 45.3906C204.245 45.3906 204.766 45.4948 205.203 45.7031C205.646 45.9115 206.008 46.2031 206.289 46.5781C206.57 46.9479 206.779 47.3854 206.914 47.8906C207.049 48.3906 207.117 48.9375 207.117 49.5312V50.1797H200.805V49H205.672V48.8906C205.651 48.5156 205.573 48.151 205.438 47.7969C205.307 47.4427 205.099 47.151 204.812 46.9219C204.526 46.6927 204.135 46.5781 203.641 46.5781C203.312 46.5781 203.01 46.6484 202.734 46.7891C202.458 46.9245 202.221 47.1276 202.023 47.3984C201.826 47.6693 201.672 48 201.562 48.3906C201.453 48.7812 201.398 49.2318 201.398 49.7422V50.0703C201.398 50.4714 201.453 50.849 201.562 51.2031C201.677 51.5521 201.841 51.8594 202.055 52.125C202.273 52.3906 202.536 52.599 202.844 52.75C203.156 52.901 203.51 52.9766 203.906 52.9766C204.417 52.9766 204.849 52.8724 205.203 52.6641C205.557 52.4557 205.867 52.1771 206.133 51.8281L207.008 52.5234C206.826 52.7995 206.594 53.0625 206.312 53.3125C206.031 53.5625 205.685 53.7656 205.273 53.9219C204.867 54.0781 204.385 54.1562 203.828 54.1562ZM216.312 45.5469V46.6562H211.742V45.5469H216.312ZM213.289 43.4922H214.734V51.9062C214.734 52.1927 214.779 52.4089 214.867 52.5547C214.956 52.7005 215.07 52.7969 215.211 52.8438C215.352 52.8906 215.503 52.9141 215.664 52.9141C215.784 52.9141 215.909 52.9036 216.039 52.8828C216.174 52.8568 216.276 52.8359 216.344 52.8203L216.352 54C216.237 54.0365 216.086 54.0703 215.898 54.1016C215.716 54.138 215.495 54.1562 215.234 54.1562C214.88 54.1562 214.555 54.0859 214.258 53.9453C213.961 53.8047 213.724 53.5703 213.547 53.2422C213.375 52.9089 213.289 52.4609 213.289 51.8984V43.4922ZM219.453 42V54H218.008V42H219.453ZM219.109 49.4531L218.508 49.4297C218.513 48.8516 218.599 48.3177 218.766 47.8281C218.932 47.3333 219.167 46.9036 219.469 46.5391C219.771 46.1745 220.13 45.8932 220.547 45.6953C220.969 45.4922 221.435 45.3906 221.945 45.3906C222.362 45.3906 222.737 45.4479 223.07 45.5625C223.404 45.6719 223.688 45.849 223.922 46.0938C224.161 46.3385 224.344 46.6562 224.469 47.0469C224.594 47.4323 224.656 47.9036 224.656 48.4609V54H223.203V48.4453C223.203 48.0026 223.138 47.6484 223.008 47.3828C222.878 47.112 222.688 46.9167 222.438 46.7969C222.188 46.6719 221.88 46.6094 221.516 46.6094C221.156 46.6094 220.828 46.6849 220.531 46.8359C220.24 46.987 219.987 47.1953 219.773 47.4609C219.565 47.7266 219.401 48.0312 219.281 48.375C219.167 48.7135 219.109 49.0729 219.109 49.4531ZM231.805 52.5547V48.2031C231.805 47.8698 231.737 47.5807 231.602 47.3359C231.471 47.0859 231.273 46.8932 231.008 46.7578C230.742 46.6224 230.414 46.5547 230.023 46.5547C229.659 46.5547 229.339 46.6172 229.062 46.7422C228.792 46.8672 228.578 47.0312 228.422 47.2344C228.271 47.4375 228.195 47.6562 228.195 47.8906H226.75C226.75 47.5885 226.828 47.2891 226.984 46.9922C227.141 46.6953 227.365 46.4271 227.656 46.1875C227.953 45.9427 228.307 45.75 228.719 45.6094C229.135 45.4635 229.599 45.3906 230.109 45.3906C230.724 45.3906 231.266 45.4948 231.734 45.7031C232.208 45.9115 232.578 46.2266 232.844 46.6484C233.115 47.0651 233.25 47.5885 233.25 48.2188V52.1562C233.25 52.4375 233.273 52.737 233.32 53.0547C233.372 53.3724 233.448 53.6458 233.547 53.875V54H232.039C231.966 53.8333 231.909 53.612 231.867 53.3359C231.826 53.0547 231.805 52.7943 231.805 52.5547ZM232.055 48.875L232.07 49.8906H230.609C230.198 49.8906 229.831 49.9245 229.508 49.9922C229.185 50.0547 228.914 50.151 228.695 50.2812C228.477 50.4115 228.31 50.5755 228.195 50.7734C228.081 50.9661 228.023 51.1927 228.023 51.4531C228.023 51.7188 228.083 51.9609 228.203 52.1797C228.323 52.3984 228.503 52.5729 228.742 52.7031C228.987 52.8281 229.286 52.8906 229.641 52.8906C230.083 52.8906 230.474 52.7969 230.812 52.6094C231.151 52.4219 231.419 52.1927 231.617 51.9219C231.82 51.651 231.93 51.388 231.945 51.1328L232.562 51.8281C232.526 52.0469 232.427 52.2891 232.266 52.5547C232.104 52.8203 231.888 53.0755 231.617 53.3203C231.352 53.5599 231.034 53.7604 230.664 53.9219C230.299 54.0781 229.888 54.1562 229.43 54.1562C228.857 54.1562 228.354 54.0443 227.922 53.8203C227.495 53.5964 227.161 53.2969 226.922 52.9219C226.688 52.5417 226.57 52.1172 226.57 51.6484C226.57 51.1953 226.659 50.7969 226.836 50.4531C227.013 50.1042 227.268 49.8151 227.602 49.5859C227.935 49.3516 228.336 49.1745 228.805 49.0547C229.273 48.9349 229.797 48.875 230.375 48.875H232.055ZM239.062 45.5469V46.6562H234.492V45.5469H239.062ZM236.039 43.4922H237.484V51.9062C237.484 52.1927 237.529 52.4089 237.617 52.5547C237.706 52.7005 237.82 52.7969 237.961 52.8438C238.102 52.8906 238.253 52.9141 238.414 52.9141C238.534 52.9141 238.659 52.9036 238.789 52.8828C238.924 52.8568 239.026 52.8359 239.094 52.8203L239.102 54C238.987 54.0365 238.836 54.0703 238.648 54.1016C238.466 54.138 238.245 54.1562 237.984 54.1562C237.63 54.1562 237.305 54.0859 237.008 53.9453C236.711 53.8047 236.474 53.5703 236.297 53.2422C236.125 52.9089 236.039 52.4609 236.039 51.8984V43.4922ZM250.055 52.3594V42H251.508V54H250.18L250.055 52.3594ZM244.367 49.8672V49.7031C244.367 49.0573 244.445 48.4714 244.602 47.9453C244.763 47.4141 244.99 46.9583 245.281 46.5781C245.578 46.1979 245.93 45.9062 246.336 45.7031C246.747 45.4948 247.206 45.3906 247.711 45.3906C248.242 45.3906 248.706 45.4844 249.102 45.6719C249.503 45.8542 249.841 46.1224 250.117 46.4766C250.398 46.8255 250.62 47.2474 250.781 47.7422C250.943 48.237 251.055 48.7969 251.117 49.4219V50.1406C251.06 50.7604 250.948 51.3177 250.781 51.8125C250.62 52.3073 250.398 52.7292 250.117 53.0781C249.841 53.4271 249.503 53.6953 249.102 53.8828C248.701 54.0651 248.232 54.1562 247.695 54.1562C247.201 54.1562 246.747 54.0495 246.336 53.8359C245.93 53.6224 245.578 53.3229 245.281 52.9375C244.99 52.5521 244.763 52.099 244.602 51.5781C244.445 51.0521 244.367 50.4818 244.367 49.8672ZM245.82 49.7031V49.8672C245.82 50.2891 245.862 50.6849 245.945 51.0547C246.034 51.4245 246.169 51.75 246.352 52.0312C246.534 52.3125 246.766 52.5339 247.047 52.6953C247.328 52.8516 247.664 52.9297 248.055 52.9297C248.534 52.9297 248.927 52.8281 249.234 52.625C249.547 52.4219 249.797 52.1536 249.984 51.8203C250.172 51.487 250.318 51.125 250.422 50.7344V48.8516C250.359 48.5651 250.268 48.2891 250.148 48.0234C250.034 47.7526 249.883 47.513 249.695 47.3047C249.513 47.0911 249.286 46.9219 249.016 46.7969C248.75 46.6719 248.435 46.6094 248.07 46.6094C247.674 46.6094 247.333 46.6927 247.047 46.8594C246.766 47.0208 246.534 47.2448 246.352 47.5312C246.169 47.8125 246.034 48.1406 245.945 48.5156C245.862 48.8854 245.82 49.2812 245.82 49.7031ZM253.375 49.8672V49.6875C253.375 49.0781 253.464 48.513 253.641 47.9922C253.818 47.4661 254.073 47.0104 254.406 46.625C254.74 46.2344 255.143 45.9323 255.617 45.7188C256.091 45.5 256.622 45.3906 257.211 45.3906C257.805 45.3906 258.339 45.5 258.812 45.7188C259.292 45.9323 259.698 46.2344 260.031 46.625C260.37 47.0104 260.628 47.4661 260.805 47.9922C260.982 48.513 261.07 49.0781 261.07 49.6875V49.8672C261.07 50.4766 260.982 51.0417 260.805 51.5625C260.628 52.0833 260.37 52.5391 260.031 52.9297C259.698 53.3151 259.294 53.6172 258.82 53.8359C258.352 54.0495 257.82 54.1562 257.227 54.1562C256.633 54.1562 256.099 54.0495 255.625 53.8359C255.151 53.6172 254.745 53.3151 254.406 52.9297C254.073 52.5391 253.818 52.0833 253.641 51.5625C253.464 51.0417 253.375 50.4766 253.375 49.8672ZM254.82 49.6875V49.8672C254.82 50.2891 254.87 50.6875 254.969 51.0625C255.068 51.4323 255.216 51.7604 255.414 52.0469C255.617 52.3333 255.87 52.5599 256.172 52.7266C256.474 52.888 256.826 52.9688 257.227 52.9688C257.622 52.9688 257.969 52.888 258.266 52.7266C258.568 52.5599 258.818 52.3333 259.016 52.0469C259.214 51.7604 259.362 51.4323 259.461 51.0625C259.565 50.6875 259.617 50.2891 259.617 49.8672V49.6875C259.617 49.2708 259.565 48.8776 259.461 48.5078C259.362 48.1328 259.211 47.8021 259.008 47.5156C258.81 47.224 258.56 46.9948 258.258 46.8281C257.961 46.6615 257.612 46.5781 257.211 46.5781C256.815 46.5781 256.466 46.6615 256.164 46.8281C255.867 46.9948 255.617 47.224 255.414 47.5156C255.216 47.8021 255.068 48.1328 254.969 48.5078C254.87 48.8776 254.82 49.2708 254.82 49.6875ZM266.391 54.1562C265.802 54.1562 265.268 54.0573 264.789 53.8594C264.315 53.6562 263.906 53.3724 263.562 53.0078C263.224 52.6432 262.964 52.2109 262.781 51.7109C262.599 51.2109 262.508 50.6641 262.508 50.0703V49.7422C262.508 49.0547 262.609 48.4427 262.812 47.9062C263.016 47.3646 263.292 46.9062 263.641 46.5312C263.99 46.1562 264.385 45.8724 264.828 45.6797C265.271 45.487 265.729 45.3906 266.203 45.3906C266.807 45.3906 267.328 45.4948 267.766 45.7031C268.208 45.9115 268.57 46.2031 268.852 46.5781C269.133 46.9479 269.341 47.3854 269.477 47.8906C269.612 48.3906 269.68 48.9375 269.68 49.5312V50.1797H263.367V49H268.234V48.8906C268.214 48.5156 268.135 48.151 268 47.7969C267.87 47.4427 267.661 47.151 267.375 46.9219C267.089 46.6927 266.698 46.5781 266.203 46.5781C265.875 46.5781 265.573 46.6484 265.297 46.7891C265.021 46.9245 264.784 47.1276 264.586 47.3984C264.388 47.6693 264.234 48 264.125 48.3906C264.016 48.7812 263.961 49.2318 263.961 49.7422V50.0703C263.961 50.4714 264.016 50.849 264.125 51.2031C264.24 51.5521 264.404 51.8594 264.617 52.125C264.836 52.3906 265.099 52.599 265.406 52.75C265.719 52.901 266.073 52.9766 266.469 52.9766C266.979 52.9766 267.411 52.8724 267.766 52.6641C268.12 52.4557 268.43 52.1771 268.695 51.8281L269.57 52.5234C269.388 52.7995 269.156 53.0625 268.875 53.3125C268.594 53.5625 268.247 53.7656 267.836 53.9219C267.43 54.0781 266.948 54.1562 266.391 54.1562ZM276.289 51.7578C276.289 51.5495 276.242 51.3568 276.148 51.1797C276.06 50.9974 275.875 50.8333 275.594 50.6875C275.318 50.5365 274.901 50.4062 274.344 50.2969C273.875 50.1979 273.451 50.0807 273.07 49.9453C272.695 49.8099 272.375 49.6458 272.109 49.4531C271.849 49.2604 271.648 49.0339 271.508 48.7734C271.367 48.513 271.297 48.2083 271.297 47.8594C271.297 47.526 271.37 47.2109 271.516 46.9141C271.667 46.6172 271.878 46.3542 272.148 46.125C272.424 45.8958 272.755 45.7161 273.141 45.5859C273.526 45.4557 273.956 45.3906 274.43 45.3906C275.107 45.3906 275.685 45.5104 276.164 45.75C276.643 45.9896 277.01 46.3099 277.266 46.7109C277.521 47.1068 277.648 47.5469 277.648 48.0312H276.203C276.203 47.7969 276.133 47.5703 275.992 47.3516C275.857 47.1276 275.656 46.9427 275.391 46.7969C275.13 46.651 274.81 46.5781 274.43 46.5781C274.029 46.5781 273.703 46.6406 273.453 46.7656C273.208 46.8854 273.029 47.0391 272.914 47.2266C272.805 47.4141 272.75 47.612 272.75 47.8203C272.75 47.9766 272.776 48.1172 272.828 48.2422C272.885 48.362 272.984 48.474 273.125 48.5781C273.266 48.6771 273.464 48.7708 273.719 48.8594C273.974 48.9479 274.299 49.0365 274.695 49.125C275.388 49.2812 275.958 49.4688 276.406 49.6875C276.854 49.9062 277.188 50.1745 277.406 50.4922C277.625 50.8099 277.734 51.1953 277.734 51.6484C277.734 52.0182 277.656 52.3568 277.5 52.6641C277.349 52.9714 277.128 53.237 276.836 53.4609C276.549 53.6797 276.206 53.8516 275.805 53.9766C275.409 54.0964 274.964 54.1562 274.469 54.1562C273.724 54.1562 273.094 54.0234 272.578 53.7578C272.062 53.4922 271.672 53.1484 271.406 52.7266C271.141 52.3047 271.008 51.8594 271.008 51.3906H272.461C272.482 51.7865 272.596 52.1016 272.805 52.3359C273.013 52.5651 273.268 52.7292 273.57 52.8281C273.872 52.9219 274.172 52.9688 274.469 52.9688C274.865 52.9688 275.195 52.9167 275.461 52.8125C275.732 52.7083 275.938 52.5651 276.078 52.3828C276.219 52.2005 276.289 51.9922 276.289 51.7578ZM285.047 47.3516V54H283.602V45.5469H284.969L285.047 47.3516ZM284.703 49.4531L284.102 49.4297C284.107 48.8516 284.193 48.3177 284.359 47.8281C284.526 47.3333 284.76 46.9036 285.062 46.5391C285.365 46.1745 285.724 45.8932 286.141 45.6953C286.562 45.4922 287.029 45.3906 287.539 45.3906C287.956 45.3906 288.331 45.4479 288.664 45.5625C288.997 45.6719 289.281 45.849 289.516 46.0938C289.755 46.3385 289.938 46.6562 290.062 47.0469C290.188 47.4323 290.25 47.9036 290.25 48.4609V54H288.797V48.4453C288.797 48.0026 288.732 47.6484 288.602 47.3828C288.471 47.112 288.281 46.9167 288.031 46.7969C287.781 46.6719 287.474 46.6094 287.109 46.6094C286.75 46.6094 286.422 46.6849 286.125 46.8359C285.833 46.987 285.581 47.1953 285.367 47.4609C285.159 47.7266 284.995 48.0312 284.875 48.375C284.76 48.7135 284.703 49.0729 284.703 49.4531ZM292.062 49.8672V49.6875C292.062 49.0781 292.151 48.513 292.328 47.9922C292.505 47.4661 292.76 47.0104 293.094 46.625C293.427 46.2344 293.831 45.9323 294.305 45.7188C294.779 45.5 295.31 45.3906 295.898 45.3906C296.492 45.3906 297.026 45.5 297.5 45.7188C297.979 45.9323 298.385 46.2344 298.719 46.625C299.057 47.0104 299.315 47.4661 299.492 47.9922C299.669 48.513 299.758 49.0781 299.758 49.6875V49.8672C299.758 50.4766 299.669 51.0417 299.492 51.5625C299.315 52.0833 299.057 52.5391 298.719 52.9297C298.385 53.3151 297.982 53.6172 297.508 53.8359C297.039 54.0495 296.508 54.1562 295.914 54.1562C295.32 54.1562 294.786 54.0495 294.312 53.8359C293.839 53.6172 293.432 53.3151 293.094 52.9297C292.76 52.5391 292.505 52.0833 292.328 51.5625C292.151 51.0417 292.062 50.4766 292.062 49.8672ZM293.508 49.6875V49.8672C293.508 50.2891 293.557 50.6875 293.656 51.0625C293.755 51.4323 293.904 51.7604 294.102 52.0469C294.305 52.3333 294.557 52.5599 294.859 52.7266C295.161 52.888 295.513 52.9688 295.914 52.9688C296.31 52.9688 296.656 52.888 296.953 52.7266C297.255 52.5599 297.505 52.3333 297.703 52.0469C297.901 51.7604 298.049 51.4323 298.148 51.0625C298.253 50.6875 298.305 50.2891 298.305 49.8672V49.6875C298.305 49.2708 298.253 48.8776 298.148 48.5078C298.049 48.1328 297.898 47.8021 297.695 47.5156C297.497 47.224 297.247 46.9948 296.945 46.8281C296.648 46.6615 296.299 46.5781 295.898 46.5781C295.503 46.5781 295.154 46.6615 294.852 46.8281C294.555 46.9948 294.305 47.224 294.102 47.5156C293.904 47.8021 293.755 48.1328 293.656 48.5078C293.557 48.8776 293.508 49.2708 293.508 49.6875ZM305.109 45.5469V46.6562H300.539V45.5469H305.109ZM302.086 43.4922H303.531V51.9062C303.531 52.1927 303.576 52.4089 303.664 52.5547C303.753 52.7005 303.867 52.7969 304.008 52.8438C304.148 52.8906 304.299 52.9141 304.461 52.9141C304.581 52.9141 304.706 52.9036 304.836 52.8828C304.971 52.8568 305.073 52.8359 305.141 52.8203L305.148 54C305.034 54.0365 304.883 54.0703 304.695 54.1016C304.513 54.138 304.292 54.1562 304.031 54.1562C303.677 54.1562 303.352 54.0859 303.055 53.9453C302.758 53.8047 302.521 53.5703 302.344 53.2422C302.172 52.9089 302.086 52.4609 302.086 51.8984V43.4922ZM314.156 52.9688C314.5 52.9688 314.818 52.8984 315.109 52.7578C315.401 52.6172 315.641 52.4245 315.828 52.1797C316.016 51.9297 316.122 51.6458 316.148 51.3281H317.523C317.497 51.8281 317.328 52.2943 317.016 52.7266C316.708 53.1536 316.305 53.5 315.805 53.7656C315.305 54.026 314.755 54.1562 314.156 54.1562C313.521 54.1562 312.966 54.0443 312.492 53.8203C312.023 53.5964 311.633 53.2891 311.32 52.8984C311.013 52.5078 310.781 52.0599 310.625 51.5547C310.474 51.0443 310.398 50.5052 310.398 49.9375V49.6094C310.398 49.0417 310.474 48.5052 310.625 48C310.781 47.4896 311.013 47.0391 311.32 46.6484C311.633 46.2578 312.023 45.9505 312.492 45.7266C312.966 45.5026 313.521 45.3906 314.156 45.3906C314.818 45.3906 315.396 45.526 315.891 45.7969C316.385 46.0625 316.773 46.4271 317.055 46.8906C317.341 47.349 317.497 47.8698 317.523 48.4531H316.148C316.122 48.1042 316.023 47.7891 315.852 47.5078C315.685 47.2266 315.456 47.0026 315.164 46.8359C314.878 46.6641 314.542 46.5781 314.156 46.5781C313.714 46.5781 313.341 46.6667 313.039 46.8438C312.742 47.0156 312.505 47.25 312.328 47.5469C312.156 47.8385 312.031 48.1641 311.953 48.5234C311.88 48.8776 311.844 49.2396 311.844 49.6094V49.9375C311.844 50.3073 311.88 50.6719 311.953 51.0312C312.026 51.3906 312.148 51.7161 312.32 52.0078C312.497 52.2995 312.734 52.5339 313.031 52.7109C313.333 52.8828 313.708 52.9688 314.156 52.9688ZM320.594 42V54H319.148V42H320.594ZM320.25 49.4531L319.648 49.4297C319.654 48.8516 319.74 48.3177 319.906 47.8281C320.073 47.3333 320.307 46.9036 320.609 46.5391C320.911 46.1745 321.271 45.8932 321.688 45.6953C322.109 45.4922 322.576 45.3906 323.086 45.3906C323.503 45.3906 323.878 45.4479 324.211 45.5625C324.544 45.6719 324.828 45.849 325.062 46.0938C325.302 46.3385 325.484 46.6562 325.609 47.0469C325.734 47.4323 325.797 47.9036 325.797 48.4609V54H324.344V48.4453C324.344 48.0026 324.279 47.6484 324.148 47.3828C324.018 47.112 323.828 46.9167 323.578 46.7969C323.328 46.6719 323.021 46.6094 322.656 46.6094C322.297 46.6094 321.969 46.6849 321.672 46.8359C321.38 46.987 321.128 47.1953 320.914 47.4609C320.706 47.7266 320.542 48.0312 320.422 48.375C320.307 48.7135 320.25 49.0729 320.25 49.4531ZM332.945 52.5547V48.2031C332.945 47.8698 332.878 47.5807 332.742 47.3359C332.612 47.0859 332.414 46.8932 332.148 46.7578C331.883 46.6224 331.555 46.5547 331.164 46.5547C330.799 46.5547 330.479 46.6172 330.203 46.7422C329.932 46.8672 329.719 47.0312 329.562 47.2344C329.411 47.4375 329.336 47.6562 329.336 47.8906H327.891C327.891 47.5885 327.969 47.2891 328.125 46.9922C328.281 46.6953 328.505 46.4271 328.797 46.1875C329.094 45.9427 329.448 45.75 329.859 45.6094C330.276 45.4635 330.74 45.3906 331.25 45.3906C331.865 45.3906 332.406 45.4948 332.875 45.7031C333.349 45.9115 333.719 46.2266 333.984 46.6484C334.255 47.0651 334.391 47.5885 334.391 48.2188V52.1562C334.391 52.4375 334.414 52.737 334.461 53.0547C334.513 53.3724 334.589 53.6458 334.688 53.875V54H333.18C333.107 53.8333 333.049 53.612 333.008 53.3359C332.966 53.0547 332.945 52.7943 332.945 52.5547ZM333.195 48.875L333.211 49.8906H331.75C331.339 49.8906 330.971 49.9245 330.648 49.9922C330.326 50.0547 330.055 50.151 329.836 50.2812C329.617 50.4115 329.451 50.5755 329.336 50.7734C329.221 50.9661 329.164 51.1927 329.164 51.4531C329.164 51.7188 329.224 51.9609 329.344 52.1797C329.464 52.3984 329.643 52.5729 329.883 52.7031C330.128 52.8281 330.427 52.8906 330.781 52.8906C331.224 52.8906 331.615 52.7969 331.953 52.6094C332.292 52.4219 332.56 52.1927 332.758 51.9219C332.961 51.651 333.07 51.388 333.086 51.1328L333.703 51.8281C333.667 52.0469 333.568 52.2891 333.406 52.5547C333.245 52.8203 333.029 53.0755 332.758 53.3203C332.492 53.5599 332.174 53.7604 331.805 53.9219C331.44 54.0781 331.029 54.1562 330.57 54.1562C329.997 54.1562 329.495 54.0443 329.062 53.8203C328.635 53.5964 328.302 53.2969 328.062 52.9219C327.828 52.5417 327.711 52.1172 327.711 51.6484C327.711 51.1953 327.799 50.7969 327.977 50.4531C328.154 50.1042 328.409 49.8151 328.742 49.5859C329.076 49.3516 329.477 49.1745 329.945 49.0547C330.414 48.9349 330.938 48.875 331.516 48.875H333.195ZM338.109 47.3516V54H336.664V45.5469H338.031L338.109 47.3516ZM337.766 49.4531L337.164 49.4297C337.169 48.8516 337.255 48.3177 337.422 47.8281C337.589 47.3333 337.823 46.9036 338.125 46.5391C338.427 46.1745 338.786 45.8932 339.203 45.6953C339.625 45.4922 340.091 45.3906 340.602 45.3906C341.018 45.3906 341.393 45.4479 341.727 45.5625C342.06 45.6719 342.344 45.849 342.578 46.0938C342.818 46.3385 343 46.6562 343.125 47.0469C343.25 47.4323 343.312 47.9036 343.312 48.4609V54H341.859V48.4453C341.859 48.0026 341.794 47.6484 341.664 47.3828C341.534 47.112 341.344 46.9167 341.094 46.7969C340.844 46.6719 340.536 46.6094 340.172 46.6094C339.812 46.6094 339.484 46.6849 339.188 46.8359C338.896 46.987 338.643 47.1953 338.43 47.4609C338.221 47.7266 338.057 48.0312 337.938 48.375C337.823 48.7135 337.766 49.0729 337.766 49.4531ZM350.984 45.5469H352.297V53.8203C352.297 54.5651 352.146 55.2005 351.844 55.7266C351.542 56.2526 351.12 56.651 350.578 56.9219C350.042 57.1979 349.422 57.3359 348.719 57.3359C348.427 57.3359 348.083 57.2891 347.688 57.1953C347.297 57.1068 346.911 56.9531 346.531 56.7344C346.156 56.5208 345.841 56.2318 345.586 55.8672L346.344 55.0078C346.698 55.4349 347.068 55.7318 347.453 55.8984C347.844 56.0651 348.229 56.1484 348.609 56.1484C349.068 56.1484 349.464 56.0625 349.797 55.8906C350.13 55.7188 350.388 55.4635 350.57 55.125C350.758 54.7917 350.852 54.3802 350.852 53.8906V47.4062L350.984 45.5469ZM345.164 49.8672V49.7031C345.164 49.0573 345.24 48.4714 345.391 47.9453C345.547 47.4141 345.768 46.9583 346.055 46.5781C346.346 46.1979 346.698 45.9062 347.109 45.7031C347.521 45.4948 347.984 45.3906 348.5 45.3906C349.031 45.3906 349.495 45.4844 349.891 45.6719C350.292 45.8542 350.63 46.1224 350.906 46.4766C351.188 46.8255 351.409 47.2474 351.57 47.7422C351.732 48.237 351.844 48.7969 351.906 49.4219V50.1406C351.849 50.7604 351.737 51.3177 351.57 51.8125C351.409 52.3073 351.188 52.7292 350.906 53.0781C350.63 53.4271 350.292 53.6953 349.891 53.8828C349.49 54.0651 349.021 54.1562 348.484 54.1562C347.979 54.1562 347.521 54.0495 347.109 53.8359C346.703 53.6224 346.354 53.3229 346.062 52.9375C345.771 52.5521 345.547 52.099 345.391 51.5781C345.24 51.0521 345.164 50.4818 345.164 49.8672ZM346.609 49.7031V49.8672C346.609 50.2891 346.651 50.6849 346.734 51.0547C346.823 51.4245 346.956 51.75 347.133 52.0312C347.315 52.3125 347.547 52.5339 347.828 52.6953C348.109 52.8516 348.445 52.9297 348.836 52.9297C349.315 52.9297 349.711 52.8281 350.023 52.625C350.336 52.4219 350.583 52.1536 350.766 51.8203C350.953 51.487 351.099 51.125 351.203 50.7344V48.8516C351.146 48.5651 351.057 48.2891 350.938 48.0234C350.823 47.7526 350.672 47.513 350.484 47.3047C350.302 47.0911 350.076 46.9219 349.805 46.7969C349.534 46.6719 349.216 46.6094 348.852 46.6094C348.456 46.6094 348.115 46.6927 347.828 46.8594C347.547 47.0208 347.315 47.2448 347.133 47.5312C346.956 47.8125 346.823 48.1406 346.734 48.5156C346.651 48.8854 346.609 49.2812 346.609 49.7031ZM358 54.1562C357.411 54.1562 356.878 54.0573 356.398 53.8594C355.924 53.6562 355.516 53.3724 355.172 53.0078C354.833 52.6432 354.573 52.2109 354.391 51.7109C354.208 51.2109 354.117 50.6641 354.117 50.0703V49.7422C354.117 49.0547 354.219 48.4427 354.422 47.9062C354.625 47.3646 354.901 46.9062 355.25 46.5312C355.599 46.1562 355.995 45.8724 356.438 45.6797C356.88 45.487 357.339 45.3906 357.812 45.3906C358.417 45.3906 358.938 45.4948 359.375 45.7031C359.818 45.9115 360.18 46.2031 360.461 46.5781C360.742 46.9479 360.951 47.3854 361.086 47.8906C361.221 48.3906 361.289 48.9375 361.289 49.5312V50.1797H354.977V49H359.844V48.8906C359.823 48.5156 359.745 48.151 359.609 47.7969C359.479 47.4427 359.271 47.151 358.984 46.9219C358.698 46.6927 358.307 46.5781 357.812 46.5781C357.484 46.5781 357.182 46.6484 356.906 46.7891C356.63 46.9245 356.393 47.1276 356.195 47.3984C355.997 47.6693 355.844 48 355.734 48.3906C355.625 48.7812 355.57 49.2318 355.57 49.7422V50.0703C355.57 50.4714 355.625 50.849 355.734 51.2031C355.849 51.5521 356.013 51.8594 356.227 52.125C356.445 52.3906 356.708 52.599 357.016 52.75C357.328 52.901 357.682 52.9766 358.078 52.9766C358.589 52.9766 359.021 52.8724 359.375 52.6641C359.729 52.4557 360.039 52.1771 360.305 51.8281L361.18 52.5234C360.997 52.7995 360.766 53.0625 360.484 53.3125C360.203 53.5625 359.857 53.7656 359.445 53.9219C359.039 54.0781 358.557 54.1562 358 54.1562Z" fill="black"/>
<circle cx="150.5" cy="199.5" r="98" fill="white" stroke="#018FFC" stroke-width="9"/>
<path d="M103.5 116L33.5 46" stroke="#018FFC" stroke-width="9"/>
<circle cx="29.5" cy="38.5" r="29.5" fill="#018FFC"/>
<path d="M24.8366 49.336C23.6686 49.336 22.7006 49.096 21.9326 48.616C21.1646 48.136 20.5886 47.48 20.2046 46.648C19.8206 45.8 19.6286 44.824 19.6286 43.72V35.008C19.6286 33.872 19.8126 32.88 20.1806 32.032C20.5486 31.168 21.1166 30.496 21.8846 30.016C22.6526 29.536 23.6366 29.296 24.8366 29.296C26.0206 29.296 26.9886 29.536 27.7406 30.016C28.5086 30.496 29.0766 31.168 29.4446 32.032C29.8126 32.88 29.9966 33.872 29.9966 35.008V43.72C29.9966 44.824 29.8046 45.8 29.4206 46.648C29.0366 47.48 28.4606 48.136 27.6926 48.616C26.9246 49.096 25.9726 49.336 24.8366 49.336ZM24.8366 46.072C25.2686 46.072 25.5806 45.936 25.7726 45.664C25.9646 45.392 26.0926 45.072 26.1566 44.704C26.2206 44.32 26.2526 43.968 26.2526 43.648V35.08C26.2526 34.728 26.2206 34.36 26.1566 33.976C26.1086 33.592 25.9886 33.264 25.7966 32.992C25.6046 32.704 25.2846 32.56 24.8366 32.56C24.3886 32.56 24.0606 32.704 23.8526 32.992C23.6606 33.264 23.5326 33.592 23.4686 33.976C23.4206 34.36 23.3966 34.728 23.3966 35.08V43.648C23.3966 43.968 23.4286 44.32 23.4926 44.704C23.5566 45.072 23.6926 45.392 23.9006 45.664C24.1086 45.936 24.4206 46.072 24.8366 46.072ZM34.7238 49V33.4C34.5798 33.48 34.3798 33.568 34.1238 33.664C33.8838 33.744 33.6198 33.84 33.3318 33.952C33.0438 34.048 32.7718 34.144 32.5158 34.24C32.2598 34.32 32.0598 34.392 31.9158 34.456V31.72C32.1078 31.624 32.3638 31.496 32.6838 31.336C33.0198 31.176 33.3718 31 33.7398 30.808C34.1078 30.616 34.4518 30.408 34.7718 30.184C35.1078 29.96 35.3638 29.752 35.5398 29.56H38.4198V49H34.7238Z" fill="white"/>
<circle cx="149" cy="199" r="80" fill="#0196FF"/>
</svg>
